<svg width="956" height="989" viewBox="0 0 956 989" fill="none" xmlns="http://www.w3.org/2000/svg">
<path d="M-940.098 309.502L-940.1 309.502C-1001.36 310.923 -1048.49 313.904 -1083.14 318.184C-1117.68 322.451 -1140.12 328.038 -1151.75 334.85L-1151.76 334.856C-1163.17 341.631 -1178.01 357.553 -1196.84 383.991C-1215.71 410.505 -1238.76 447.832 -1266.55 497.709C-1323.8 600.146 -1393.73 747.937 -1478.97 952.217L-1478.98 952.218C-1568.51 1167.03 -1628.55 1330.71 -1664.85 1451.78C-1682.57 1510.68 -1694.39 1556.55 -1701.07 1590.88C-1707.73 1625.1 -1709.35 1648.16 -1706.42 1661.25C-1703.62 1673.97 -1693.06 1692.87 -1673.69 1718.91C-1654.27 1745.03 -1625.8 1778.57 -1586.87 1820.59L-1586.87 1820.59C-1506.59 1907.16 -1387.74 2019.41 -1220.42 2162.98C-1043.07 2315.14 -905.923 2422.96 -802.628 2494.47C-752.062 2529.51 -712.142 2554.9 -681.665 2571.85C-651.286 2588.74 -630.022 2597.41 -616.875 2598.71L-616.841 2598.71L-616.808 2598.71C-603.632 2599.57 -581.254 2594.47 -548.55 2582.73C-515.74 2570.96 -472.245 2552.41 -416.68 2526.08L-417.536 2524.27L-416.679 2526.08C-303.105 2472.17 -150.293 2388.09 49.5161 2266.72C237.748 2152.32 373.352 2060.86 466.617 1988.45C511.896 1953.28 545.435 1924.81 568.842 1902.19C592.176 1879.65 605.658 1862.71 610.512 1850.61C615.49 1838.2 617.62 1815.2 616.604 1780.34C615.585 1745.37 611.384 1698.17 603.482 1637.12C587.346 1511.9 554.602 1340.59 501.095 1114.04C450.249 898.683 405.146 741.395 365.342 631.054C345.987 577.369 329.309 536.794 314.988 507.561C300.71 478.418 288.654 460.286 278.448 451.771C268.144 443.144 246.925 433.988 213.54 424.178C180.05 414.337 134.017 403.757 73.7993 392.419L73.4292 394.384L73.7987 392.418C-233.249 334.707 -627.779 302.47 -940.098 309.502ZM-635.498 2829.57L-635.621 2829.55L-635.745 2829.54L-635.75 2829.54L-635.755 2829.54L-635.76 2829.54L-635.765 2829.54L-635.77 2829.54L-635.775 2829.54L-635.78 2829.54L-635.784 2829.54L-635.789 2829.54L-635.794 2829.54L-635.799 2829.54L-635.804 2829.54L-635.809 2829.54L-635.814 2829.54L-635.819 2829.54L-635.824 2829.54L-635.829 2829.54L-635.834 2829.53L-635.839 2829.53L-635.844 2829.53L-635.849 2829.53L-635.854 2829.53L-635.859 2829.53L-635.864 2829.53L-635.869 2829.53L-635.874 2829.53L-635.879 2829.53L-635.884 2829.53L-635.889 2829.53L-635.894 2829.53L-635.899 2829.53L-635.904 2829.53L-635.909 2829.53L-635.914 2829.53L-635.919 2829.53L-635.924 2829.53L-635.929 2829.53L-635.934 2829.53L-635.94 2829.53L-635.945 2829.53L-635.95 2829.53L-635.955 2829.53L-635.96 2829.53L-635.965 2829.53L-635.97 2829.53L-635.975 2829.53L-635.98 2829.53L-635.985 2829.53L-635.99 2829.52L-635.995 2829.52L-636 2829.52L-636.005 2829.52L-636.01 2829.52L-636.015 2829.52L-636.02 2829.52L-636.025 2829.52L-636.03 2829.52L-636.036 2829.52L-636.041 2829.52L-636.046 2829.52L-636.051 2829.52L-636.056 2829.52L-636.061 2829.52L-636.066 2829.52L-636.071 2829.52L-636.076 2829.52L-636.081 2829.52L-636.086 2829.52L-636.091 2829.52L-636.096 2829.52L-636.102 2829.52L-636.107 2829.52L-636.112 2829.52L-636.117 2829.52L-636.122 2829.52L-636.127 2829.52L-636.132 2829.52L-636.137 2829.52L-636.142 2829.51L-636.147 2829.51L-636.153 2829.51L-636.158 2829.51L-636.163 2829.51L-636.168 2829.51L-636.173 2829.51L-636.178 2829.51L-636.183 2829.51L-636.188 2829.51L-636.194 2829.51L-636.199 2829.51L-636.204 2829.51L-636.209 2829.51L-636.214 2829.51L-636.219 2829.51L-636.224 2829.51L-636.229 2829.51L-636.235 2829.51L-636.24 2829.51L-636.245 2829.51L-636.25 2829.51L-636.255 2829.51L-636.26 2829.51L-636.265 2829.51L-636.27 2829.51L-636.276 2829.51L-636.281 2829.51L-636.286 2829.51L-636.291 2829.51L-636.296 2829.5L-636.301 2829.5L-636.307 2829.5L-636.312 2829.5L-636.317 2829.5L-636.322 2829.5L-636.327 2829.5L-636.332 2829.5L-636.337 2829.5L-636.343 2829.5L-636.348 2829.5L-636.353 2829.5L-636.358 2829.5L-636.363 2829.5L-636.369 2829.5L-636.374 2829.5L-636.379 2829.5L-636.384 2829.5L-636.389 2829.5L-636.394 2829.5L-636.4 2829.5L-636.405 2829.5L-636.41 2829.5L-636.415 2829.5L-636.42 2829.5L-636.425 2829.5L-636.431 2829.5L-636.436 2829.5L-636.441 2829.5L-636.446 2829.5L-636.451 2829.49L-636.457 2829.49L-636.462 2829.49L-636.467 2829.49L-636.472 2829.49L-636.477 2829.49L-636.483 2829.49L-636.488 2829.49L-636.493 2829.49L-636.498 2829.49L-636.503 2829.49L-636.509 2829.49L-636.514 2829.49L-636.519 2829.49L-636.524 2829.49L-636.529 2829.49L-636.535 2829.49L-636.54 2829.49L-636.545 2829.49L-636.55 2829.49L-636.555 2829.49L-636.561 2829.49L-636.566 2829.49L-636.571 2829.49L-636.576 2829.49L-636.581 2829.49L-636.587 2829.49L-636.592 2829.49L-636.597 2829.49L-636.602 2829.48L-636.608 2829.48L-636.613 2829.48L-636.618 2829.48L-636.623 2829.48L-636.628 2829.48L-636.634 2829.48L-636.639 2829.48L-636.644 2829.48L-636.649 2829.48L-636.655 2829.48L-636.66 2829.48L-636.665 2829.48L-636.67 2829.48L-636.676 2829.48L-636.681 2829.48L-636.686 2829.48L-636.691 2829.48L-636.696 2829.48L-636.702 2829.48L-636.707 2829.48L-636.712 2829.48L-636.717 2829.48L-636.723 2829.48L-636.728 2829.48L-636.733 2829.48L-636.738 2829.48L-636.743 2829.48L-636.749 2829.48L-636.754 2829.48L-636.759 2829.47L-636.764 2829.47L-636.77 2829.47L-636.775 2829.47L-636.78 2829.47L-636.786 2829.47L-636.791 2829.47L-636.796 2829.47L-636.801 2829.47L-636.806 2829.47L-636.812 2829.47L-636.817 2829.47L-636.822 2829.47L-636.827 2829.47L-636.833 2829.47L-636.838 2829.47L-636.843 2829.47L-636.848 2829.47L-636.854 2829.47L-636.859 2829.47L-636.864 2829.47L-636.869 2829.47L-636.875 2829.47L-636.88 2829.47L-636.885 2829.47L-636.89 2829.47L-636.896 2829.47L-636.901 2829.47L-636.906 2829.47L-636.911 2829.46L-636.917 2829.46L-636.922 2829.46L-636.927 2829.46L-636.932 2829.46L-636.938 2829.46L-636.943 2829.46L-636.948 2829.46L-636.953 2829.46L-636.959 2829.46L-636.964 2829.46L-636.969 2829.46L-636.974 2829.46L-636.98 2829.46L-636.985 2829.46L-636.99 2829.46L-636.995 2829.46L-637.001 2829.46L-637.006 2829.46L-637.011 2829.46L-637.016 2829.46L-637.022 2829.46L-637.027 2829.46L-637.032 2829.46L-637.037 2829.46L-637.043 2829.46L-637.048 2829.46L-637.053 2829.46L-637.058 2829.46L-637.064 2829.45L-637.069 2829.45L-637.074 2829.45L-637.079 2829.45L-637.085 2829.45L-637.09 2829.45L-637.095 2829.45L-637.101 2829.45L-637.106 2829.45L-637.111 2829.45L-637.116 2829.45L-637.122 2829.45L-637.127 2829.45L-637.132 2829.45L-637.137 2829.45L-637.143 2829.45L-637.148 2829.45L-637.153 2829.45L-637.158 2829.45L-637.164 2829.45L-637.169 2829.45L-637.174 2829.45L-637.179 2829.45L-637.185 2829.45L-637.19 2829.45L-637.195 2829.45L-637.2 2829.45L-637.206 2829.45L-637.211 2829.45L-637.216 2829.44L-637.221 2829.44L-637.227 2829.44L-637.232 2829.44L-637.237 2829.44L-637.242 2829.44L-637.248 2829.44L-637.253 2829.44L-637.258 2829.44L-637.263 2829.44L-637.269 2829.44L-637.274 2829.44L-637.279 2829.44L-637.284 2829.44L-637.29 2829.44L-637.295 2829.44L-637.3 2829.44L-637.305 2829.44L-637.311 2829.44L-637.316 2829.44L-637.321 2829.44L-637.326 2829.44L-637.331 2829.44L-637.337 2829.44L-637.342 2829.44L-637.347 2829.44L-637.353 2829.44L-637.358 2829.44L-637.363 2829.44L-637.368 2829.44L-637.374 2829.43L-637.379 2829.43L-637.384 2829.43L-637.389 2829.43L-637.394 2829.43L-637.4 2829.43L-637.405 2829.43L-637.41 2829.43L-637.415 2829.43L-637.421 2829.43L-637.426 2829.43L-637.431 2829.43L-637.436 2829.43L-637.441 2829.43L-637.447 2829.43L-637.452 2829.43L-637.457 2829.43L-637.462 2829.43L-637.468 2829.43L-637.473 2829.43L-637.478 2829.43L-637.483 2829.43L-637.488 2829.43L-637.494 2829.43L-637.499 2829.43L-637.504 2829.43L-637.509 2829.43L-637.515 2829.43L-637.52 2829.43L-637.525 2829.42L-637.53 2829.42L-637.536 2829.42L-637.541 2829.42L-637.546 2829.42L-637.551 2829.42L-637.556 2829.42L-637.562 2829.42L-637.567 2829.42L-637.572 2829.42L-637.577 2829.42L-637.582 2829.42L-637.588 2829.42L-637.593 2829.42L-637.598 2829.42L-637.603 2829.42L-637.608 2829.42L-637.614 2829.42L-637.619 2829.42L-637.624 2829.42L-637.629 2829.42L-637.634 2829.42L-637.64 2829.42L-637.645 2829.42L-637.65 2829.42L-637.655 2829.42L-637.66 2829.42L-637.666 2829.42L-637.671 2829.42L-637.676 2829.42L-637.681 2829.41L-637.686 2829.41L-637.692 2829.41L-637.697 2829.41L-637.702 2829.41L-637.707 2829.41L-637.712 2829.41L-637.718 2829.41L-637.723 2829.41L-637.728 2829.41L-637.733 2829.41L-637.738 2829.41L-637.743 2829.41L-637.749 2829.41L-637.754 2829.41L-637.759 2829.41L-637.764 2829.41L-637.769 2829.41L-637.774 2829.41L-637.78 2829.41L-637.785 2829.41L-637.79 2829.41L-637.795 2829.41L-637.8 2829.41L-637.805 2829.41L-637.811 2829.41L-637.816 2829.41L-637.821 2829.41L-637.826 2829.41L-637.831 2829.4L-637.836 2829.4L-637.842 2829.4L-637.847 2829.4L-637.852 2829.4L-637.857 2829.4L-637.862 2829.4L-637.867 2829.4L-637.872 2829.4L-637.878 2829.4L-637.883 2829.4L-637.888 2829.4L-637.893 2829.4L-637.898 2829.4L-637.903 2829.4L-637.908 2829.4L-637.914 2829.4L-637.919 2829.4L-637.924 2829.4L-637.929 2829.4L-637.934 2829.4L-637.939 2829.4L-637.944 2829.4L-637.949 2829.4L-637.954 2829.4L-637.96 2829.4L-637.965 2829.4L-637.97 2829.4L-637.975 2829.4L-637.98 2829.4L-637.985 2829.39L-637.99 2829.39L-637.995 2829.39L-638 2829.39L-638.006 2829.39L-638.011 2829.39L-638.016 2829.39L-638.021 2829.39L-638.026 2829.39L-638.031 2829.39L-638.036 2829.39L-638.041 2829.39L-638.046 2829.39L-638.051 2829.39L-638.057 2829.39L-638.062 2829.39L-638.067 2829.39L-638.072 2829.39L-638.077 2829.39L-638.082 2829.39L-638.087 2829.39L-638.092 2829.39L-638.097 2829.39L-638.102 2829.39L-638.107 2829.39L-638.112 2829.39L-638.117 2829.39L-638.122 2829.39L-638.127 2829.39L-638.133 2829.39L-638.138 2829.39L-638.143 2829.38L-638.148 2829.38L-638.153 2829.38L-638.158 2829.38L-638.163 2829.38L-638.168 2829.38L-638.173 2829.38L-638.178 2829.38L-638.183 2829.38L-638.188 2829.38L-638.193 2829.38L-638.198 2829.38L-638.203 2829.38L-638.208 2829.38L-638.213 2829.38L-638.218 2829.38L-638.223 2829.38L-638.228 2829.38L-638.233 2829.38L-638.238 2829.38L-638.243 2829.38L-638.248 2829.38L-638.253 2829.38L-638.258 2829.38L-638.263 2829.38L-638.268 2829.38L-638.273 2829.38L-638.278 2829.38L-638.283 2829.38L-638.288 2829.38L-638.293 2829.37L-638.298 2829.37L-638.303 2829.37L-638.308 2829.37L-638.313 2829.37L-638.318 2829.37L-638.323 2829.37L-638.328 2829.37L-638.333 2829.37L-638.338 2829.37L-638.343 2829.37L-638.348 2829.37L-638.353 2829.37C-702.347 2823.2 -798.704 2779.46 -934.718 2685.24C-1045.35 2608.59 -1188.96 2495.98 -1371.47 2339.4C-1545.36 2190.26 -1670.76 2071.54 -1757.33 1978.24C-1865.5 1861.48 -1918.84 1774.61 -1932.88 1711.2L-1932.88 1711.2C-1946.79 1648.84 -1935 1543.89 -1887.4 1385.43L-1889.31 1384.86L-1887.4 1385.43C-1848.88 1257.18 -1786.15 1085.76 -1693.26 862.865C-1605.41 652.361 -1531.29 496.419 -1468.86 384.66L-1468.86 384.659C-1391.17 245.348 -1325.06 167.638 -1269.56 134.8C-1214.62 102.452 -1111.04 81.3472 -945.009 77.6347L-945.008 77.6347C-614.287 70.1293 -208.759 103.289 116.335 164.366L116.705 162.4L116.336 164.366C279.502 195.003 378.308 232.65 427.22 273.539C476.628 314.881 529.26 402.216 583.356 552.431L585.238 551.753L583.357 552.432C626.769 672.771 674.652 838.661 727.052 1060.72L728.999 1060.26L727.052 1060.72C782.541 1295.6 816.727 1475.02 833.815 1607.84C855.034 1771.84 849.656 1877.31 825.836 1936.69C801.647 1996.88 734.89 2074.04 609.18 2171.56L610.406 2173.14L609.179 2171.56C508.602 2249.71 365.59 2346.42 169.812 2465.37C-35.6794 2590.25 -195.599 2678.03 -317.193 2735.66C-466.831 2806.54 -568.994 2834.09 -633.111 2829.82C-634.088 2829.75 -634.805 2829.71 -635.498 2829.57Z" stroke="#0481FE" stroke-width="4"/>
<path d="M-797.399 661.658L-797.398 661.658C-591.404 657.034 -331.043 678.318 -128.457 716.307L-128.826 718.273L-128.457 716.307C-88.753 723.768 -58.3796 730.76 -36.2612 737.279C-14.247 743.768 -0.115569 749.867 6.82077 755.678C13.6602 761.379 21.6608 773.446 31.0742 792.656C40.5321 811.956 51.5382 838.733 64.2948 874.136M-797.399 661.658L151.888 1193.31L153.835 1192.85C120.367 1050.78 90.6406 947.047 64.2948 874.136M-797.399 661.658C-837.806 662.582 -868.92 664.538 -891.805 667.359C-914.581 670.165 -929.51 673.857 -937.289 678.432L-937.292 678.434M-797.399 661.658L-937.292 678.434M64.2948 874.136L62.4132 874.814L64.2942 874.134C64.2942 874.135 64.2948 874.136 64.2948 874.136ZM-937.292 678.434C-944.964 682.965 -954.824 693.598 -967.247 711.046C-979.725 728.573 -994.953 753.217 -1013.32 786.066L-1013.32 786.068M-937.292 678.434L-1013.32 786.068M-1013.32 786.068C-1051.04 853.748 -1097.25 951.268 -1153.49 1086.02L-1153.49 1086.02M-1013.32 786.068L-1153.49 1086.02M-1153.49 1086.02C-1212.52 1227.69 -1252.2 1335.7 -1276.07 1415.51C-1287.77 1454.4 -1295.58 1484.69 -1300.01 1507.37C-1304.42 1529.94 -1305.54 1545.27 -1303.59 1554.06L-1303.59 1554.06M-1153.49 1086.02L-1303.59 1554.06M-1303.59 1554.06C-1301.69 1562.63 -1294.64 1575.22 -1281.86 1592.39C-1269.03 1609.65 -1250.22 1631.78 -1224.5 1659.49C-1171.56 1716.62 -1093.03 1790.65 -982.718 1885.37C-865.787 1985.81 -775.308 2056.9 -707.091 2104.09L-1303.59 1554.06ZM-596.397 2323.83L-596.206 2323.88C-595.997 2323.94 -595.722 2323.97 -595.372 2324C-595.232 2324.01 -595.079 2324.02 -594.914 2324.03L-594.909 2324.03C-552.74 2326.88 -485.518 2308.71 -386.829 2262.06C-306.663 2223.98 -201.14 2166.15 -65.5929 2083.77C63.4481 2005.3 157.809 1941.45 224.121 1889.99C306.984 1825.7 350.937 1774.93 366.79 1735.39C382.4 1696.35 385.958 1626.99 372.024 1518.79M-596.397 2323.83L374.007 1518.53M-596.397 2323.83L-596.595 2323.82M-596.397 2323.83L-596.595 2323.82M372.024 1518.79L374.007 1518.53M372.024 1518.79C372.024 1518.79 372.024 1518.79 372.024 1518.79L374.007 1518.53M372.024 1518.79C360.684 1431.15 338.201 1312.89 301.564 1157.97L301.563 1157.97C267.022 1011.55 235.491 902.141 206.795 822.706L206.794 822.703C171.193 723.704 136.537 666.252 104.01 639.041M374.007 1518.53C362.655 1430.8 340.156 1312.47 303.51 1157.51C268.959 1011.05 237.408 901.562 208.676 822.027C173.055 722.971 138.253 665.08 105.293 637.507M104.01 639.041C104.011 639.042 104.012 639.043 104.013 639.044L105.293 637.507M104.01 639.041C71.8712 612.274 6.87827 587.423 -100.702 567.29L-100.704 567.29C-315.152 526.973 -582.508 505.133 -800.638 510.003C-910.12 512.52 -978.264 526.395 -1014.36 547.676C-1050.8 569.252 -1094.3 620.354 -1145.6 712.22C-1186.7 785.953 -1235.63 888.753 -1293.5 1027.57C-1354.75 1174.54 -1396.2 1287.58 -1421.6 1372.19C-1452.98 1476.71 -1460.74 1545.79 -1451.59 1586.75L-1451.59 1586.75C-1442.37 1628.34 -1407.23 1685.52 -1335.89 1762.49L-1337.36 1763.85L-1335.89 1762.49C-1278.84 1824.09 -1196.15 1902.31 -1081.48 2000.76C-961.081 2104.04 -866.48 2178.28 -793.452 2228.75L-793.45 2228.76C-703.771 2290.93 -640.346 2319.7 -598.252 2323.71M104.01 639.041L-598.252 2323.71M105.293 637.507C72.728 610.383 7.27891 585.464 -100.334 565.324L105.293 637.507ZM-598.252 2323.71L-598.249 2323.71M-598.252 2323.71L-598.249 2323.71M-596.595 2323.82L-596.599 2323.82M-596.595 2323.82L-596.599 2323.82M-596.599 2323.82L-596.602 2323.81M-596.599 2323.82L-596.602 2323.81M-596.602 2323.81L-596.606 2323.81M-596.602 2323.81L-596.606 2323.81M-596.606 2323.81L-596.61 2323.81M-596.606 2323.81L-596.61 2323.81M-596.61 2323.81L-596.613 2323.81M-596.61 2323.81L-596.613 2323.81M-596.613 2323.81L-596.617 2323.81M-596.613 2323.81L-596.617 2323.81M-596.617 2323.81L-596.621 2323.81M-596.617 2323.81L-596.621 2323.81M-596.621 2323.81L-596.624 2323.81M-596.621 2323.81L-596.624 2323.81M-596.624 2323.81L-596.628 2323.81M-596.624 2323.81L-596.628 2323.81M-596.628 2323.81L-596.632 2323.81M-596.628 2323.81L-596.632 2323.81M-596.632 2323.81L-596.636 2323.81M-596.632 2323.81L-596.636 2323.81M-596.636 2323.81L-596.639 2323.81M-596.636 2323.81L-596.639 2323.81M-596.639 2323.81L-596.643 2323.81M-596.639 2323.81L-596.643 2323.81M-596.643 2323.81L-596.647 2323.81M-596.643 2323.81L-596.647 2323.81M-596.647 2323.81L-596.65 2323.81M-596.647 2323.81L-596.65 2323.81M-596.65 2323.81L-596.654 2323.81M-596.65 2323.81L-596.654 2323.81M-596.654 2323.81L-596.658 2323.81M-596.654 2323.81L-596.658 2323.81M-596.658 2323.81L-596.661 2323.81M-596.658 2323.81L-596.661 2323.81M-596.661 2323.81L-596.665 2323.81M-596.661 2323.81L-596.665 2323.81M-596.665 2323.81L-596.669 2323.81M-596.665 2323.81L-596.669 2323.81M-596.669 2323.81L-596.672 2323.81M-596.669 2323.81L-596.672 2323.81M-596.672 2323.81L-596.676 2323.81M-596.672 2323.81L-596.676 2323.81M-596.676 2323.81L-596.68 2323.81M-596.676 2323.81L-596.68 2323.81M-596.68 2323.81L-596.683 2323.81M-596.68 2323.81L-596.683 2323.81M-596.683 2323.81L-596.687 2323.81M-596.683 2323.81L-596.687 2323.81M-596.687 2323.81L-596.691 2323.81M-596.687 2323.81L-596.691 2323.81M-596.691 2323.81L-596.694 2323.81M-596.691 2323.81L-596.694 2323.81M-596.694 2323.81L-596.698 2323.81M-596.694 2323.81L-596.698 2323.81M-596.698 2323.81L-596.701 2323.81M-596.698 2323.81L-596.701 2323.81M-596.701 2323.81L-596.705 2323.81M-596.701 2323.81L-596.705 2323.81M-596.705 2323.81L-596.709 2323.81M-596.705 2323.81L-596.709 2323.81M-596.709 2323.81L-596.712 2323.81M-596.709 2323.81L-596.712 2323.81M-596.712 2323.81L-596.716 2323.81M-596.712 2323.81L-596.716 2323.81M-596.716 2323.81L-596.72 2323.81M-596.716 2323.81L-596.72 2323.81M-596.72 2323.81L-596.723 2323.81M-596.72 2323.81L-596.723 2323.81M-596.723 2323.81L-596.727 2323.81M-596.723 2323.81L-596.727 2323.81M-596.727 2323.81L-596.731 2323.81M-596.727 2323.81L-596.731 2323.81M-596.731 2323.81L-596.734 2323.81M-596.731 2323.81L-596.734 2323.81M-596.734 2323.81L-596.738 2323.81M-596.734 2323.81L-596.738 2323.81M-596.738 2323.81L-596.741 2323.81M-596.738 2323.81L-596.741 2323.81M-596.741 2323.81L-596.745 2323.81M-596.741 2323.81L-596.745 2323.81M-596.745 2323.81L-596.749 2323.81M-596.745 2323.81L-596.749 2323.81M-596.749 2323.81L-596.752 2323.81M-596.749 2323.81L-596.752 2323.81M-596.752 2323.81L-596.756 2323.81M-596.752 2323.81L-596.756 2323.81M-596.756 2323.81L-596.759 2323.8M-596.756 2323.81L-596.759 2323.8M-596.759 2323.8L-596.763 2323.8M-596.759 2323.8L-596.763 2323.8M-596.763 2323.8L-596.767 2323.8M-596.763 2323.8L-596.767 2323.8M-596.767 2323.8L-596.77 2323.8M-596.767 2323.8L-596.77 2323.8M-596.77 2323.8L-596.774 2323.8M-596.77 2323.8L-596.774 2323.8M-596.774 2323.8L-596.777 2323.8M-596.774 2323.8L-596.777 2323.8M-596.777 2323.8L-596.781 2323.8M-596.777 2323.8L-596.781 2323.8M-596.781 2323.8L-596.785 2323.8M-596.781 2323.8L-596.785 2323.8M-596.785 2323.8L-596.788 2323.8M-596.785 2323.8L-596.788 2323.8M-596.788 2323.8L-596.792 2323.8M-596.788 2323.8L-596.792 2323.8M-596.792 2323.8L-596.795 2323.8M-596.792 2323.8L-596.795 2323.8M-596.795 2323.8L-596.799 2323.8M-596.795 2323.8L-596.799 2323.8M-596.799 2323.8L-596.803 2323.8M-596.799 2323.8L-596.803 2323.8M-596.803 2323.8L-596.806 2323.8M-596.803 2323.8L-596.806 2323.8M-596.806 2323.8L-596.81 2323.8M-596.806 2323.8L-596.81 2323.8M-596.81 2323.8L-596.813 2323.8M-596.81 2323.8L-596.813 2323.8M-596.813 2323.8L-596.817 2323.8M-596.813 2323.8L-596.817 2323.8M-596.817 2323.8L-596.82 2323.8M-596.817 2323.8L-596.82 2323.8M-596.82 2323.8L-596.824 2323.8M-596.82 2323.8L-596.824 2323.8M-596.824 2323.8L-596.828 2323.8M-596.824 2323.8L-596.828 2323.8M-596.828 2323.8L-596.831 2323.8M-596.828 2323.8L-596.831 2323.8M-596.831 2323.8L-596.835 2323.8M-596.831 2323.8L-596.835 2323.8M-596.835 2323.8L-596.838 2323.8M-596.835 2323.8L-596.838 2323.8M-596.838 2323.8L-596.842 2323.8M-596.838 2323.8L-596.842 2323.8M-596.842 2323.8L-596.845 2323.8M-596.842 2323.8L-596.845 2323.8M-596.845 2323.8L-596.849 2323.8M-596.845 2323.8L-596.849 2323.8M-596.849 2323.8L-596.852 2323.8M-596.849 2323.8L-596.852 2323.8M-596.852 2323.8L-596.856 2323.8M-596.852 2323.8L-596.856 2323.8M-596.856 2323.8L-596.86 2323.8M-596.856 2323.8L-596.86 2323.8M-596.86 2323.8L-596.863 2323.8M-596.86 2323.8L-596.863 2323.8M-596.863 2323.8L-596.867 2323.8M-596.863 2323.8L-596.867 2323.8M-596.867 2323.8L-596.87 2323.8M-596.867 2323.8L-596.87 2323.8M-596.87 2323.8L-596.874 2323.8M-596.87 2323.8L-596.874 2323.8M-596.874 2323.8L-596.877 2323.8M-596.874 2323.8L-596.877 2323.8M-596.877 2323.8L-596.881 2323.8M-596.877 2323.8L-596.881 2323.8M-596.881 2323.8L-596.884 2323.8M-596.881 2323.8L-596.884 2323.8M-596.884 2323.8L-596.888 2323.8M-596.884 2323.8L-596.888 2323.8M-596.888 2323.8L-596.891 2323.8M-596.888 2323.8L-596.891 2323.8M-596.891 2323.8L-596.895 2323.8M-596.891 2323.8L-596.895 2323.8M-596.895 2323.8L-596.898 2323.8M-596.895 2323.8L-596.898 2323.8M-596.898 2323.8L-596.902 2323.8M-596.898 2323.8L-596.902 2323.8M-596.902 2323.8L-596.905 2323.8M-596.902 2323.8L-596.905 2323.8M-596.905 2323.8L-596.909 2323.8M-596.905 2323.8L-596.909 2323.8M-596.909 2323.8L-596.913 2323.79M-596.909 2323.8L-596.913 2323.79M-596.913 2323.79L-596.916 2323.79M-596.913 2323.79L-596.916 2323.79M-596.916 2323.79L-596.92 2323.79M-596.916 2323.79L-596.92 2323.79M-596.92 2323.79L-596.923 2323.79M-596.92 2323.79L-596.923 2323.79M-596.923 2323.79L-596.927 2323.79M-596.923 2323.79L-596.927 2323.79M-596.927 2323.79L-596.93 2323.79M-596.927 2323.79L-596.93 2323.79M-596.93 2323.79L-596.934 2323.79M-596.93 2323.79L-596.934 2323.79M-596.934 2323.79L-596.937 2323.79M-596.934 2323.79L-596.937 2323.79M-596.937 2323.79L-596.941 2323.79M-596.937 2323.79L-596.941 2323.79M-596.941 2323.79L-596.944 2323.79M-596.941 2323.79L-596.944 2323.79M-596.944 2323.79L-596.948 2323.79M-596.944 2323.79L-596.948 2323.79M-596.948 2323.79L-596.951 2323.79M-596.948 2323.79L-596.951 2323.79M-596.951 2323.79L-596.955 2323.79M-596.951 2323.79L-596.955 2323.79M-596.955 2323.79L-596.958 2323.79M-596.955 2323.79L-596.958 2323.79M-596.958 2323.79L-596.961 2323.79M-596.958 2323.79L-596.961 2323.79M-596.961 2323.79L-596.965 2323.79M-596.961 2323.79L-596.965 2323.79M-596.965 2323.79L-596.968 2323.79M-596.965 2323.79L-596.968 2323.79M-596.968 2323.79L-596.972 2323.79M-596.968 2323.79L-596.972 2323.79M-596.972 2323.79L-596.975 2323.79M-596.972 2323.79L-596.975 2323.79M-596.975 2323.79L-596.979 2323.79M-596.975 2323.79L-596.979 2323.79M-596.979 2323.79L-596.982 2323.79M-596.979 2323.79L-596.982 2323.79M-596.982 2323.79L-596.986 2323.79M-596.982 2323.79L-596.986 2323.79M-596.986 2323.79L-596.989 2323.79M-596.986 2323.79L-596.989 2323.79M-596.989 2323.79L-596.993 2323.79M-596.989 2323.79L-596.993 2323.79M-596.993 2323.79L-596.996 2323.79M-596.993 2323.79L-596.996 2323.79M-596.996 2323.79L-597 2323.79M-596.996 2323.79L-597 2323.79M-597 2323.79L-597.003 2323.79M-597 2323.79L-597.003 2323.79M-597.003 2323.79L-597.007 2323.79M-597.003 2323.79L-597.007 2323.79M-597.007 2323.79L-597.01 2323.79M-597.007 2323.79L-597.01 2323.79M-597.01 2323.79L-597.014 2323.79M-597.01 2323.79L-597.014 2323.79M-597.014 2323.79L-597.017 2323.79M-597.014 2323.79L-597.017 2323.79M-597.017 2323.79L-597.02 2323.79M-597.017 2323.79L-597.02 2323.79M-597.02 2323.79L-597.024 2323.79M-597.02 2323.79L-597.024 2323.79M-597.024 2323.79L-597.027 2323.79M-597.024 2323.79L-597.027 2323.79M-597.027 2323.79L-597.031 2323.79M-597.027 2323.79L-597.031 2323.79M-597.031 2323.79L-597.034 2323.79M-597.031 2323.79L-597.034 2323.79M-597.034 2323.79L-597.038 2323.79M-597.034 2323.79L-597.038 2323.79M-597.038 2323.79L-597.041 2323.79M-597.038 2323.79L-597.041 2323.79M-597.041 2323.79L-597.045 2323.79M-597.041 2323.79L-597.045 2323.79M-597.045 2323.79L-597.048 2323.79M-597.045 2323.79L-597.048 2323.79M-597.048 2323.79L-597.052 2323.79M-597.048 2323.79L-597.052 2323.79M-597.052 2323.79L-597.055 2323.79M-597.052 2323.79L-597.055 2323.79M-597.055 2323.79L-597.058 2323.79M-597.055 2323.79L-597.058 2323.79M-597.058 2323.79L-597.062 2323.79M-597.058 2323.79L-597.062 2323.79M-597.062 2323.79L-597.065 2323.78M-597.062 2323.79L-597.065 2323.78M-597.065 2323.78L-597.069 2323.78M-597.065 2323.78L-597.069 2323.78M-597.069 2323.78L-597.072 2323.78M-597.069 2323.78L-597.072 2323.78M-597.072 2323.78L-597.076 2323.78M-597.072 2323.78L-597.076 2323.78M-597.076 2323.78L-597.079 2323.78M-597.076 2323.78L-597.079 2323.78M-597.079 2323.78L-597.082 2323.78M-597.079 2323.78L-597.082 2323.78M-597.082 2323.78L-597.086 2323.78M-597.082 2323.78L-597.086 2323.78M-597.086 2323.78L-597.089 2323.78M-597.086 2323.78L-597.089 2323.78M-597.089 2323.78L-597.093 2323.78M-597.089 2323.78L-597.093 2323.78M-597.093 2323.78L-597.096 2323.78M-597.093 2323.78L-597.096 2323.78M-597.096 2323.78L-597.099 2323.78M-597.096 2323.78L-597.099 2323.78M-597.099 2323.78L-597.103 2323.78M-597.099 2323.78L-597.103 2323.78M-597.103 2323.78L-597.106 2323.78M-597.103 2323.78L-597.106 2323.78M-597.106 2323.78L-597.11 2323.78M-597.106 2323.78L-597.11 2323.78M-597.11 2323.78L-597.113 2323.78M-597.11 2323.78L-597.113 2323.78M-597.113 2323.78L-597.117 2323.78M-597.113 2323.78L-597.117 2323.78M-597.117 2323.78L-597.12 2323.78M-597.117 2323.78L-597.12 2323.78M-597.12 2323.78L-597.123 2323.78M-597.12 2323.78L-597.123 2323.78M-597.123 2323.78L-597.127 2323.78M-597.123 2323.78L-597.127 2323.78M-597.127 2323.78L-597.13 2323.78M-597.127 2323.78L-597.13 2323.78M-597.13 2323.78L-597.134 2323.78M-597.13 2323.78L-597.134 2323.78M-597.134 2323.78L-597.137 2323.78M-597.134 2323.78L-597.137 2323.78M-597.137 2323.78L-597.14 2323.78M-597.137 2323.78L-597.14 2323.78M-597.14 2323.78L-597.144 2323.78M-597.14 2323.78L-597.144 2323.78M-597.144 2323.78L-597.147 2323.78M-597.144 2323.78L-597.147 2323.78M-597.147 2323.78L-597.151 2323.78M-597.147 2323.78L-597.151 2323.78M-597.151 2323.78L-597.154 2323.78M-597.151 2323.78L-597.154 2323.78M-597.154 2323.78L-597.157 2323.78M-597.154 2323.78L-597.157 2323.78M-597.157 2323.78L-597.161 2323.78M-597.157 2323.78L-597.161 2323.78M-597.161 2323.78L-597.164 2323.78M-597.161 2323.78L-597.164 2323.78M-597.164 2323.78L-597.167 2323.78M-597.164 2323.78L-597.167 2323.78M-597.167 2323.78L-597.171 2323.78M-597.167 2323.78L-597.171 2323.78M-597.171 2323.78L-597.174 2323.78M-597.171 2323.78L-597.174 2323.78M-597.174 2323.78L-597.178 2323.78M-597.174 2323.78L-597.178 2323.78M-597.178 2323.78L-597.181 2323.78M-597.178 2323.78L-597.181 2323.78M-597.181 2323.78L-597.184 2323.78M-597.181 2323.78L-597.184 2323.78M-597.184 2323.78L-597.188 2323.78M-597.184 2323.78L-597.188 2323.78M-597.188 2323.78L-597.191 2323.78M-597.188 2323.78L-597.191 2323.78M-597.191 2323.78L-597.194 2323.78M-597.191 2323.78L-597.194 2323.78M-597.194 2323.78L-597.198 2323.78M-597.194 2323.78L-597.198 2323.78M-597.198 2323.78L-597.201 2323.78M-597.198 2323.78L-597.201 2323.78M-597.201 2323.78L-597.204 2323.78M-597.201 2323.78L-597.204 2323.78M-597.204 2323.78L-597.208 2323.78M-597.204 2323.78L-597.208 2323.78M-597.208 2323.78L-597.211 2323.78M-597.208 2323.78L-597.211 2323.78M-597.211 2323.78L-597.215 2323.78M-597.211 2323.78L-597.215 2323.78M-597.215 2323.78L-597.218 2323.77M-597.215 2323.78L-597.218 2323.77M-597.218 2323.77L-597.221 2323.77M-597.218 2323.77L-597.221 2323.77M-597.221 2323.77L-597.225 2323.77M-597.221 2323.77L-597.225 2323.77M-597.225 2323.77L-597.228 2323.77M-597.225 2323.77L-597.228 2323.77M-597.228 2323.77L-597.231 2323.77M-597.228 2323.77L-597.231 2323.77M-597.231 2323.77L-597.235 2323.77M-597.231 2323.77L-597.235 2323.77M-597.235 2323.77L-597.238 2323.77M-597.235 2323.77L-597.238 2323.77M-597.238 2323.77L-597.241 2323.77M-597.238 2323.77L-597.241 2323.77M-597.241 2323.77L-597.245 2323.77M-597.241 2323.77L-597.245 2323.77M-597.245 2323.77L-597.248 2323.77M-597.245 2323.77L-597.248 2323.77M-597.248 2323.77L-597.251 2323.77M-597.248 2323.77L-597.251 2323.77M-597.251 2323.77L-597.255 2323.77M-597.251 2323.77L-597.255 2323.77M-597.255 2323.77L-597.258 2323.77M-597.255 2323.77L-597.258 2323.77M-597.258 2323.77L-597.261 2323.77M-597.258 2323.77L-597.261 2323.77M-597.261 2323.77L-597.265 2323.77M-597.261 2323.77L-597.265 2323.77M-597.265 2323.77L-597.268 2323.77M-597.265 2323.77L-597.268 2323.77M-597.268 2323.77L-597.271 2323.77M-597.268 2323.77L-597.271 2323.77M-597.271 2323.77L-597.275 2323.77M-597.271 2323.77L-597.275 2323.77M-597.275 2323.77L-597.278 2323.77M-597.275 2323.77L-597.278 2323.77M-597.278 2323.77L-597.281 2323.77M-597.278 2323.77L-597.281 2323.77M-597.281 2323.77L-597.285 2323.77M-597.281 2323.77L-597.285 2323.77M-597.285 2323.77L-597.288 2323.77M-597.285 2323.77L-597.288 2323.77M-597.288 2323.77L-597.291 2323.77M-597.288 2323.77L-597.291 2323.77M-597.291 2323.77L-597.295 2323.77M-597.291 2323.77L-597.295 2323.77M-597.295 2323.77L-597.298 2323.77M-597.295 2323.77L-597.298 2323.77M-597.298 2323.77L-597.301 2323.77M-597.298 2323.77L-597.301 2323.77M-597.301 2323.77L-597.305 2323.77M-597.301 2323.77L-597.305 2323.77M-597.305 2323.77L-597.308 2323.77M-597.305 2323.77L-597.308 2323.77M-597.308 2323.77L-597.311 2323.77M-597.308 2323.77L-597.311 2323.77M-597.311 2323.77L-597.315 2323.77M-597.311 2323.77L-597.315 2323.77M-597.315 2323.77L-597.318 2323.77M-597.315 2323.77L-597.318 2323.77M-597.318 2323.77L-597.321 2323.77M-597.318 2323.77L-597.321 2323.77M-597.321 2323.77L-597.325 2323.77M-597.321 2323.77L-597.325 2323.77M-597.325 2323.77L-597.328 2323.77M-597.325 2323.77L-597.328 2323.77M-597.328 2323.77L-597.331 2323.77M-597.328 2323.77L-597.331 2323.77M-597.331 2323.77L-597.334 2323.77M-597.331 2323.77L-597.334 2323.77M-597.334 2323.77L-597.338 2323.77M-597.334 2323.77L-597.338 2323.77M-597.338 2323.77L-597.341 2323.77M-597.338 2323.77L-597.341 2323.77M-597.341 2323.77L-597.344 2323.77M-597.341 2323.77L-597.344 2323.77M-597.344 2323.77L-597.348 2323.77M-597.344 2323.77L-597.348 2323.77M-597.348 2323.77L-597.351 2323.77M-597.348 2323.77L-597.351 2323.77M-597.351 2323.77L-597.354 2323.77M-597.351 2323.77L-597.354 2323.77M-597.354 2323.77L-597.358 2323.77M-597.354 2323.77L-597.358 2323.77M-597.358 2323.77L-597.361 2323.77M-597.358 2323.77L-597.361 2323.77M-597.361 2323.77L-597.364 2323.77M-597.361 2323.77L-597.364 2323.77M-597.364 2323.77L-597.367 2323.77M-597.364 2323.77L-597.367 2323.77M-597.367 2323.77L-597.371 2323.77M-597.367 2323.77L-597.371 2323.77M-597.371 2323.77L-597.374 2323.76M-597.371 2323.77L-597.374 2323.76M-597.374 2323.76L-597.377 2323.76M-597.374 2323.76L-597.377 2323.76M-597.377 2323.76L-597.381 2323.76M-597.377 2323.76L-597.381 2323.76M-597.381 2323.76L-597.384 2323.76M-597.381 2323.76L-597.384 2323.76M-597.384 2323.76L-597.387 2323.76M-597.384 2323.76L-597.387 2323.76M-597.387 2323.76L-597.39 2323.76M-597.387 2323.76L-597.39 2323.76M-597.39 2323.76L-597.394 2323.76M-597.39 2323.76L-597.394 2323.76M-597.394 2323.76L-597.397 2323.76M-597.394 2323.76L-597.397 2323.76M-597.397 2323.76L-597.4 2323.76M-597.397 2323.76L-597.4 2323.76M-597.4 2323.76L-597.404 2323.76M-597.4 2323.76L-597.404 2323.76M-597.404 2323.76L-597.407 2323.76M-597.404 2323.76L-597.407 2323.76M-597.407 2323.76L-597.41 2323.76M-597.407 2323.76L-597.41 2323.76M-597.41 2323.76L-597.413 2323.76M-597.41 2323.76L-597.413 2323.76M-597.413 2323.76L-597.417 2323.76M-597.413 2323.76L-597.417 2323.76M-597.417 2323.76L-597.42 2323.76M-597.417 2323.76L-597.42 2323.76M-597.42 2323.76L-597.423 2323.76M-597.42 2323.76L-597.423 2323.76M-597.423 2323.76L-597.426 2323.76M-597.423 2323.76L-597.426 2323.76M-597.426 2323.76L-597.43 2323.76M-597.426 2323.76L-597.43 2323.76M-597.43 2323.76L-597.433 2323.76M-597.43 2323.76L-597.433 2323.76M-597.433 2323.76L-597.436 2323.76M-597.433 2323.76L-597.436 2323.76M-597.436 2323.76L-597.439 2323.76M-597.436 2323.76L-597.439 2323.76M-597.439 2323.76L-597.443 2323.76M-597.439 2323.76L-597.443 2323.76M-597.443 2323.76L-597.446 2323.76M-597.443 2323.76L-597.446 2323.76M-597.446 2323.76L-597.449 2323.76M-597.446 2323.76L-597.449 2323.76M-597.449 2323.76L-597.453 2323.76M-597.449 2323.76L-597.453 2323.76M-597.453 2323.76L-597.456 2323.76M-597.453 2323.76L-597.456 2323.76M-597.456 2323.76L-597.459 2323.76M-597.456 2323.76L-597.459 2323.76M-597.459 2323.76L-597.462 2323.76M-597.459 2323.76L-597.462 2323.76M-597.462 2323.76L-597.466 2323.76M-597.462 2323.76L-597.466 2323.76M-597.466 2323.76L-597.469 2323.76M-597.466 2323.76L-597.469 2323.76M-597.469 2323.76L-597.472 2323.76M-597.469 2323.76L-597.472 2323.76M-597.472 2323.76L-597.475 2323.76M-597.472 2323.76L-597.475 2323.76M-597.475 2323.76L-597.479 2323.76M-597.475 2323.76L-597.479 2323.76M-597.479 2323.76L-597.482 2323.76M-597.479 2323.76L-597.482 2323.76M-597.482 2323.76L-597.485 2323.76M-597.482 2323.76L-597.485 2323.76M-597.485 2323.76L-597.488 2323.76M-597.485 2323.76L-597.488 2323.76M-597.488 2323.76L-597.491 2323.76M-597.488 2323.76L-597.491 2323.76M-597.491 2323.76L-597.495 2323.76M-597.491 2323.76L-597.495 2323.76M-597.495 2323.76L-597.498 2323.76M-597.495 2323.76L-597.498 2323.76M-597.498 2323.76L-597.501 2323.76M-597.498 2323.76L-597.501 2323.76M-597.501 2323.76L-597.504 2323.76M-597.501 2323.76L-597.504 2323.76M-597.504 2323.76L-597.508 2323.76M-597.504 2323.76L-597.508 2323.76M-597.508 2323.76L-597.511 2323.76M-597.508 2323.76L-597.511 2323.76M-597.511 2323.76L-597.514 2323.76M-597.511 2323.76L-597.514 2323.76M-597.514 2323.76L-597.517 2323.76M-597.514 2323.76L-597.517 2323.76M-597.517 2323.76L-597.521 2323.76M-597.517 2323.76L-597.521 2323.76M-597.521 2323.76L-597.524 2323.76M-597.521 2323.76L-597.524 2323.76M-597.524 2323.76L-597.527 2323.75M-597.524 2323.76L-597.527 2323.75M-597.527 2323.75L-597.53 2323.75M-597.527 2323.75L-597.53 2323.75M-597.53 2323.75L-597.534 2323.75M-597.53 2323.75L-597.534 2323.75M-597.534 2323.75L-597.537 2323.75M-597.534 2323.75L-597.537 2323.75M-597.537 2323.75L-597.54 2323.75M-597.537 2323.75L-597.54 2323.75M-597.54 2323.75L-597.543 2323.75M-597.54 2323.75L-597.543 2323.75M-597.543 2323.75L-597.546 2323.75M-597.543 2323.75L-597.546 2323.75M-597.546 2323.75L-597.55 2323.75M-597.546 2323.75L-597.55 2323.75M-597.55 2323.75L-597.553 2323.75M-597.55 2323.75L-597.553 2323.75M-597.553 2323.75L-597.556 2323.75M-597.553 2323.75L-597.556 2323.75M-597.556 2323.75L-597.559 2323.75M-597.556 2323.75L-597.559 2323.75M-597.559 2323.75L-597.563 2323.75M-597.559 2323.75L-597.563 2323.75M-597.563 2323.75L-597.566 2323.75M-597.563 2323.75L-597.566 2323.75M-597.566 2323.75L-597.569 2323.75M-597.566 2323.75L-597.569 2323.75M-597.569 2323.75L-597.572 2323.75M-597.569 2323.75L-597.572 2323.75M-597.572 2323.75L-597.575 2323.75M-597.572 2323.75L-597.575 2323.75M-597.575 2323.75L-597.579 2323.75M-597.575 2323.75L-597.579 2323.75M-597.579 2323.75L-597.582 2323.75M-597.579 2323.75L-597.582 2323.75M-597.582 2323.75L-597.585 2323.75M-597.582 2323.75L-597.585 2323.75M-597.585 2323.75L-597.588 2323.75M-597.585 2323.75L-597.588 2323.75M-597.588 2323.75L-597.591 2323.75M-597.588 2323.75L-597.591 2323.75M-597.591 2323.75L-597.595 2323.75M-597.591 2323.75L-597.595 2323.75M-597.595 2323.75L-597.598 2323.75M-597.595 2323.75L-597.598 2323.75M-597.598 2323.75L-597.601 2323.75M-597.598 2323.75L-597.601 2323.75M-597.601 2323.75L-597.604 2323.75M-597.601 2323.75L-597.604 2323.75M-597.604 2323.75L-597.607 2323.75M-597.604 2323.75L-597.607 2323.75M-597.607 2323.75L-597.611 2323.75M-597.607 2323.75L-597.611 2323.75M-597.611 2323.75L-597.614 2323.75M-597.611 2323.75L-597.614 2323.75M-597.614 2323.75L-597.617 2323.75M-597.614 2323.75L-597.617 2323.75M-597.617 2323.75L-597.62 2323.75M-597.617 2323.75L-597.62 2323.75M-597.62 2323.75L-597.623 2323.75M-597.62 2323.75L-597.623 2323.75M-597.623 2323.75L-597.627 2323.75M-597.623 2323.75L-597.627 2323.75M-597.627 2323.75L-597.63 2323.75M-597.627 2323.75L-597.63 2323.75M-597.63 2323.75L-597.633 2323.75M-597.63 2323.75L-597.633 2323.75M-597.633 2323.75L-597.636 2323.75M-597.633 2323.75L-597.636 2323.75M-597.636 2323.75L-597.639 2323.75M-597.636 2323.75L-597.639 2323.75M-597.639 2323.75L-597.643 2323.75M-597.639 2323.75L-597.643 2323.75M-597.643 2323.75L-597.646 2323.75M-597.643 2323.75L-597.646 2323.75M-597.646 2323.75L-597.649 2323.75M-597.646 2323.75L-597.649 2323.75M-597.649 2323.75L-597.652 2323.75M-597.649 2323.75L-597.652 2323.75M-597.652 2323.75L-597.655 2323.75M-597.652 2323.75L-597.655 2323.75M-597.655 2323.75L-597.658 2323.75M-597.655 2323.75L-597.658 2323.75M-597.658 2323.75L-597.662 2323.75M-597.658 2323.75L-597.662 2323.75M-597.662 2323.75L-597.665 2323.75M-597.662 2323.75L-597.665 2323.75M-597.665 2323.75L-597.668 2323.75M-597.665 2323.75L-597.668 2323.75M-597.668 2323.75L-597.671 2323.75M-597.668 2323.75L-597.671 2323.75M-597.671 2323.75L-597.674 2323.75M-597.671 2323.75L-597.674 2323.75M-597.674 2323.75L-597.678 2323.75M-597.674 2323.75L-597.678 2323.75M-597.678 2323.75L-597.681 2323.74M-597.678 2323.75L-597.681 2323.74M-597.681 2323.74L-597.684 2323.74M-597.681 2323.74L-597.684 2323.74M-597.684 2323.74L-597.687 2323.74M-597.684 2323.74L-597.687 2323.74M-597.687 2323.74L-597.69 2323.74M-597.687 2323.74L-597.69 2323.74M-597.69 2323.74L-597.694 2323.74M-597.69 2323.74L-597.694 2323.74M-597.694 2323.74L-597.697 2323.74M-597.694 2323.74L-597.697 2323.74M-597.697 2323.74L-597.7 2323.74M-597.697 2323.74L-597.7 2323.74M-597.7 2323.74L-597.703 2323.74M-597.7 2323.74L-597.703 2323.74M-597.703 2323.74L-597.706 2323.74M-597.703 2323.74L-597.706 2323.74M-597.706 2323.74L-597.709 2323.74M-597.706 2323.74L-597.709 2323.74M-597.709 2323.74L-597.713 2323.74M-597.709 2323.74L-597.713 2323.74M-597.713 2323.74L-597.716 2323.74M-597.713 2323.74L-597.716 2323.74M-597.716 2323.74L-597.719 2323.74M-597.716 2323.74L-597.719 2323.74M-597.719 2323.74L-597.722 2323.74M-597.719 2323.74L-597.722 2323.74M-597.722 2323.74L-597.725 2323.74M-597.722 2323.74L-597.725 2323.74M-597.725 2323.74L-597.728 2323.74M-597.725 2323.74L-597.728 2323.74M-597.728 2323.74L-597.732 2323.74M-597.728 2323.74L-597.732 2323.74M-597.732 2323.74L-597.735 2323.74M-597.732 2323.74L-597.735 2323.74M-597.735 2323.74L-597.738 2323.74M-597.735 2323.74L-597.738 2323.74M-597.738 2323.74L-597.741 2323.74M-597.738 2323.74L-597.741 2323.74M-597.741 2323.74L-597.744 2323.74M-597.741 2323.74L-597.744 2323.74M-597.744 2323.74L-597.747 2323.74M-597.744 2323.74L-597.747 2323.74M-597.747 2323.74L-597.751 2323.74M-597.747 2323.74L-597.751 2323.74M-597.751 2323.74L-597.754 2323.74M-597.751 2323.74L-597.754 2323.74M-597.754 2323.74L-597.757 2323.74M-597.754 2323.74L-597.757 2323.74M-597.757 2323.74L-597.76 2323.74M-597.757 2323.74L-597.76 2323.74M-597.76 2323.74L-597.763 2323.74M-597.76 2323.74L-597.763 2323.74M-597.763 2323.74L-597.766 2323.74M-597.763 2323.74L-597.766 2323.74M-597.766 2323.74L-597.769 2323.74M-597.766 2323.74L-597.769 2323.74M-597.769 2323.74L-597.773 2323.74M-597.769 2323.74L-597.773 2323.74M-597.773 2323.74L-597.776 2323.74M-597.773 2323.74L-597.776 2323.74M-597.776 2323.74L-597.779 2323.74M-597.776 2323.74L-597.779 2323.74M-597.779 2323.74L-597.782 2323.74M-597.779 2323.74L-597.782 2323.74M-597.782 2323.74L-597.785 2323.74M-597.782 2323.74L-597.785 2323.74M-597.785 2323.74L-597.788 2323.74M-597.785 2323.74L-597.788 2323.74M-597.788 2323.74L-597.792 2323.74M-597.788 2323.74L-597.792 2323.74M-597.792 2323.74L-597.795 2323.74M-597.792 2323.74L-597.795 2323.74M-597.795 2323.74L-597.798 2323.74M-597.795 2323.74L-597.798 2323.74M-597.798 2323.74L-597.801 2323.74M-597.798 2323.74L-597.801 2323.74M-597.801 2323.74L-597.804 2323.74M-597.801 2323.74L-597.804 2323.74M-597.804 2323.74L-597.807 2323.74M-597.804 2323.74L-597.807 2323.74M-597.807 2323.74L-597.81 2323.74M-597.807 2323.74L-597.81 2323.74M-597.81 2323.74L-597.814 2323.74M-597.81 2323.74L-597.814 2323.74M-597.814 2323.74L-597.817 2323.74M-597.814 2323.74L-597.817 2323.74M-597.817 2323.74L-597.82 2323.74M-597.817 2323.74L-597.82 2323.74M-597.82 2323.74L-597.823 2323.74M-597.82 2323.74L-597.823 2323.74M-597.823 2323.74L-597.826 2323.74M-597.823 2323.74L-597.826 2323.74M-597.826 2323.74L-597.829 2323.74M-597.826 2323.74L-597.829 2323.74M-597.829 2323.74L-597.832 2323.73M-597.829 2323.74L-597.832 2323.73M-597.832 2323.73L-597.836 2323.73M-597.832 2323.73L-597.836 2323.73M-597.836 2323.73L-597.839 2323.73M-597.836 2323.73L-597.839 2323.73M-597.839 2323.73L-597.842 2323.73M-597.839 2323.73L-597.842 2323.73M-597.842 2323.73L-597.845 2323.73M-597.842 2323.73L-597.845 2323.73M-597.845 2323.73L-597.848 2323.73M-597.845 2323.73L-597.848 2323.73M-597.848 2323.73L-597.851 2323.73M-597.848 2323.73L-597.851 2323.73M-597.851 2323.73L-597.854 2323.73M-597.851 2323.73L-597.854 2323.73M-597.854 2323.73L-597.858 2323.73M-597.854 2323.73L-597.858 2323.73M-597.858 2323.73L-597.861 2323.73M-597.858 2323.73L-597.861 2323.73M-597.861 2323.73L-597.864 2323.73M-597.861 2323.73L-597.864 2323.73M-597.864 2323.73L-597.867 2323.73M-597.864 2323.73L-597.867 2323.73M-597.867 2323.73L-597.87 2323.73M-597.867 2323.73L-597.87 2323.73M-597.87 2323.73L-597.873 2323.73M-597.87 2323.73L-597.873 2323.73M-597.873 2323.73L-597.876 2323.73M-597.873 2323.73L-597.876 2323.73M-597.876 2323.73L-597.879 2323.73M-597.876 2323.73L-597.879 2323.73M-597.879 2323.73L-597.883 2323.73M-597.879 2323.73L-597.883 2323.73M-597.883 2323.73L-597.886 2323.73M-597.883 2323.73L-597.886 2323.73M-597.886 2323.73L-597.889 2323.73M-597.886 2323.73L-597.889 2323.73M-597.889 2323.73L-597.892 2323.73M-597.889 2323.73L-597.892 2323.73M-597.892 2323.73L-597.895 2323.73M-597.892 2323.73L-597.895 2323.73M-597.895 2323.73L-597.898 2323.73M-597.895 2323.73L-597.898 2323.73M-597.898 2323.73L-597.901 2323.73M-597.898 2323.73L-597.901 2323.73M-597.901 2323.73L-597.904 2323.73M-597.901 2323.73L-597.904 2323.73M-597.904 2323.73L-597.908 2323.73M-597.904 2323.73L-597.908 2323.73M-597.908 2323.73L-597.911 2323.73M-597.908 2323.73L-597.911 2323.73M-597.911 2323.73L-597.914 2323.73M-597.911 2323.73L-597.914 2323.73M-597.914 2323.73L-597.917 2323.73M-597.914 2323.73L-597.917 2323.73M-597.917 2323.73L-597.92 2323.73M-597.917 2323.73L-597.92 2323.73M-597.92 2323.73L-597.923 2323.73M-597.92 2323.73L-597.923 2323.73M-597.923 2323.73L-597.926 2323.73M-597.923 2323.73L-597.926 2323.73M-597.926 2323.73L-597.929 2323.73M-597.926 2323.73L-597.929 2323.73M-597.929 2323.73L-597.933 2323.73M-597.929 2323.73L-597.933 2323.73M-597.933 2323.73L-597.936 2323.73M-597.933 2323.73L-597.936 2323.73M-597.936 2323.73L-597.939 2323.73M-597.936 2323.73L-597.939 2323.73M-597.939 2323.73L-597.942 2323.73M-597.939 2323.73L-597.942 2323.73M-597.942 2323.73L-597.945 2323.73M-597.942 2323.73L-597.945 2323.73M-597.945 2323.73L-597.948 2323.73M-597.945 2323.73L-597.948 2323.73M-597.948 2323.73L-597.951 2323.73M-597.948 2323.73L-597.951 2323.73M-597.951 2323.73L-597.954 2323.73M-597.951 2323.73L-597.954 2323.73M-597.954 2323.73L-597.958 2323.73M-597.954 2323.73L-597.958 2323.73M-597.958 2323.73L-597.961 2323.73M-597.958 2323.73L-597.961 2323.73M-597.961 2323.73L-597.964 2323.73M-597.961 2323.73L-597.964 2323.73M-597.964 2323.73L-597.967 2323.73M-597.964 2323.73L-597.967 2323.73M-597.967 2323.73L-597.97 2323.73M-597.967 2323.73L-597.97 2323.73M-597.97 2323.73L-597.973 2323.73M-597.97 2323.73L-597.973 2323.73M-597.973 2323.73L-597.976 2323.73M-597.973 2323.73L-597.976 2323.73M-597.976 2323.73L-597.979 2323.73M-597.976 2323.73L-597.979 2323.73M-597.979 2323.73L-597.982 2323.73M-597.979 2323.73L-597.982 2323.73M-597.982 2323.73L-597.986 2323.73M-597.982 2323.73L-597.986 2323.73M-597.986 2323.73L-597.989 2323.72M-597.986 2323.73L-597.989 2323.72M-597.989 2323.72L-597.992 2323.72M-597.989 2323.72L-597.992 2323.72M-597.992 2323.72L-597.995 2323.72M-597.992 2323.72L-597.995 2323.72M-597.995 2323.72L-597.998 2323.72M-597.995 2323.72L-597.998 2323.72M-597.998 2323.72L-598.001 2323.72M-597.998 2323.72L-598.001 2323.72M-598.001 2323.72L-598.004 2323.72M-598.001 2323.72L-598.004 2323.72M-598.004 2323.72L-598.007 2323.72M-598.004 2323.72L-598.007 2323.72M-598.007 2323.72L-598.01 2323.72M-598.007 2323.72L-598.01 2323.72M-598.01 2323.72L-598.014 2323.72M-598.01 2323.72L-598.014 2323.72M-598.014 2323.72L-598.017 2323.72M-598.014 2323.72L-598.017 2323.72M-598.017 2323.72L-598.02 2323.72M-598.017 2323.72L-598.02 2323.72M-598.02 2323.72L-598.023 2323.72M-598.02 2323.72L-598.023 2323.72M-598.023 2323.72L-598.026 2323.72M-598.023 2323.72L-598.026 2323.72M-598.026 2323.72L-598.029 2323.72M-598.026 2323.72L-598.029 2323.72M-598.029 2323.72L-598.032 2323.72M-598.029 2323.72L-598.032 2323.72M-598.032 2323.72L-598.035 2323.72M-598.032 2323.72L-598.035 2323.72M-598.035 2323.72L-598.038 2323.72M-598.035 2323.72L-598.038 2323.72M-598.038 2323.72L-598.042 2323.72M-598.038 2323.72L-598.042 2323.72M-598.042 2323.72L-598.045 2323.72M-598.042 2323.72L-598.045 2323.72M-598.045 2323.72L-598.048 2323.72M-598.045 2323.72L-598.048 2323.72M-598.048 2323.72L-598.051 2323.72M-598.048 2323.72L-598.051 2323.72M-598.051 2323.72L-598.054 2323.72M-598.051 2323.72L-598.054 2323.72M-598.054 2323.72L-598.057 2323.72M-598.054 2323.72L-598.057 2323.72M-598.057 2323.72L-598.06 2323.72M-598.057 2323.72L-598.06 2323.72M-598.06 2323.72L-598.063 2323.72M-598.06 2323.72L-598.063 2323.72M-598.063 2323.72L-598.066 2323.72M-598.063 2323.72L-598.066 2323.72M-598.066 2323.72L-598.069 2323.72M-598.066 2323.72L-598.069 2323.72M-598.069 2323.72L-598.073 2323.72M-598.069 2323.72L-598.073 2323.72M-598.073 2323.72L-598.076 2323.72M-598.073 2323.72L-598.076 2323.72M-598.076 2323.72L-598.079 2323.72M-598.076 2323.72L-598.079 2323.72M-598.079 2323.72L-598.082 2323.72M-598.079 2323.72L-598.082 2323.72M-598.082 2323.72L-598.085 2323.72M-598.082 2323.72L-598.085 2323.72M-598.085 2323.72L-598.088 2323.72M-598.085 2323.72L-598.088 2323.72M-598.088 2323.72L-598.091 2323.72M-598.088 2323.72L-598.091 2323.72M-598.091 2323.72L-598.094 2323.72M-598.091 2323.72L-598.094 2323.72M-598.094 2323.72L-598.097 2323.72M-598.094 2323.72L-598.097 2323.72M-598.097 2323.72L-598.1 2323.72M-598.097 2323.72L-598.1 2323.72M-598.1 2323.72L-598.104 2323.72M-598.1 2323.72L-598.104 2323.72M-598.104 2323.72L-598.107 2323.72M-598.104 2323.72L-598.107 2323.72M-598.107 2323.72L-598.11 2323.72M-598.107 2323.72L-598.11 2323.72M-598.11 2323.72L-598.113 2323.72M-598.11 2323.72L-598.113 2323.72M-598.113 2323.72L-598.116 2323.72M-598.113 2323.72L-598.116 2323.72M-598.116 2323.72L-598.119 2323.72M-598.116 2323.72L-598.119 2323.72M-598.119 2323.72L-598.122 2323.72M-598.119 2323.72L-598.122 2323.72M-598.122 2323.72L-598.125 2323.72M-598.122 2323.72L-598.125 2323.72M-598.125 2323.72L-598.128 2323.72M-598.125 2323.72L-598.128 2323.72M-598.128 2323.72L-598.131 2323.72M-598.128 2323.72L-598.131 2323.72M-598.131 2323.72L-598.135 2323.72M-598.131 2323.72L-598.135 2323.72M-598.135 2323.72L-598.138 2323.72M-598.135 2323.72L-598.138 2323.72M-598.138 2323.72L-598.141 2323.71M-598.138 2323.72L-598.141 2323.71M-598.141 2323.71L-598.144 2323.71M-598.141 2323.71L-598.144 2323.71M-598.144 2323.71L-598.147 2323.71M-598.144 2323.71L-598.147 2323.71M-598.147 2323.71L-598.15 2323.71M-598.147 2323.71L-598.15 2323.71M-598.15 2323.71L-598.153 2323.71M-598.15 2323.71L-598.153 2323.71M-598.153 2323.71L-598.156 2323.71M-598.153 2323.71L-598.156 2323.71M-598.156 2323.71L-598.159 2323.71M-598.156 2323.71L-598.159 2323.71M-598.159 2323.71L-598.162 2323.71M-598.159 2323.71L-598.162 2323.71M-598.162 2323.71L-598.166 2323.71M-598.162 2323.71L-598.166 2323.71M-598.166 2323.71L-598.169 2323.71M-598.166 2323.71L-598.169 2323.71M-598.169 2323.71L-598.172 2323.71M-598.169 2323.71L-598.172 2323.71M-598.172 2323.71L-598.175 2323.71M-598.172 2323.71L-598.175 2323.71M-598.175 2323.71L-598.178 2323.71M-598.175 2323.71L-598.178 2323.71M-598.178 2323.71L-598.181 2323.71M-598.178 2323.71L-598.181 2323.71M-598.181 2323.71L-598.184 2323.71M-598.181 2323.71L-598.184 2323.71M-598.184 2323.71L-598.187 2323.71M-598.184 2323.71L-598.187 2323.71M-598.187 2323.71L-598.19 2323.71M-598.187 2323.71L-598.19 2323.71M-598.19 2323.71L-598.193 2323.71M-598.19 2323.71L-598.193 2323.71M-598.193 2323.71L-598.196 2323.71M-598.193 2323.71L-598.196 2323.71M-598.196 2323.71L-598.2 2323.71M-598.196 2323.71L-598.2 2323.71M-598.2 2323.71L-598.203 2323.71M-598.2 2323.71L-598.203 2323.71M-598.203 2323.71L-598.206 2323.71M-598.203 2323.71L-598.206 2323.71M-598.206 2323.71L-598.209 2323.71M-598.206 2323.71L-598.209 2323.71M-598.209 2323.71L-598.212 2323.71M-598.209 2323.71L-598.212 2323.71M-598.212 2323.71L-598.215 2323.71M-598.212 2323.71L-598.215 2323.71M-598.215 2323.71L-598.218 2323.71M-598.215 2323.71L-598.218 2323.71M-598.218 2323.71L-598.221 2323.71M-598.218 2323.71L-598.221 2323.71M-598.221 2323.71L-598.224 2323.71M-598.221 2323.71L-598.224 2323.71M-598.224 2323.71L-598.227 2323.71M-598.224 2323.71L-598.227 2323.71M-598.227 2323.71L-598.23 2323.71M-598.227 2323.71L-598.23 2323.71M-598.23 2323.71L-598.234 2323.71M-598.23 2323.71L-598.234 2323.71M-598.234 2323.71L-598.237 2323.71M-598.234 2323.71L-598.237 2323.71M-598.237 2323.71L-598.24 2323.71M-598.237 2323.71L-598.24 2323.71M-598.24 2323.71L-598.243 2323.71M-598.24 2323.71L-598.243 2323.71M-598.243 2323.71L-598.246 2323.71M-598.243 2323.71L-598.246 2323.71M-598.246 2323.71L-598.249 2323.71M-598.246 2323.71L-598.249 2323.71" stroke="#0481FE" stroke-width="4"/>
<path d="M-567.178 1932.85L-566.971 1932.92C-566.881 1932.95 -566.809 1932.96 -566.737 1932.97C-566.654 1932.98 -566.569 1932.99 -566.403 1933L-566.4 1933L-566.398 1933L-566.396 1933L-566.393 1933L-566.391 1933L-566.388 1933L-566.386 1933L-566.383 1933L-566.381 1933L-566.378 1933L-566.376 1933L-566.373 1933L-566.371 1933L-566.369 1933L-566.366 1933L-566.364 1933L-566.361 1933L-566.359 1933L-566.356 1933L-566.354 1933L-566.352 1933L-566.349 1933L-566.347 1933L-566.344 1933L-566.342 1933L-566.34 1933L-566.337 1933L-566.335 1933L-566.332 1933L-566.33 1933L-566.327 1933.01L-566.325 1933.01L-566.323 1933.01L-566.32 1933.01L-566.318 1933.01L-566.316 1933.01L-566.313 1933.01L-566.311 1933.01L-566.308 1933.01L-566.306 1933.01L-566.304 1933.01L-566.301 1933.01L-566.299 1933.01L-566.296 1933.01L-566.294 1933.01L-566.292 1933.01L-566.289 1933.01L-566.287 1933.01L-566.285 1933.01L-566.282 1933.01L-566.28 1933.01L-566.278 1933.01L-566.275 1933.01L-566.273 1933.01L-566.27 1933.01L-566.268 1933.01L-566.266 1933.01L-566.263 1933.01L-566.261 1933.01L-566.259 1933.01L-566.256 1933.01L-566.254 1933.01L-566.252 1933.01L-566.249 1933.01L-566.247 1933.01L-566.245 1933.01L-566.242 1933.01L-566.24 1933.01L-566.238 1933.01L-566.236 1933.01L-566.233 1933.01L-566.231 1933.01L-566.229 1933.01L-566.226 1933.01L-566.224 1933.01L-566.222 1933.01L-566.219 1933.01L-566.217 1933.01L-566.215 1933.01L-566.212 1933.01L-566.21 1933.01L-566.208 1933.01L-566.206 1933.01L-566.203 1933.01L-566.201 1933.01L-566.199 1933.01L-566.196 1933.01L-566.194 1933.01L-566.192 1933.01L-566.19 1933.01L-566.187 1933.01L-566.185 1933.01L-566.183 1933.01L-566.181 1933.01L-566.178 1933.01L-566.176 1933.01L-566.174 1933.02L-566.171 1933.02L-566.169 1933.02L-566.167 1933.02L-566.165 1933.02L-566.162 1933.02L-566.16 1933.02L-566.158 1933.02L-566.156 1933.02L-566.153 1933.02L-566.151 1933.02L-566.149 1933.02L-566.147 1933.02L-566.145 1933.02L-566.142 1933.02L-566.14 1933.02L-566.138 1933.02L-566.136 1933.02L-566.133 1933.02L-566.131 1933.02L-566.129 1933.02L-566.127 1933.02L-566.125 1933.02L-566.122 1933.02L-566.12 1933.02L-566.118 1933.02L-566.116 1933.02L-566.113 1933.02L-566.111 1933.02L-566.109 1933.02L-566.107 1933.02L-566.105 1933.02L-566.102 1933.02L-566.1 1933.02L-566.098 1933.02L-566.096 1933.02L-566.094 1933.02L-566.091 1933.02L-566.089 1933.02L-566.087 1933.02L-566.085 1933.02L-566.083 1933.02L-566.08 1933.02L-566.078 1933.02L-566.076 1933.02L-566.074 1933.02L-566.072 1933.02L-566.07 1933.02L-566.067 1933.02L-566.065 1933.02L-566.063 1933.02L-566.061 1933.02L-566.059 1933.02L-566.057 1933.02L-566.054 1933.02L-566.052 1933.02L-566.05 1933.02L-566.048 1933.02L-566.046 1933.02L-566.044 1933.02L-566.041 1933.02L-566.039 1933.02L-566.037 1933.02L-566.035 1933.02L-566.033 1933.02L-566.031 1933.02L-566.029 1933.02L-566.026 1933.02L-566.024 1933.02L-566.022 1933.02L-566.02 1933.03L-566.018 1933.03L-566.016 1933.03L-566.014 1933.03L-566.012 1933.03L-566.009 1933.03L-566.007 1933.03L-566.005 1933.03L-566.003 1933.03L-566.001 1933.03L-565.999 1933.03L-565.997 1933.03L-565.995 1933.03L-565.992 1933.03L-565.99 1933.03L-565.988 1933.03L-565.986 1933.03L-565.984 1933.03L-565.982 1933.03L-565.98 1933.03L-565.978 1933.03L-565.976 1933.03L-565.973 1933.03L-565.971 1933.03L-565.969 1933.03L-565.967 1933.03L-565.965 1933.03L-565.963 1933.03L-565.961 1933.03L-565.959 1933.03L-565.957 1933.03L-565.955 1933.03L-565.953 1933.03L-565.95 1933.03L-565.948 1933.03L-565.946 1933.03L-565.944 1933.03L-565.942 1933.03L-565.94 1933.03L-565.938 1933.03L-565.936 1933.03L-565.934 1933.03L-565.932 1933.03L-565.93 1933.03L-565.928 1933.03L-565.926 1933.03L-565.923 1933.03L-565.921 1933.03L-565.919 1933.03L-565.917 1933.03L-565.915 1933.03L-565.913 1933.03L-565.911 1933.03L-565.909 1933.03L-565.907 1933.03L-565.905 1933.03L-565.903 1933.03L-565.901 1933.03L-565.899 1933.03L-565.897 1933.03L-565.895 1933.03L-565.893 1933.03L-565.891 1933.03L-565.889 1933.03L-565.886 1933.03L-565.884 1933.03L-565.882 1933.03L-565.88 1933.03L-565.878 1933.03L-565.876 1933.03L-565.874 1933.03L-565.872 1933.03L-565.87 1933.03L-565.868 1933.03L-565.866 1933.04L-565.864 1933.04L-565.862 1933.04L-565.86 1933.04L-565.858 1933.04L-565.856 1933.04L-565.854 1933.04L-565.852 1933.04L-565.85 1933.04L-565.848 1933.04L-565.846 1933.04L-565.844 1933.04L-565.842 1933.04L-565.84 1933.04L-565.838 1933.04L-565.836 1933.04L-565.834 1933.04L-565.832 1933.04L-565.83 1933.04L-565.828 1933.04L-565.826 1933.04L-565.824 1933.04L-565.822 1933.04L-565.82 1933.04L-565.818 1933.04L-565.816 1933.04L-565.814 1933.04L-565.812 1933.04L-565.81 1933.04L-565.808 1933.04L-565.806 1933.04L-565.804 1933.04L-565.802 1933.04L-565.8 1933.04L-565.798 1933.04L-565.796 1933.04L-565.794 1933.04L-565.792 1933.04L-565.79 1933.04L-565.788 1933.04L-565.786 1933.04L-565.784 1933.04L-565.782 1933.04L-565.78 1933.04L-565.778 1933.04L-565.776 1933.04L-565.774 1933.04L-565.772 1933.04L-565.77 1933.04L-565.768 1933.04L-565.766 1933.04L-565.764 1933.04L-565.762 1933.04L-565.76 1933.04L-565.758 1933.04L-565.756 1933.04L-565.754 1933.04L-565.752 1933.04L-565.751 1933.04L-565.749 1933.04L-565.747 1933.04L-565.745 1933.04L-565.743 1933.04L-565.741 1933.04L-565.739 1933.04L-565.737 1933.04L-565.735 1933.04L-565.733 1933.04L-565.731 1933.04L-565.729 1933.04L-565.727 1933.04L-565.725 1933.04L-565.723 1933.04L-565.721 1933.04L-565.719 1933.04L-565.717 1933.04L-565.715 1933.04L-565.713 1933.04L-565.711 1933.05L-565.71 1933.05L-565.708 1933.05L-565.706 1933.05L-565.704 1933.05L-565.702 1933.05L-565.7 1933.05L-565.698 1933.05L-565.696 1933.05L-565.694 1933.05L-565.692 1933.05L-565.69 1933.05L-565.688 1933.05L-565.686 1933.05L-565.684 1933.05L-565.682 1933.05L-565.68 1933.05L-565.679 1933.05L-565.677 1933.05L-565.675 1933.05L-565.673 1933.05L-565.671 1933.05L-565.669 1933.05L-565.667 1933.05L-565.665 1933.05L-565.663 1933.05L-565.661 1933.05L-565.659 1933.05L-565.657 1933.05L-565.656 1933.05L-565.654 1933.05L-565.652 1933.05L-565.65 1933.05L-565.648 1933.05L-565.646 1933.05L-565.644 1933.05L-565.642 1933.05L-565.64 1933.05L-565.638 1933.05L-565.636 1933.05L-565.634 1933.05L-565.633 1933.05L-565.631 1933.05L-565.629 1933.05L-565.627 1933.05L-565.625 1933.05L-565.623 1933.05L-565.621 1933.05L-565.619 1933.05L-565.617 1933.05L-565.615 1933.05L-565.613 1933.05L-565.612 1933.05L-565.61 1933.05L-565.608 1933.05L-565.606 1933.05L-565.604 1933.05L-565.602 1933.05L-565.6 1933.05L-565.598 1933.05L-565.596 1933.05L-565.594 1933.05L-565.593 1933.05L-565.591 1933.05L-565.589 1933.05L-565.587 1933.05L-565.585 1933.05L-565.583 1933.05L-565.581 1933.05L-565.579 1933.05L-565.578 1933.05L-565.576 1933.05L-565.574 1933.05L-565.572 1933.05L-565.57 1933.05L-565.568 1933.05L-565.566 1933.05L-565.564 1933.05L-565.562 1933.05L-565.561 1933.05L-565.559 1933.06L-565.557 1933.06L-565.555 1933.06L-565.553 1933.06L-565.551 1933.06L-565.549 1933.06L-565.547 1933.06L-565.545 1933.06L-565.544 1933.06L-565.542 1933.06L-565.54 1933.06L-565.538 1933.06L-565.536 1933.06L-565.534 1933.06L-565.532 1933.06L-565.53 1933.06L-565.529 1933.06L-565.527 1933.06L-565.525 1933.06L-565.523 1933.06L-565.521 1933.06L-565.519 1933.06L-565.517 1933.06L-565.515 1933.06L-565.513 1933.06L-565.512 1933.06L-565.51 1933.06L-565.508 1933.06L-565.506 1933.06L-565.504 1933.06L-565.502 1933.06L-565.5 1933.06L-565.499 1933.06L-565.497 1933.06L-565.495 1933.06L-565.493 1933.06L-565.491 1933.06L-565.489 1933.06L-565.487 1933.06L-565.485 1933.06L-565.484 1933.06L-565.482 1933.06L-565.48 1933.06L-565.478 1933.06L-565.476 1933.06L-565.474 1933.06L-565.472 1933.06L-565.47 1933.06L-565.469 1933.06L-565.467 1933.06L-565.465 1933.06L-565.463 1933.06L-565.461 1933.06L-565.459 1933.06L-565.457 1933.06L-565.456 1933.06L-565.454 1933.06L-565.452 1933.06L-565.45 1933.06L-565.448 1933.06L-565.446 1933.06L-565.444 1933.06L-565.443 1933.06L-565.441 1933.06L-565.439 1933.06L-565.437 1933.06L-565.435 1933.06L-565.433 1933.06L-565.431 1933.06L-565.43 1933.06L-565.428 1933.06L-565.426 1933.06L-565.424 1933.06L-565.422 1933.06L-565.42 1933.06L-565.418 1933.06L-565.417 1933.06L-565.415 1933.06L-565.413 1933.06L-565.411 1933.06L-565.409 1933.06L-565.407 1933.06L-565.405 1933.07L-565.404 1933.07L-565.402 1933.07L-565.4 1933.07L-565.398 1933.07L-565.396 1933.07L-565.394 1933.07L-565.392 1933.07L-565.391 1933.07L-565.389 1933.07L-565.387 1933.07L-565.385 1933.07L-565.383 1933.07L-565.381 1933.07L-565.379 1933.07L-565.378 1933.07L-565.376 1933.07L-565.374 1933.07L-565.372 1933.07L-565.37 1933.07L-565.368 1933.07L-565.366 1933.07L-565.365 1933.07L-565.363 1933.07L-565.361 1933.07L-565.359 1933.07L-565.357 1933.07L-565.355 1933.07L-565.353 1933.07L-565.352 1933.07L-565.35 1933.07L-565.348 1933.07C-540.154 1934.71 -499.685 1923.91 -440.134 1895.69L-440.133 1895.69C-391.791 1872.82 -328.122 1837.8 -246.407 1788.15L-245.368 1789.86L-246.406 1788.15C-168.448 1740.79 -111.548 1702.27 -71.57 1671.24L-71.5686 1671.24C-21.5199 1632.47 4.79966 1601.96 14.3269 1578.21C23.6122 1554.98 25.7996 1513.18 17.4416 1447.93M-567.178 1932.85L19.4255 1447.68M-567.178 1932.85L-567.394 1932.83C-592.533 1930.47 -630.648 1913.2 -684.763 1875.68L-684.764 1875.68C-728.79 1845.21 -785.893 1800.43 -858.521 1738.09L-858.522 1738.09C-927.739 1678.72 -977.687 1631.55 -1012.07 1594.42L-1012.07 1594.42C-1055.09 1548.01 -1076.14 1513.58 -1081.67 1488.65L-1081.67 1488.65C-1087.13 1464.14 -1082.53 1422.61 -1063.6 1359.56L-1063.6 1359.55C-1048.33 1308.51 -1023.26 1240.39 -986.351 1151.7C-951.35 1067.87 -921.915 1005.87 -897.133 961.381C-866.115 906.025 -839.936 875.305 -818.162 862.417C-796.606 849.724 -755.621 841.288 -689.539 839.761M-567.178 1932.85L-266.95 872.354C-201.943 884.53 -162.449 899.602 -142.743 915.93M17.4416 1447.93L19.4255 1447.68M17.4416 1447.93C17.4416 1447.93 17.442 1447.93 17.442 1447.93L19.4255 1447.68M17.4416 1447.93C10.617 1395.14 -3.0478 1323.75 -25.1407 1230.27L-25.1411 1230.27C-45.9731 1141.86 -64.9642 1075.86 -82.2575 1028L-82.2582 1028C-103.775 968.279 -124.665 933.759 -144.024 917.466M19.4255 1447.68C12.5885 1394.78 -1.09343 1323.33 -23.1944 1229.81C-44.0354 1141.36 -63.0469 1075.28 -80.3766 1027.32C-101.917 967.537 -122.953 932.581 -142.743 915.93M-144.024 917.466C-144.023 917.467 -144.021 917.468 -144.02 917.47L-142.743 915.93M-144.024 917.466C-144.027 917.464 -144.029 917.462 -144.031 917.46L-142.743 915.93M-144.024 917.466C-163.306 901.492 -202.349 886.489 -267.318 874.32L-267.319 874.32C-396.669 850.029 -557.993 836.782 -689.539 839.761M-689.539 839.761L-689.584 837.762L-689.539 839.761ZM-772.481 939.952L-772.491 939.958L-816.882 1006.22L-818.628 1005.24C-818.628 1005.24 -818.628 1005.24 -818.629 1005.24C-841.461 1046.03 -869.273 1105.01 -903.286 1186.32L-903.287 1186.32C-938.955 1271.87 -962.82 1337.04 -977.315 1385.25L-977.315 1385.25C-984.362 1408.77 -989.067 1427.1 -991.734 1440.83C-994.379 1454.46 -995.085 1463.85 -993.882 1469.3C-992.721 1474.66 -988.372 1482.38 -980.664 1492.75C-972.894 1503.2 -961.521 1516.58 -946.001 1533.29C-913.948 1567.87 -866.563 1612.54 -800.002 1669.66C-729.33 1730.33 -674.737 1773.23 -633.592 1801.71C-613.444 1815.7 -597.511 1825.83 -585.324 1832.6C-573.233 1839.31 -564.564 1842.86 -559.047 1843.4L-559.027 1843.4L-559.006 1843.4C-556.178 1843.61 -552.492 1843.17 -547.964 1842.12C-543.409 1841.06 -537.88 1839.37 -531.32 1837.01C-518.2 1832.29 -500.832 1824.85 -478.669 1814.36C-433.431 1792.99 -372.595 1759.5 -293.03 1711.15L-293.029 1711.15C-218.091 1665.57 -164.048 1629.09 -126.917 1600.29C-108.868 1586.29 -95.4603 1574.92 -86.0873 1565.87C-76.7914 1556.88 -71.2422 1549.97 -69.2272 1544.88C-67.0998 1539.65 -66.2551 1530.26 -66.6494 1516.4C-67.0472 1502.43 -68.7233 1483.6 -71.8609 1459.26L-71.8614 1459.26C-78.382 1409.36 -91.3435 1341.17 -112.716 1250.95C-132.998 1165.15 -150.884 1102.56 -166.71 1058.52L-166.711 1058.52C-174.445 1037.11 -181.134 1020.92 -186.876 1009.23C-192.576 997.638 -197.46 990.233 -201.674 986.668L-201.681 986.661L-201.689 986.655C-206.062 983.029 -214.755 979.324 -228.038 975.416C-241.423 971.479 -259.764 967.256 -283.711 962.728L-283.713 962.728C-406.111 939.703 -563.188 926.939 -687.691 929.765C-712.074 930.301 -730.872 931.469 -744.718 933.169C-758.456 934.855 -767.621 937.094 -772.481 939.952Z" stroke="#0481FE" stroke-width="4"/>
</svg>
