<svg width="620" height="315" viewBox="0 0 620 315" fill="none" xmlns="http://www.w3.org/2000/svg">
<path fill-rule="evenodd" clip-rule="evenodd" d="M193.997 406.948C90.6162 590.343 2.96334 781.136 10.4438 839.317C18.0495 898.601 146.379 1064.43 287.714 1218.84C428.991 1373.25 582.757 1515.84 641.177 1528.63C698.453 1541.21 896.225 1470.87 1088.08 1384.14C1281.39 1296.78 1468.07 1193.04 1498.6 1140.97C1528.28 1090.34 1522.5 880.541 1499.3 671.245C1475.93 460.555 1435 251.093 1394.96 205.785C1353.61 161.921 1148.43 102.502 940.508 60.5182C734.101 18.8931 525.589 -5.48506 472.582 19.5941C418.065 45.374 298.157 222.11 193.997 406.948ZM0.811564 840.527C-6.85451 780.19 81.3612 587.096 185.572 402.194C290.516 215.973 412.048 37.4639 468.468 10.8208C523.436 -15.1281 734.343 9.09609 942.437 51.0597C1151.92 93.3366 1359.23 153.81 1402.04 199.157L1402.11 199.266C1443.53 245.888 1485.33 457.783 1508.89 670.216C1532.29 881.197 1537.69 1093.39 1506.98 1145.84C1475.42 1199.68 1286.84 1304.87 1092.07 1392.93C898.655 1480.37 698.463 1551.15 639.073 1538.11C578.657 1524.84 422.925 1381 280.567 1225.36C138.157 1069.78 8.70599 901.838 0.811564 840.527ZM107.827 827.744C101.496 778.143 178.316 611.707 268.91 451.008C360.186 289.053 464.653 134.431 511.241 112.434C556.488 91.0598 738.497 112.676 919.307 149.141C1101.51 185.919 1280.85 237.499 1316.24 275.036C1350.39 314.125 1385.78 496.91 1406.21 681.272C1426.53 864.588 1431.95 1047.83 1406.6 1091.02C1380.51 1135.52 1217.26 1225.9 1047.85 1302.43C879.852 1378.39 707.24 1440.16 658.35 1429.4C608.439 1418.47 474.293 1293.73 350.541 1158.39C226.736 1023.13 114.341 878.442 107.827 827.744ZM247.792 439.16C155.14 603.507 76.8155 775.88 83.8108 830.82C90.963 886.625 206.114 1036.41 332.676 1174.72C459.181 1313.04 598.228 1441.05 653.204 1453.06C707.225 1464.94 885.847 1402.19 1057.82 1324.43C1230.92 1246.18 1398.82 1152.16 1427.46 1103.25C1455.53 1055.45 1451.02 866.224 1430.23 678.725C1409.29 489.889 1371.7 301.174 1334.05 258.773L1333.85 258.503C1294.92 217.248 1110.27 163.033 924.097 125.469C739.126 88.122 551.041 66.9007 500.937 90.5913C449.659 114.827 341.082 273.682 247.792 439.16ZM342.984 498.046C266.257 634.162 201.106 774.792 206.378 816.097C211.821 858.383 307.014 980.594 411.882 1095.23C516.751 1209.88 630.072 1315.49 671.655 1324.61C712.398 1333.58 858.231 1281.15 1000.6 1216.86C1144.08 1151.98 1282.22 1075.75 1304.02 1038.62C1325.07 1002.63 1320.27 847.741 1303.07 692.438C1285.79 536.379 1256.08 381.848 1227.65 349.113C1198.15 317.795 1046.45 274.38 892.016 243.221C738.91 212.325 585.031 193.816 547.384 211.621C508.504 229.978 420.354 360.857 342.984 498.046ZM177.604 819.772C171.491 772.089 238.428 624.371 317.657 483.851C397.426 342.388 490.531 206.416 534.997 185.424C578.45 164.842 739.631 182.876 897.796 214.788C1056.99 246.936 1215.04 293.456 1248.76 329.24L1249.04 329.562C1281.69 366.349 1314.02 527.94 1331.91 689.344C1349.69 849.702 1353.35 1011.78 1329.04 1053.26C1304.24 1095.62 1160.5 1176.31 1012.48 1243.23C865.47 1309.69 712.413 1363.3 665.461 1353.03C617.837 1342.54 498.663 1233.05 390.448 1114.85C282.284 996.582 183.797 868.153 177.604 819.772ZM337.914 800.534C334.133 770.83 384.661 663.168 443.996 557.921C503.813 451.736 571.127 350.939 599.221 337.631C626.315 324.848 744.28 339.602 862.692 363.486C982.189 387.601 1098.85 420.452 1120.19 443.103C1140.74 467.551 1162.86 585.808 1176.21 706.118C1189.53 826.196 1193.77 945.009 1178.64 970.914C1162.8 997.839 1056.45 1055.92 945.435 1106.12C835.43 1155.85 723.75 1196.52 694.418 1190.08C664.245 1183.5 577.668 1101.98 496.52 1013.31C415.371 924.638 341.851 831.102 337.914 800.534ZM401.76 534.226C338.315 646.825 284.766 766.247 289.94 806.68C295.211 847.455 374.199 951.318 460.792 1045.96C547.456 1140.71 643.934 1228.59 684.069 1237.39C723.727 1246.14 847.413 1203.39 965.308 1150.06C1083.82 1096.49 1199.46 1030.99 1220.36 995.313C1240.93 960.259 1238.51 829.411 1224.3 700.959C1209.99 571.694 1183.34 441.533 1155.81 410.521L1155.41 410.037C1126.97 379.892 999.716 341.827 872.265 316.084C745.544 290.552 615.421 276.529 578.612 293.945C541.133 311.673 465.604 420.993 401.76 534.226ZM504.351 780.836C502.346 765.232 534.516 698.612 572.099 631.966C610.118 564.507 651.434 501.204 666.516 494.08C680.759 487.344 754.046 497.337 829.035 512.491C904.865 527.786 977.837 547.466 989.346 559.697C1000.33 574.047 1013.16 647.217 1021.55 722.774C1030 798.853 1033.44 872.793 1025.45 886.411C1016.92 900.973 950.212 936.493 879.849 968.367C810.202 999.805 741.007 1025.9 725.436 1022.48C709.265 1018.96 655.827 967.581 604.367 911.328C552.849 855.081 506.448 797.253 504.351 780.836ZM513.006 598.707C469.596 675.724 433.233 758.827 437.177 789.454C441.063 820.087 495.168 892.402 554.351 957.078C613.535 1021.75 680.819 1082.1 710.998 1088.74C740.938 1095.35 826.994 1066.41 907.608 1029.96C988.557 993.351 1068.26 947.353 1083.95 920.621C1099.48 894.084 1098.61 803.373 1088.88 715.492C1079.11 627.32 1059.97 537.387 1039.26 514.076L1038.65 513.38C1017.3 490.671 929.434 463.676 842.459 446.114C755.789 428.635 665.495 419.688 637.628 432.912C609.469 446.169 556.621 521.431 513.006 598.707Z" fill="#00BEE6"/>
</svg>
