<?xml version="1.0" encoding="UTF-8" standalone="no"?>
<!-- Generator: Adobe Illustrator 24.3.0, SVG Export Plug-In . SVG Version: 6.00 Build 0)  -->

<svg
   version="1.1"
   id="Слой_1"
   x="0px"
   y="0px"
   viewBox="0 0 472.04276 240.5"
   xml:space="preserve"
   sodipodi:docname="chaika-logo.svg"
   width="472.04276"
   height="240.5"
   inkscape:version="1.1.2 (0a00cf5339, 2022-02-04)"
   xmlns:inkscape="http://www.inkscape.org/namespaces/inkscape"
   xmlns:sodipodi="http://sodipodi.sourceforge.net/DTD/sodipodi-0.dtd"
   xmlns:xlink="http://www.w3.org/1999/xlink"
   xmlns="http://www.w3.org/2000/svg"
   xmlns:svg="http://www.w3.org/2000/svg"><defs
   id="defs139" /><sodipodi:namedview
   id="namedview137"
   pagecolor="#ffffff"
   bordercolor="#666666"
   borderopacity="1.0"
   inkscape:pageshadow="2"
   inkscape:pageopacity="0.0"
   inkscape:pagecheckerboard="0"
   showgrid="false"
   fit-margin-top="0"
   fit-margin-left="0"
   fit-margin-right="0"
   fit-margin-bottom="0"
   inkscape:zoom="1.1893333"
   inkscape:cx="177.83072"
   inkscape:cy="115.61099"
   inkscape:window-width="2490"
   inkscape:window-height="1016"
   inkscape:window-x="0"
   inkscape:window-y="0"
   inkscape:window-maximized="1"
   inkscape:current-layer="Слой_1" />
<style
   type="text/css"
   id="style2">
	.st4{clip-path:url(#SVGID_8_);fill:none;stroke:#FFFFFF;stroke-width:2;stroke-miterlimit:10;}
	.st5{clip-path:url(#SVGID_10_);fill:none;stroke:#FFFFFF;stroke-width:2;stroke-miterlimit:10;}
	.st6{clip-path:url(#SVGID_12_);fill:none;stroke:#FFFFFF;stroke-width:2;stroke-miterlimit:10;}
	.st7{clip-path:url(#SVGID_14_);fill:none;stroke:#FFFFFF;stroke-width:2;stroke-miterlimit:10;}
	.st8{clip-path:url(#SVGID_16_);fill:none;stroke:#FFFFFF;stroke-width:2;stroke-miterlimit:10;}
	.st9{clip-path:url(#SVGID_18_);fill:none;stroke:#FFFFFF;stroke-width:2;stroke-miterlimit:10;}
	.st10{clip-path:url(#SVGID_20_);fill:none;stroke:#FFFFFF;stroke-width:2;stroke-miterlimit:10;}
	.st11{clip-path:url(#SVGID_22_);fill:none;stroke:#FFFFFF;stroke-width:2;stroke-miterlimit:10;}
	.st12{clip-path:url(#SVGID_24_);fill:none;stroke:#FFFFFF;stroke-width:2;stroke-miterlimit:10;}
	.st13{clip-path:url(#SVGID_26_);fill:none;stroke:#FFFFFF;stroke-width:2;stroke-miterlimit:10;}
</style>
<g
   id="g134"
   transform="translate(-384.2,-158.1)">
	<g
   id="g12">
		<defs
   id="defs5">
			<rect
   id="SVGID_1_"
   x="312"
   y="-39.700001"
   width="642.5"
   height="642.5" />
		</defs>
		<clipPath
   id="SVGID_2_">
			<use
   xlink:href="#SVGID_1_"
   style="overflow:visible"
   id="use7"
   x="0"
   y="0"
   width="100%"
   height="100%" />
		</clipPath>
		<g
   class="st0"
   clip-path="url(#SVGID_2_)"
   id="g10">
		</g>
	</g>
	<g
   id="g22">
		<defs
   id="defs15">
			<rect
   id="SVGID_3_"
   x="312"
   y="-39.700001"
   width="642.5"
   height="642.5" />
		</defs>
		<clipPath
   id="SVGID_4_">
			<use
   xlink:href="#SVGID_3_"
   style="overflow:visible"
   id="use17"
   x="0"
   y="0"
   width="100%"
   height="100%" />
		</clipPath>
		<g
   id="Слой_x0020_1"
   class="st1"
   clip-path="url(#SVGID_4_)">
			<path
   id="AFL2.cdr"
   class="st2"
   d="m 717.6,203.3 c 0,51.7 0,110.4 0,162.1 0,7.3 2.6,11.1 11.4,11.1 h 124 l -21.8,-43.4 h -70.3 v -173 H 597.5 c -6.2,0 -10.3,3 -10.3,10.2 V 280 l -55,-109.6 c -6.8,-13.6 -13.6,-13.5 -20.5,0.1 l -38.2,76.2 h 5.1 43.4 l 21.7,43.3 h -91.9 l -43.5,86.7 h 48.5 l 21.8,-43.4 h 41.4 45.5 l 21.8,43.4 h 43.4 V 376.6 290 h 64.5 l -21.7,-43.3 h -42.9 l 0.1,-43.3 z" />
		</g>
	</g>
	<g
   id="g32">
		<defs
   id="defs25">
			<rect
   id="SVGID_5_"
   x="312"
   y="-39.700001"
   width="642.5"
   height="642.5" />
		</defs>
		<clipPath
   id="SVGID_6_">
			<use
   xlink:href="#SVGID_5_"
   style="overflow:visible"
   id="use27"
   x="0"
   y="0"
   width="100%"
   height="100%" />
		</clipPath>
		<polygon
   class="st3"
   points="600.7,290.4 773.8,290.4 384.2,398.6 557.3,290.4 384.2,182.2 654,257.1 "
   clip-path="url(#SVGID_6_)"
   id="polygon30" />
	</g>
	<g
   id="g42">
		<defs
   id="defs35">
			<rect
   id="SVGID_7_"
   x="312"
   y="-39.700001"
   width="642.5"
   height="642.5" />
		</defs>
		<clipPath
   id="SVGID_8_">
			<use
   xlink:href="#SVGID_7_"
   style="overflow:visible"
   id="use37"
   x="0"
   y="0"
   width="100%"
   height="100%" />
		</clipPath>
		<line
   class="st4"
   x1="491.60001"
   y1="209.2"
   x2="473.20001"
   y2="245.3"
   clip-path="url(#SVGID_8_)"
   id="line40" />
	</g>
	<g
   id="g52">
		<defs
   id="defs45">
			<rect
   id="SVGID_9_"
   x="312"
   y="-39.700001"
   width="642.5"
   height="642.5" />
		</defs>
		<clipPath
   id="SVGID_10_">
			<use
   xlink:href="#SVGID_9_"
   style="overflow:visible"
   id="use47"
   x="0"
   y="0"
   width="100%"
   height="100%" />
		</clipPath>
		<line
   class="st5"
   x1="556.90002"
   y1="217.8"
   x2="587.09998"
   y2="277.10001"
   clip-path="url(#SVGID_10_)"
   id="line50" />
	</g>
	<g
   id="g62">
		<defs
   id="defs55">
			<rect
   id="SVGID_11_"
   x="312"
   y="-39.700001"
   width="642.5"
   height="642.5" />
		</defs>
		<clipPath
   id="SVGID_12_">
			<use
   xlink:href="#SVGID_11_"
   style="overflow:visible"
   id="use57"
   x="0"
   y="0"
   width="100%"
   height="100%" />
		</clipPath>
		<line
   class="st6"
   x1="586.09998"
   y1="229"
   x2="587.09998"
   y2="277.10001"
   clip-path="url(#SVGID_12_)"
   id="line60" />
	</g>
	<g
   id="g72">
		<defs
   id="defs65">
			<rect
   id="SVGID_13_"
   x="312"
   y="-39.700001"
   width="642.5"
   height="642.5" />
		</defs>
		<clipPath
   id="SVGID_14_">
			<use
   xlink:href="#SVGID_13_"
   style="overflow:visible"
   id="use67"
   x="0"
   y="0"
   width="100%"
   height="100%" />
		</clipPath>
		<line
   class="st7"
   x1="482.89999"
   y1="334.5"
   x2="564.70001"
   y2="334.5"
   clip-path="url(#SVGID_14_)"
   id="line70" />
	</g>
	<g
   id="g82">
		<defs
   id="defs75">
			<rect
   id="SVGID_15_"
   x="312"
   y="-39.700001"
   width="642.5"
   height="642.5" />
		</defs>
		<clipPath
   id="SVGID_16_">
			<use
   xlink:href="#SVGID_15_"
   style="overflow:visible"
   id="use77"
   x="0"
   y="0"
   width="100%"
   height="100%" />
		</clipPath>
		<line
   class="st8"
   x1="564.29999"
   y1="335"
   x2="573.5"
   y2="351.79999"
   clip-path="url(#SVGID_16_)"
   id="line80" />
	</g>
	<g
   id="g92">
		<defs
   id="defs85">
			<rect
   id="SVGID_17_"
   x="312"
   y="-39.700001"
   width="642.5"
   height="642.5" />
		</defs>
		<clipPath
   id="SVGID_18_">
			<use
   xlink:href="#SVGID_17_"
   style="overflow:visible"
   id="use87"
   x="0"
   y="0"
   width="100%"
   height="100%" />
		</clipPath>
		<line
   class="st9"
   x1="460.79999"
   y1="377"
   x2="480.10001"
   y2="332.5"
   clip-path="url(#SVGID_18_)"
   id="line90" />
	</g>
	<g
   id="g102">
		<defs
   id="defs95">
			<rect
   id="SVGID_19_"
   x="312"
   y="-39.700001"
   width="642.5"
   height="642.5" />
		</defs>
		<clipPath
   id="SVGID_20_">
			<use
   xlink:href="#SVGID_19_"
   style="overflow:visible"
   id="use97"
   x="0"
   y="0"
   width="100%"
   height="100%" />
		</clipPath>
		<line
   class="st10"
   x1="412.10001"
   y1="377.79999"
   x2="460.89999"
   y2="377.60001"
   clip-path="url(#SVGID_20_)"
   id="line100" />
	</g>
	<g
   id="g112">
		<defs
   id="defs105">
			<rect
   id="SVGID_21_"
   x="312"
   y="-39.700001"
   width="642.5"
   height="642.5" />
		</defs>
		<clipPath
   id="SVGID_22_">
			<use
   xlink:href="#SVGID_21_"
   style="overflow:visible"
   id="use107"
   x="0"
   y="0"
   width="100%"
   height="100%" />
		</clipPath>
		<line
   class="st11"
   x1="631.59998"
   y1="288.39999"
   x2="631.90002"
   y2="334.39999"
   clip-path="url(#SVGID_22_)"
   id="line110" />
	</g>
	<g
   id="g122">
		<defs
   id="defs115">
			<rect
   id="SVGID_23_"
   x="312"
   y="-39.700001"
   width="642.5"
   height="642.5" />
		</defs>
		<clipPath
   id="SVGID_24_">
			<use
   xlink:href="#SVGID_23_"
   style="overflow:visible"
   id="use117"
   x="0"
   y="0"
   width="100%"
   height="100%" />
		</clipPath>
		<line
   class="st12"
   x1="521.09998"
   y1="247.7"
   x2="476.20001"
   y2="247.7"
   clip-path="url(#SVGID_24_)"
   id="line120" />
	</g>
	<g
   id="g132">
		<defs
   id="defs125">
			<rect
   id="SVGID_25_"
   x="312"
   y="-39.700001"
   width="642.5"
   height="642.5" />
		</defs>
		<clipPath
   id="SVGID_26_">
			<use
   xlink:href="#SVGID_25_"
   style="overflow:visible"
   id="use127"
   x="0"
   y="0"
   width="100%"
   height="100%" />
		</clipPath>
		<line
   class="st13"
   x1="542.70001"
   y1="290"
   x2="520.09998"
   y2="247.7"
   clip-path="url(#SVGID_26_)"
   id="line130" />
	</g>
</g>
</svg>
