<svg width="1080" height="1280" viewBox="0 0 1080 1280" fill="none" xmlns="http://www.w3.org/2000/svg">
<path d="M1309.43 682.536C1119.85 596.487 1012.49 561.839 968.367 565.399C924.963 569.156 832.695 617.756 674.065 729.385C510.946 843.845 294.891 1018.39 13.6256 1268.18C-281.976 1530.92 -494.643 1737.1 -639.469 1895.54C-780.616 2049.66 -846.973 2141.18 -856.949 2184.05C-866.777 2225.56 -848.729 2328.43 -791.6 2514.48C-732.66 2706.09 -633.621 2965.56 -483.46 3308.81C-324.282 3672.64 -193.958 3938.84 -88.6834 4124.43C14.3664 4306.28 80.5705 4397.35 117.572 4419.91C155.281 4441.21 267.023 4454.59 475.938 4456C689.444 4457.31 985.342 4441.4 1380.79 4403.08C1753.36 4366.9 2028.34 4326.99 2224.41 4285.02C2414.86 4244.2 2513.33 4209.84 2544.88 4181.02C2577.28 4151.44 2624.88 4048.91 2690.78 3850.42C2758.46 3646.96 2834.76 3360.64 2920.07 2974.35C3001.19 2607.16 3048.22 2333.2 3068.71 2135.06C3088.7 1942.22 3086.34 1837.89 3068.31 1798.19C3050.15 1758 2967.45 1681.14 2799.89 1557.58C2372.59 1242.7 1792.57 902.227 1309.43 682.536ZM-85.1625 4765.25C-86.4143 4764.54 -87.8225 4763.74 -89.0743 4763.04C-183.31 4705.88 -298.921 4567.08 -437.654 4322.34C-550.53 4123.17 -687.312 3844.65 -851.179 3470.12C-1007.34 3113.37 -1111.73 2838.9 -1175.45 2632C-1254.89 2373.28 -1272.68 2200.17 -1247.15 2091.78C-1222.2 1985.13 -1126.12 1832.59 -936.236 1625.1C-782.474 1457.05 -559.802 1240.83 -252.993 968.116C36.9499 710.642 265.641 526.514 443.866 401.392C665.74 245.406 824.951 174.767 935.11 165.377C1044.04 156.328 1218.91 200.833 1475.89 317.736C1987.98 550.481 2584.57 900.729 3037.39 1234.36C3264.62 1401.74 3388.75 1532.76 3433.84 1632.34C3479.36 1732.98 3495.37 1906.32 3467.29 2176.33C3444.9 2392.8 3395.72 2682.26 3312.01 3060.99C3223.56 3461.6 3143.43 3761.65 3071.48 3977.78C2982.89 4244.56 2896.58 4402.83 2815.58 4476.78C2733.41 4551.73 2573.47 4620.72 2308.91 4677.25C2097.06 4722.69 1806.58 4765.2 1418.97 4802.79C1012.12 4842.3 702.357 4858.64 473.491 4857.11C192.017 4855.17 14.4873 4821.96 -81.3393 4767.61C-82.7475 4766.82 -83.9993 4766.11 -85.1625 4765.25Z" fill="#6321F6"/>
<path d="M1267.94 1327.03C1142.95 1270.24 1072.09 1247.34 1043.07 1249.74C1014.47 1252.15 953.525 1284.39 848.895 1357.79C741.335 1433.46 598.704 1548.56 413.161 1713.31C218.254 1886.59 77.8655 2022.56 -17.4722 2127.01C-110.661 2228.76 -154.434 2289.07 -161.094 2317.3C-167.557 2344.82 -155.701 2412.61 -117.896 2535.31C-79.0703 2661.69 -13.5435 2832.87 85.4004 3059.26C190.251 3299.31 276.24 3474.83 345.763 3597.29C413.646 3717.17 457.363 3777.16 481.799 3792C506.589 3806.21 580.503 3814.94 718.22 3815.96C859.079 3816.9 1054.12 3806.33 1314.84 3781.07C1560.76 3757.15 1742.19 3730.85 1871.39 3703.11C1997 3676.24 2062.04 3653.54 2082.88 3634.56C2104.23 3615.04 2135.66 3547.34 2179.06 3416.44C2223.68 3282.3 2274.04 3093.4 2330.24 2838.66C2383.86 2596.5 2414.9 2415.88 2428.37 2284.99C2441.56 2157.87 2439.98 2089.06 2428.1 2062.95C2416.09 2036.35 2361.61 1985.55 2251.14 1904.15C1969.21 1696.58 1586.52 1471.92 1267.94 1327.03ZM348.102 4019.88C347.163 4019.35 346.381 4018.91 345.599 4018.47C283.29 3980.79 207.053 3889.22 115.605 3727.75C40.9783 3596.42 -49.107 3412.81 -157.224 3165.75C-260.136 2930.31 -329.032 2749.38 -370.961 2612.79C-423.401 2442.19 -435.24 2327.96 -418.426 2256.55C-401.986 2186.16 -338.55 2085.57 -213.323 1948.67C-111.865 1837.76 35.1343 1695.21 237.454 1515.38C428.567 1345.52 579.482 1224.17 696.972 1141.52C843.408 1038.69 948.369 992.097 1021.03 985.878C1092.95 979.863 1208.23 1009.28 1377.75 1086.26C1715.51 1239.93 2108.92 1470.85 2407.67 1691.02C2557.55 1801.29 2639.36 1887.76 2669.2 1953.33C2699.3 2019.87 2709.85 2134.19 2691.26 2312.14C2676.54 2455.12 2644.02 2646.04 2588.8 2895.77C2530.51 3160.07 2477.61 3357.84 2430.22 3500.53C2371.66 3676.54 2314.8 3780.85 2261.38 3829.73C2207.21 3879.21 2101.67 3924.64 1927.25 3961.92C1787.56 3991.78 1595.82 4019.9 1340.27 4044.78C1071.86 4070.86 867.487 4081.51 716.486 4080.63C530.909 4079.2 413.799 4057.41 350.517 4021.46C349.735 4021.01 348.796 4020.48 348.102 4019.88Z" fill="#6321F6"/>
</svg>
