<svg width="1080" height="933" viewBox="0 0 1080 933" fill="none" xmlns="http://www.w3.org/2000/svg">
<path fill-rule="evenodd" clip-rule="evenodd" d="M1387.03 233.355C1103.43 103.597 810.859 -2.02206 725.906 16.2696C639.339 34.8839 410.533 244.984 200.208 472.86C-10.1345 700.651 -201.453 945.403 -213.064 1033.24C-224.487 1119.35 -96.02 1402.54 55.9124 1674.94C208.966 1949.41 385.366 2212.07 466.039 2250.64C544.47 2288.16 853.453 2253.48 1159.52 2193.15C1467.63 2132.41 1771.73 2045.88 1833.62 1981.13C1893.23 1914.63 1955.37 1604.33 1991.44 1292.18C2027.17 982.296 2037.17 671.456 1993.55 596.333C1948.7 519.069 1672.86 364.083 1387.03 233.355ZM722.919 2.20145C811.033 -16.6333 1107.07 89.5302 1393 220.326C1680.97 352.039 1959.63 509.201 2005.99 589.167C2051.14 667.076 2041.66 981.433 2005.64 1293.85C1969.34 1608.35 1905.9 1921.91 1844.29 1990.75L1844.14 1990.87C1780.48 2057.83 1472.89 2145.94 1162.24 2207.18C853.704 2268.01 541.136 2302.43 459.885 2263.62C376.477 2223.74 197.699 1958.47 43.4402 1681.94C-109.732 1407.31 -239.166 1120.61 -227.318 1031.31C-215.247 940.472 -22.3308 692.662 189.694 463.122C401.617 233.513 633.396 21.4943 722.919 2.20145ZM755.123 158.583C827.554 143.057 1082.82 235.719 1331.33 349.43C1581.77 463.991 1823.04 598.937 1861.32 664.969C1898.51 729.098 1889.28 1000.47 1857.98 1271.92C1826.39 1545.46 1772.59 1816.64 1721.59 1873.56C1668.14 1928.84 1402.73 2003.85 1133.12 2056.99C865.045 2109.82 595.224 2140.65 528.31 2108.61C459.358 2075.65 305.613 1845.92 171.528 1605.38C38.4621 1366.84 -74.2312 1119.73 -64.4423 1046.22C-54.5169 971.182 112.906 757.616 297.263 558.072C481.519 358.46 681.095 174.516 755.123 158.583ZM1346.18 316.78C1092.03 200.485 827.819 106.342 747.589 123.514C666.102 141.025 459.338 329.673 270.936 533.736C82.5167 737.713 -89.1214 958.923 -100 1041.57C-110.811 1122.8 4.07184 1378.66 140.297 1622.84C277.371 1868.61 437.077 2104.74 512.858 2140.94C586.906 2176.41 865.68 2146.18 1139.87 2092.12C1416.02 2037.68 1689.92 1958.68 1747.82 1897.83L1748.19 1897.49C1804.24 1834.88 1861.26 1555.55 1893.52 1276.04C1925.6 998.34 1933.49 718.047 1892.28 647.037C1850.11 574.36 1602.08 433.874 1346.18 316.78ZM1271.12 464.638C1060.62 368.334 844.912 289.682 784.595 302.612C722.851 315.915 554.306 471.664 398.143 640.754C241.979 809.843 100.186 990.286 91.9118 1052.81C83.7401 1114.07 179.318 1322.81 291.956 1524.97C405.612 1728.69 535.344 1923.1 592.88 1950.66C648.633 1977.24 876.675 1950.87 1103.79 1906.13C1332 1861.17 1556.42 1798.06 1601.2 1752.01C1643.76 1704.56 1688.94 1475.21 1715.7 1243.36C1742.23 1013.5 1750.38 784.036 1719.4 730.681C1687.46 675.575 1483.27 561.757 1271.12 464.638ZM775.585 260.594C845.213 245.628 1071.61 326.033 1288.92 425.481C1507.68 525.609 1720 646.106 1756.53 709.131C1792.33 770.711 1785.79 1010.89 1758.39 1248.35C1730.77 1487.35 1681.79 1726.47 1633.17 1780.7L1632.73 1781.14C1582.49 1833.93 1347.98 1901.79 1111.95 1948.32C877.444 1994.53 638.648 2020.14 574.385 1989.42C508.762 1958.09 371.745 1755.95 254.505 1545.79C138.081 1337.05 39.8719 1117.79 49.1843 1047.2C58.7349 975.596 205.509 786.031 366.516 611.557C527.625 437.151 704.938 275.764 775.585 260.594ZM823.959 494.843C867.336 485.562 1032.56 546.735 1195.32 621.211C1359.52 696.281 1516.7 783.09 1539.85 822.903C1562.09 861.305 1555.01 1037.28 1534.51 1215.06C1513.8 1394.46 1479.84 1570.77 1449.06 1605.1C1415.53 1638.47 1243.72 1685.86 1067.79 1720.56C892.188 1755.19 717.325 1776.24 677.201 1757.13C635.48 1737.11 536.488 1587.35 448.558 1429.73C361.444 1273.54 287.48 1113.75 293.336 1069.65C299.295 1024.28 408.848 886.325 529.628 755.486C650.409 624.648 779.325 504.464 823.959 494.843ZM1225.03 555.911C1050.91 476.284 867.951 412.116 808.908 424.791C749.373 437.653 605.895 567.194 476.973 706.814C347.899 846.553 230.205 999.92 222.203 1060.27C214.236 1119.9 292.748 1297.15 386.163 1464.54C480.019 1632.82 591.104 1795.35 646.381 1821.77C700.69 1847.76 893.545 1827.89 1081.39 1790.9C1270.43 1753.67 1459.25 1698.12 1501.6 1653.62L1502.26 1652.96C1543.22 1607.23 1583.55 1414.63 1605.68 1223.28C1627.58 1033.04 1632.06 839.204 1601.77 787.038C1570.93 733.92 1400.14 636.047 1225.03 555.911ZM873.775 738.08C896.559 733.177 998.911 772.365 1101.97 819.539C1206.29 867.258 1304.89 920.36 1317.29 941.736C1329 961.923 1323.38 1071.35 1310.36 1183.94C1297.23 1297.78 1277.27 1407.95 1260.65 1426.47C1240.83 1444.47 1134.42 1472.53 1023.93 1494.33C912.674 1516.28 803.954 1530.58 782.855 1520.48C760.296 1509.7 699.55 1415.65 643.732 1315.75C588.644 1216.86 541.508 1117.96 544.606 1094.55C547.79 1070.24 616.978 984.955 693.606 901.981C770.218 818.923 849.801 743.222 873.775 738.08ZM1143.71 728.164C1024.61 673.679 897.403 630.356 852.683 639.993C807.947 649.547 707.939 738.426 619.839 833.85C531.739 929.274 451.043 1036.12 444.999 1081.49C438.973 1126.52 492.423 1249.94 556.273 1364.4C620.395 1479.34 698.228 1591.27 739.643 1611.09C780.753 1630.71 914.55 1618.12 1043.07 1592.81C1172.01 1567.41 1302.38 1527.94 1334.21 1494.46L1335.16 1493.48C1366.02 1459.13 1394.93 1326.06 1410.01 1195.48C1425.02 1065.36 1426.97 930.96 1403.98 891.47C1380.9 851.555 1263.22 782.919 1143.71 728.164Z" fill="#131313"/>
</svg>
