<svg width="1080" height="933" viewBox="0 0 1080 933" fill="none" xmlns="http://www.w3.org/2000/svg">
<path fill-rule="evenodd" clip-rule="evenodd" d="M1387.04 233.355C1103.43 103.597 810.863 -2.02206 725.91 16.2696C639.342 34.8839 410.537 244.984 200.212 472.86C-10.1305 700.651 -201.449 945.403 -213.06 1033.24C-224.483 1119.35 -96.0161 1402.54 55.9163 1674.94C208.97 1949.41 385.37 2212.07 466.043 2250.64C544.474 2288.16 853.457 2253.48 1159.52 2193.15C1467.63 2132.41 1771.73 2045.88 1833.63 1981.13C1893.23 1914.63 1955.38 1604.33 1991.44 1292.18C2027.17 982.296 2037.18 671.456 1993.55 596.333C1948.7 519.069 1672.87 364.083 1387.04 233.355ZM722.923 2.20145C811.037 -16.6333 1107.07 89.5302 1393 220.326C1680.98 352.039 1959.63 509.201 2005.99 589.167C2051.15 667.076 2041.67 981.433 2005.65 1293.85C1969.34 1608.35 1905.9 1921.91 1844.3 1990.75L1844.14 1990.87C1780.48 2057.83 1472.89 2145.94 1162.24 2207.18C853.708 2268.01 541.14 2302.43 459.889 2263.62C376.481 2223.74 197.703 1958.47 43.4441 1681.94C-109.728 1407.31 -239.162 1120.61 -227.314 1031.31C-215.243 940.472 -22.3269 692.662 189.698 463.122C401.621 233.513 633.4 21.4943 722.923 2.20145ZM755.127 158.583C827.558 143.057 1082.82 235.719 1331.33 349.43C1581.78 463.991 1823.04 598.937 1861.32 664.969C1898.51 729.098 1889.28 1000.47 1857.98 1271.92C1826.39 1545.46 1772.6 1816.64 1721.59 1873.56C1668.15 1928.84 1402.73 2003.85 1133.13 2056.99C865.049 2109.82 595.228 2140.65 528.314 2108.61C459.362 2075.65 305.617 1845.92 171.532 1605.38C38.466 1366.84 -74.2273 1119.73 -64.4384 1046.22C-54.513 971.182 112.91 757.616 297.267 558.072C481.523 358.46 681.099 174.516 755.127 158.583ZM1346.19 316.78C1092.04 200.485 827.823 106.342 747.593 123.514C666.106 141.025 459.342 329.673 270.94 533.736C82.5206 737.713 -89.1175 958.923 -99.9963 1041.57C-110.807 1122.8 4.07575 1378.66 140.301 1622.84C277.374 1868.61 437.081 2104.74 512.862 2140.94C586.91 2176.41 865.684 2146.18 1139.88 2092.12C1416.02 2037.68 1689.92 1958.68 1747.82 1897.83L1748.19 1897.49C1804.24 1834.88 1861.27 1555.55 1893.52 1276.04C1925.6 998.34 1933.5 718.047 1892.28 647.037C1850.12 574.36 1602.09 433.874 1346.19 316.78ZM1271.12 464.638C1060.63 368.334 844.916 289.682 784.599 302.612C722.855 315.915 554.31 471.664 398.146 640.754C241.983 809.843 100.19 990.286 91.9157 1052.81C83.744 1114.07 179.322 1322.81 291.96 1524.97C405.616 1728.69 535.347 1923.1 592.884 1950.66C648.637 1977.24 876.679 1950.87 1103.79 1906.13C1332.01 1861.17 1556.42 1798.06 1601.2 1752.01C1643.76 1704.56 1688.95 1475.21 1715.7 1243.36C1742.23 1013.5 1750.38 784.036 1719.41 730.681C1687.46 675.575 1483.28 561.757 1271.12 464.638ZM775.589 260.594C845.217 245.628 1071.62 326.033 1288.92 425.481C1507.69 525.609 1720.01 646.106 1756.53 709.131C1792.33 770.711 1785.79 1010.89 1758.39 1248.35C1730.77 1487.35 1681.79 1726.47 1633.17 1780.7L1632.73 1781.14C1582.49 1833.93 1347.98 1901.79 1111.95 1948.32C877.448 1994.53 638.652 2020.14 574.389 1989.42C508.766 1958.09 371.749 1755.95 254.509 1545.79C138.085 1337.05 39.8758 1117.79 49.1883 1047.2C58.7388 975.596 205.513 786.031 366.52 611.557C527.629 437.151 704.942 275.764 775.589 260.594ZM823.963 494.843C867.34 485.562 1032.56 546.735 1195.32 621.211C1359.52 696.281 1516.71 783.09 1539.85 822.903C1562.1 861.305 1555.02 1037.28 1534.51 1215.06C1513.8 1394.46 1479.85 1570.77 1449.07 1605.1C1415.54 1638.47 1243.73 1685.86 1067.79 1720.56C892.192 1755.19 717.329 1776.24 677.205 1757.13C635.484 1737.11 536.492 1587.35 448.562 1429.73C361.447 1273.54 287.484 1113.75 293.34 1069.65C299.299 1024.28 408.851 886.325 529.632 755.486C650.413 624.648 779.329 504.464 823.963 494.843ZM1225.04 555.911C1050.92 476.284 867.955 412.116 808.912 424.791C749.377 437.653 605.899 567.194 476.977 706.814C347.903 846.553 230.209 999.92 222.207 1060.27C214.24 1119.9 292.752 1297.15 386.167 1464.54C480.023 1632.82 591.108 1795.35 646.385 1821.77C700.694 1847.76 893.549 1827.89 1081.4 1790.9C1270.43 1753.67 1459.25 1698.12 1501.6 1653.62L1502.27 1652.96C1543.22 1607.23 1583.56 1414.63 1605.68 1223.28C1627.58 1033.04 1632.07 839.204 1601.77 787.038C1570.93 733.92 1400.15 636.047 1225.04 555.911ZM873.779 738.08C896.563 733.177 998.915 772.365 1101.98 819.539C1206.3 867.258 1304.89 920.36 1317.29 941.736C1329.01 961.923 1323.39 1071.35 1310.36 1183.94C1297.23 1297.78 1277.27 1407.95 1260.65 1426.47C1240.84 1444.47 1134.42 1472.53 1023.93 1494.33C912.678 1516.28 803.958 1530.58 782.859 1520.48C760.3 1509.7 699.554 1415.65 643.736 1315.75C588.648 1216.86 541.512 1117.96 544.61 1094.55C547.794 1070.24 616.982 984.955 693.61 901.981C770.222 818.923 849.805 743.222 873.779 738.08ZM1143.71 728.164C1024.61 673.679 897.406 630.356 852.687 639.993C807.951 649.547 707.943 738.426 619.843 833.85C531.743 929.274 451.047 1036.12 445.003 1081.49C438.977 1126.52 492.427 1249.94 556.277 1364.4C620.399 1479.34 698.232 1591.27 739.647 1611.09C780.757 1630.71 914.553 1618.12 1043.07 1592.81C1172.01 1567.41 1302.38 1527.94 1334.21 1494.46L1335.17 1493.48C1366.03 1459.13 1394.93 1326.06 1410.02 1195.48C1425.02 1065.36 1426.98 930.96 1403.98 891.47C1380.91 851.555 1263.22 782.919 1143.71 728.164Z" fill="#0B1B1A"/>
</svg>
