<svg width="1080" height="933" viewBox="0 0 1080 933" fill="none" xmlns="http://www.w3.org/2000/svg">
<path fill-rule="evenodd" clip-rule="evenodd" d="M1387.04 233.355C1103.43 103.597 810.862 -2.02206 725.909 16.2696C639.341 34.8839 410.536 244.984 200.211 472.86C-10.1315 700.651 -201.45 945.403 -213.061 1033.24C-224.484 1119.35 -96.0171 1402.54 55.9153 1674.94C208.969 1949.41 385.369 2212.07 466.042 2250.64C544.473 2288.16 853.456 2253.48 1159.52 2193.15C1467.63 2132.41 1771.73 2045.88 1833.63 1981.13C1893.23 1914.63 1955.38 1604.33 1991.44 1292.18C2027.17 982.296 2037.18 671.456 1993.55 596.333C1948.7 519.069 1672.87 364.083 1387.04 233.355ZM722.922 2.20145C811.036 -16.6333 1107.07 89.5302 1393 220.326C1680.97 352.039 1959.63 509.201 2005.99 589.167C2051.14 667.076 2041.66 981.433 2005.65 1293.85C1969.34 1608.35 1905.9 1921.91 1844.29 1990.75L1844.14 1990.87C1780.48 2057.83 1472.89 2145.94 1162.24 2207.18C853.707 2268.01 541.139 2302.43 459.888 2263.62C376.48 2223.74 197.702 1958.47 43.4432 1681.94C-109.729 1407.31 -239.163 1120.61 -227.315 1031.31C-215.244 940.472 -22.3279 692.662 189.697 463.122C401.62 233.513 633.399 21.4943 722.922 2.20145ZM755.126 158.583C827.557 143.057 1082.82 235.719 1331.33 349.43C1581.78 463.991 1823.04 598.937 1861.32 664.969C1898.51 729.098 1889.28 1000.47 1857.98 1271.92C1826.39 1545.46 1772.59 1816.64 1721.59 1873.56C1668.15 1928.84 1402.73 2003.85 1133.12 2056.99C865.048 2109.82 595.227 2140.65 528.313 2108.61C459.361 2075.65 305.616 1845.92 171.531 1605.38C38.465 1366.84 -74.2282 1119.73 -64.4394 1046.22C-54.514 971.182 112.909 757.616 297.266 558.072C481.522 358.46 681.098 174.516 755.126 158.583ZM1346.19 316.78C1092.04 200.485 827.822 106.342 747.592 123.514C666.105 141.025 459.341 329.673 270.939 533.736C82.5196 737.713 -89.1185 958.923 -99.9973 1041.57C-110.808 1122.8 4.07477 1378.66 140.3 1622.84C277.373 1868.61 437.08 2104.74 512.861 2140.94C586.909 2176.41 865.683 2146.18 1139.88 2092.12C1416.02 2037.68 1689.92 1958.68 1747.82 1897.83L1748.19 1897.49C1804.24 1834.88 1861.27 1555.55 1893.52 1276.04C1925.6 998.34 1933.49 718.047 1892.28 647.037C1850.11 574.36 1602.09 433.874 1346.19 316.78ZM1271.12 464.638C1060.63 368.334 844.915 289.682 784.598 302.612C722.854 315.915 554.309 471.664 398.146 640.754C241.982 809.843 100.189 990.286 91.9147 1052.81C83.743 1114.07 179.321 1322.81 291.959 1524.97C405.615 1728.69 535.347 1923.1 592.883 1950.66C648.636 1977.24 876.678 1950.87 1103.79 1906.13C1332.01 1861.17 1556.42 1798.06 1601.2 1752.01C1643.76 1704.56 1688.94 1475.21 1715.7 1243.36C1742.23 1013.5 1750.38 784.036 1719.4 730.681C1687.46 675.575 1483.28 561.757 1271.12 464.638ZM775.588 260.594C845.216 245.628 1071.61 326.033 1288.92 425.481C1507.68 525.609 1720.01 646.106 1756.53 709.131C1792.33 770.711 1785.79 1010.89 1758.39 1248.35C1730.77 1487.35 1681.79 1726.47 1633.17 1780.7L1632.73 1781.14C1582.49 1833.93 1347.98 1901.79 1111.95 1948.32C877.447 1994.53 638.651 2020.14 574.388 1989.42C508.765 1958.09 371.748 1755.95 254.508 1545.79C138.084 1337.05 39.8749 1117.79 49.1873 1047.2C58.7379 975.596 205.512 786.031 366.519 611.557C527.628 437.151 704.941 275.764 775.588 260.594ZM823.962 494.843C867.339 485.562 1032.56 546.735 1195.32 621.211C1359.52 696.281 1516.7 783.09 1539.85 822.903C1562.1 861.305 1555.02 1037.28 1534.51 1215.06C1513.8 1394.46 1479.84 1570.77 1449.07 1605.1C1415.54 1638.47 1243.73 1685.86 1067.79 1720.56C892.191 1755.19 717.328 1776.24 677.204 1757.13C635.483 1737.11 536.491 1587.35 448.561 1429.73C361.446 1273.54 287.483 1113.75 293.339 1069.65C299.298 1024.28 408.85 886.325 529.631 755.486C650.412 624.648 779.328 504.464 823.962 494.843ZM1225.04 555.911C1050.91 476.284 867.954 412.116 808.911 424.791C749.376 437.653 605.898 567.194 476.976 706.814C347.902 846.553 230.208 999.92 222.206 1060.27C214.239 1119.9 292.751 1297.15 386.166 1464.54C480.022 1632.82 591.107 1795.35 646.384 1821.77C700.693 1847.76 893.548 1827.89 1081.39 1790.9C1270.43 1753.67 1459.25 1698.12 1501.6 1653.62L1502.27 1652.96C1543.22 1607.23 1583.56 1414.63 1605.68 1223.28C1627.58 1033.04 1632.07 839.204 1601.77 787.038C1570.93 733.92 1400.14 636.047 1225.04 555.911ZM873.778 738.08C896.562 733.177 998.914 772.365 1101.98 819.539C1206.3 867.258 1304.89 920.36 1317.29 941.736C1329.01 961.923 1323.39 1071.35 1310.36 1183.94C1297.23 1297.78 1277.27 1407.95 1260.65 1426.47C1240.83 1444.47 1134.42 1472.53 1023.93 1494.33C912.677 1516.28 803.957 1530.58 782.858 1520.48C760.299 1509.7 699.553 1415.65 643.735 1315.75C588.647 1216.86 541.511 1117.96 544.609 1094.55C547.793 1070.24 616.981 984.955 693.609 901.981C770.221 818.923 849.804 743.222 873.778 738.08ZM1143.71 728.164C1024.61 673.679 897.406 630.356 852.686 639.993C807.95 649.547 707.942 738.426 619.842 833.85C531.742 929.274 451.046 1036.12 445.002 1081.49C438.976 1126.52 492.426 1249.94 556.276 1364.4C620.398 1479.34 698.231 1591.27 739.646 1611.09C780.756 1630.71 914.553 1618.12 1043.07 1592.81C1172.01 1567.41 1302.38 1527.94 1334.21 1494.46L1335.16 1493.48C1366.03 1459.13 1394.93 1326.06 1410.02 1195.48C1425.02 1065.36 1426.98 930.96 1403.98 891.47C1380.9 851.555 1263.22 782.919 1143.71 728.164Z" fill="#001134"/>
</svg>
