<svg width="620" height="315" viewBox="0 0 620 315" fill="none" xmlns="http://www.w3.org/2000/svg">
<path fill-rule="evenodd" clip-rule="evenodd" d="M193.997 406.951C90.6162 590.347 2.96334 781.14 10.4438 839.32C18.0495 898.605 146.379 1064.43 287.714 1218.84C428.991 1373.26 582.756 1515.84 641.177 1528.64C698.453 1541.21 896.225 1470.88 1088.08 1384.15C1281.39 1296.78 1468.07 1193.04 1498.6 1140.97C1528.28 1090.34 1522.5 880.545 1499.3 671.249C1475.93 460.559 1435 251.097 1394.96 205.789C1353.61 161.925 1148.43 102.506 940.508 60.5221C734.101 18.897 525.589 -5.48116 472.582 19.598C418.065 45.3779 298.157 222.114 193.997 406.951ZM0.811571 840.53C-6.85451 780.193 81.3612 587.1 185.572 402.198C290.516 215.977 412.048 37.4679 468.468 10.8247C523.436 -15.1242 734.343 9.1 942.437 51.0636C1151.92 93.3405 1359.23 153.814 1402.04 199.16L1402.11 199.27C1443.53 245.892 1485.33 457.787 1508.89 670.22C1532.29 881.201 1537.69 1093.4 1506.98 1145.85C1475.42 1199.68 1286.84 1304.88 1092.07 1392.93C898.655 1480.37 698.463 1551.16 639.073 1538.12C578.657 1524.84 422.925 1381.01 280.567 1225.36C138.157 1069.78 8.70599 901.842 0.811571 840.53ZM107.827 827.748C101.496 778.147 178.316 611.711 268.91 451.012C360.186 289.057 464.653 134.435 511.241 112.438C556.488 91.0637 738.497 112.68 919.307 149.145C1101.51 185.923 1280.85 237.503 1316.24 275.04C1350.39 314.129 1385.78 496.914 1406.21 681.276C1426.53 864.592 1431.95 1047.83 1406.6 1091.02C1380.51 1135.53 1217.26 1225.9 1047.85 1302.43C879.852 1378.39 707.24 1440.17 658.35 1429.41C608.438 1418.47 474.293 1293.73 350.541 1158.4C226.736 1023.13 114.341 878.446 107.827 827.748ZM247.792 439.164C155.14 603.511 76.8155 775.884 83.8108 830.824C90.963 886.629 206.114 1036.42 332.676 1174.73C459.181 1313.04 598.228 1441.05 653.204 1453.06C707.225 1464.94 885.847 1402.2 1057.82 1324.43C1230.92 1246.18 1398.82 1152.17 1427.46 1103.25C1455.53 1055.46 1451.02 866.228 1430.23 678.729C1409.29 489.892 1371.7 301.178 1334.05 258.777L1333.85 258.507C1294.92 217.252 1110.27 163.037 924.097 125.473C739.126 88.1259 551.041 66.9046 500.937 90.5952C449.659 114.831 341.082 273.686 247.792 439.164ZM342.984 498.05C266.257 634.166 201.106 774.796 206.378 816.101C211.821 858.387 307.014 980.598 411.882 1095.24C516.751 1209.88 630.072 1315.5 671.655 1324.61C712.398 1333.59 858.231 1281.15 1000.6 1216.86C1144.08 1151.98 1282.22 1075.76 1304.02 1038.62C1325.07 1002.63 1320.27 847.744 1303.07 692.442C1285.79 536.383 1256.08 381.851 1227.65 349.117C1198.15 317.799 1046.45 274.384 892.016 243.225C738.91 212.329 585.031 193.82 547.384 211.625C508.504 229.982 420.354 360.861 342.984 498.05ZM177.604 819.776C171.491 772.093 238.428 624.375 317.657 483.855C397.426 342.392 490.531 206.42 534.997 185.428C578.45 164.846 739.631 182.88 897.796 214.792C1056.99 246.94 1215.04 293.46 1248.76 329.244L1249.04 329.566C1281.69 366.353 1314.02 527.944 1331.91 689.348C1349.69 849.706 1353.35 1011.78 1329.04 1053.26C1304.24 1095.62 1160.5 1176.31 1012.48 1243.24C865.47 1309.7 712.413 1363.31 665.461 1353.03C617.837 1342.54 498.663 1233.06 390.448 1114.85C282.284 996.586 183.797 868.156 177.604 819.776ZM337.914 800.538C334.133 770.834 384.661 663.172 443.996 557.925C503.813 451.74 571.127 350.943 599.221 337.635C626.315 324.852 744.28 339.606 862.692 363.49C982.189 387.605 1098.85 420.456 1120.19 443.107C1140.74 467.555 1162.86 585.811 1176.21 706.122C1189.53 826.2 1193.77 945.013 1178.64 970.917C1162.8 997.843 1056.45 1055.93 945.435 1106.12C835.43 1155.85 723.75 1196.53 694.418 1190.08C664.245 1183.5 577.668 1101.98 496.52 1013.31C415.371 924.642 341.851 831.106 337.914 800.538ZM401.76 534.23C338.315 646.829 284.766 766.251 289.94 806.684C295.211 847.459 374.199 951.322 460.792 1045.96C547.456 1140.72 643.934 1228.59 684.069 1237.4C723.727 1246.14 847.413 1203.4 965.308 1150.07C1083.82 1096.49 1199.46 1031 1220.36 995.317C1240.93 960.263 1238.51 829.415 1224.3 700.963C1209.99 571.698 1183.34 441.537 1155.81 410.525L1155.41 410.041C1126.97 379.896 999.716 341.831 872.265 316.088C745.544 290.556 615.421 276.533 578.612 293.949C541.133 311.677 465.604 420.997 401.76 534.23ZM504.351 780.84C502.346 765.236 534.517 698.616 572.099 631.97C610.118 564.51 651.434 501.208 666.516 494.084C680.759 487.348 754.046 497.341 829.035 512.495C904.865 527.79 977.837 547.47 989.346 559.701C1000.33 574.051 1013.16 647.221 1021.55 722.777C1030 798.857 1033.44 872.797 1025.45 886.415C1016.92 900.977 950.212 936.497 879.849 968.37C810.202 999.809 741.007 1025.9 725.436 1022.49C709.265 1018.97 655.827 967.585 604.367 911.332C552.849 855.085 506.448 797.257 504.351 780.84ZM513.006 598.711C469.596 675.728 433.233 758.831 437.177 789.458C441.063 820.091 495.168 892.406 554.351 957.082C613.535 1021.76 680.819 1082.1 710.998 1088.74C740.938 1095.35 826.994 1066.41 907.608 1029.96C988.557 993.355 1068.26 947.357 1083.95 920.625C1099.48 894.087 1098.61 803.377 1088.88 715.496C1079.11 627.324 1059.97 537.391 1039.26 514.08L1038.65 513.384C1017.3 490.675 929.434 463.68 842.459 446.118C755.789 428.639 665.495 419.692 637.628 432.916C609.469 446.173 556.621 521.435 513.006 598.711Z" fill="#FF6D04"/>
</svg>
