<svg width="1080" height="573" viewBox="0 0 1080 573" fill="none" xmlns="http://www.w3.org/2000/svg">
<path fill-rule="evenodd" clip-rule="evenodd" d="M933.746 168.246C952.249 166.753 997.279 181.285 1076.79 217.374C1279.42 309.513 1522.68 452.31 1701.89 584.37C1772.17 636.192 1806.85 668.425 1814.47 685.28C1822.03 701.931 1823.02 745.688 1814.64 826.567C1806.04 909.664 1786.32 1024.56 1752.29 1178.56C1716.52 1340.58 1684.51 1460.66 1656.13 1545.99C1628.49 1629.24 1608.53 1672.24 1594.94 1684.65C1581.7 1696.73 1540.41 1711.15 1460.53 1728.26C1378.3 1745.87 1262.97 1762.61 1106.72 1777.78C940.865 1793.85 816.765 1800.52 727.22 1799.97C639.6 1799.38 592.736 1793.77 576.92 1784.83C561.402 1775.38 533.636 1737.18 490.417 1660.91C446.264 1583.07 391.606 1471.43 324.846 1318.84C261.868 1174.88 220.331 1066.06 195.612 985.693C171.652 907.665 164.083 864.52 168.204 847.111C172.388 829.131 200.218 790.749 259.416 726.111C320.156 659.662 409.349 573.188 533.325 462.994C651.288 358.233 741.902 285.027 810.315 237.023C876.845 190.205 915.542 169.822 933.746 168.246ZM490.253 1928.74L491.893 1929.67C492.381 1930.03 492.906 1930.33 493.497 1930.66C533.687 1953.46 608.143 1967.38 726.194 1968.2C822.181 1968.84 952.095 1961.99 1122.73 1945.42C1285.29 1929.65 1407.12 1911.82 1495.97 1892.77C1606.93 1869.06 1674.01 1840.12 1708.47 1808.69C1742.44 1777.67 1778.64 1711.3 1815.8 1599.41C1845.97 1508.76 1879.58 1382.92 1916.67 1214.9C1951.78 1056.06 1972.41 934.66 1981.8 843.875C1993.58 730.632 1986.86 657.932 1967.77 615.722C1948.86 573.96 1896.8 519.011 1801.5 448.811C1611.58 308.884 1361.37 161.989 1146.6 64.3756C1038.82 15.3462 965.485 -3.31892 919.798 0.476308C873.597 4.41428 806.824 34.0407 713.769 99.4614C639.021 151.938 543.107 229.161 421.505 337.147C292.828 451.524 199.439 542.207 134.951 612.685C55.3151 699.711 15.0178 763.686 4.55142 808.415C-6.1544 853.874 1.30659 926.477 34.6247 1034.98C61.3482 1121.76 105.132 1236.87 170.624 1386.49C239.351 1543.57 296.717 1660.38 344.057 1743.92C402.242 1846.56 450.73 1904.77 490.253 1928.74ZM965.078 455.259C977.246 454.255 1006.97 463.86 1059.39 487.676C1193 548.442 1353.5 642.667 1471.74 729.722C1518.07 763.861 1540.92 785.167 1545.96 796.324C1550.94 807.275 1551.61 836.131 1546.07 889.446C1540.42 944.342 1527.41 1020.09 1504.92 1121.66C1481.35 1228.5 1460.23 1307.72 1441.52 1363.98C1423.31 1418.88 1410.13 1447.27 1401.17 1455.46C1392.44 1463.42 1365.16 1472.94 1312.47 1484.21C1258.29 1495.84 1182.2 1506.87 1079.06 1516.91C969.709 1527.5 887.91 1531.93 828.834 1531.54C771.075 1531.11 740.075 1527.45 729.678 1521.49C719.429 1515.27 701.095 1490.11 672.624 1439.83C643.466 1388.47 607.402 1314.85 563.428 1214.18C521.93 1119.23 494.448 1047.44 478.165 994.433C462.309 942.971 457.337 914.538 460.047 902.998C462.841 891.158 481.199 865.863 520.283 823.191C560.268 779.383 619.147 722.357 700.891 649.681C778.708 580.586 838.528 532.315 883.639 500.579C927.521 469.793 953.08 456.271 965.078 455.259ZM672.555 1616.47L673.605 1617.07C673.896 1617.32 674.29 1617.54 674.618 1617.72C701.159 1632.8 750.275 1641.94 828.106 1642.54C891.437 1642.91 977.152 1638.44 1089.72 1627.51C1196.9 1617.07 1277.32 1605.28 1335.9 1592.76C1409.05 1577.12 1453.32 1558.07 1476.04 1537.31C1498.44 1516.81 1522.29 1473.07 1546.85 1399.25C1566.72 1339.4 1588.91 1256.46 1613.36 1145.61C1636.52 1040.87 1650.16 960.8 1656.33 900.834C1664.13 826.203 1659.7 778.256 1647.08 750.346C1634.56 722.847 1600.25 686.583 1537.39 640.335C1412.1 547.994 1247.1 451.146 1105.44 386.699C1034.34 354.411 985.998 342.074 955.832 344.596C925.359 347.204 881.338 366.744 819.922 409.872C770.646 444.535 707.352 495.432 627.2 566.67C542.346 642.091 480.694 701.879 438.142 748.392C385.622 805.808 359.017 847.999 352.122 877.518C345.07 907.469 350.035 955.376 372.029 1026.93C389.614 1084.21 418.509 1160.1 461.67 1258.84C507.015 1362.46 544.797 1439.46 576.096 1494.54C614.449 1562.26 646.423 1600.67 672.555 1616.47ZM1046.82 693.793C1015.22 679.401 997.29 673.6 989.935 674.206C982.712 674.887 967.251 682.946 940.792 701.586C913.568 720.66 877.495 749.884 830.497 791.548C781.126 835.421 745.667 869.839 721.48 896.256C697.898 922.062 686.83 937.364 685.154 944.468C683.486 951.403 686.497 968.6 696.063 999.628C705.915 1031.68 722.487 1074.98 747.533 1132.24C774.12 1193.05 795.868 1237.46 813.436 1268.42C830.628 1298.82 841.706 1314 847.895 1317.75C854.157 1321.38 872.847 1323.54 907.766 1323.79C943.358 1324.07 992.734 1321.41 1058.77 1315C1120.98 1308.93 1166.91 1302.25 1199.6 1295.26C1231.4 1288.47 1247.89 1282.72 1253.13 1277.89C1258.61 1272.94 1266.53 1255.86 1277.56 1222.7C1288.79 1188.71 1301.57 1140.96 1315.78 1076.44C1329.31 1015.09 1337.19 969.42 1340.66 936.318C1343.98 904.086 1343.51 886.681 1340.57 880.086C1337.47 873.313 1323.67 860.499 1295.76 839.881C1224.38 787.261 1127.55 730.484 1046.82 693.793ZM813.989 1375.47C813.792 1375.36 813.596 1375.25 813.37 1375.03C797.618 1365.53 778.339 1342.34 755.197 1301.48C736.327 1268.23 713.503 1221.74 686.16 1159.2C660.084 1099.63 642.592 1053.82 631.989 1019.27C618.718 976.102 615.762 947.164 620.02 929.053C624.196 911.242 640.235 885.763 671.926 851.12C697.581 823.023 734.809 787.006 785.985 741.47C834.435 698.462 872.576 667.723 902.324 646.786C939.414 620.82 966 609.004 984.372 607.436C1002.54 605.926 1031.76 613.346 1074.68 632.834C1160.16 671.689 1259.73 730.191 1335.35 785.894C1373.32 813.839 1394.01 835.744 1401.61 852.329C1409.16 869.148 1411.85 898.106 1407.17 943.162C1403.45 979.323 1395.2 1027.64 1381.19 1090.89C1366.43 1157.78 1353.1 1207.89 1341.11 1243.97C1326.27 1288.48 1311.83 1314.95 1298.38 1327.27C1284.62 1339.83 1257.95 1351.34 1213.76 1360.75C1178.42 1368.31 1129.89 1375.43 1065.15 1381.71C997.279 1388.29 945.5 1391.07 907.309 1390.79C860.311 1390.47 830.658 1384.89 814.646 1375.84L813.989 1375.47ZM1008.42 837.008C1012.22 836.728 1021.35 839.721 1037.55 847.056C1078.82 865.785 1128.34 894.887 1164.91 921.782C1179.2 932.36 1186.22 938.926 1187.84 942.349C1189.32 945.698 1189.54 954.653 1187.86 971.106C1186.1 988.026 1182.04 1011.45 1175.16 1042.79C1167.85 1075.8 1161.31 1100.24 1155.57 1117.6C1149.89 1134.56 1145.86 1143.37 1143.07 1145.86C1140.38 1148.32 1131.96 1151.27 1115.72 1154.73C1098.97 1158.34 1075.51 1161.71 1043.63 1164.82C1009.91 1168.11 984.632 1169.49 966.383 1169.31C948.535 1169.18 939.004 1168.13 935.76 1166.21C932.581 1164.32 926.934 1156.55 918.135 1141.01C909.148 1125.2 898.015 1102.47 884.437 1071.34C871.645 1042.03 863.113 1019.9 858.106 1003.48C853.204 987.639 851.693 978.821 852.545 975.321C853.406 971.652 859.033 963.837 871.075 950.643C883.471 937.129 901.642 919.52 926.877 897.072C950.873 875.742 969.348 860.815 983.276 851.024C996.851 841.552 1004.76 837.363 1008.42 837.008ZM918.141 1195.56L918.469 1195.74L918.797 1195.93C926.963 1200.63 942.141 1203.49 966.13 1203.62C985.698 1203.77 1012.19 1202.38 1046.93 1198.97C1080 1195.75 1104.82 1192.12 1122.94 1188.24C1145.49 1183.41 1159.19 1177.55 1166.19 1171.13C1173.13 1164.83 1180.49 1151.33 1188.03 1128.49C1194.23 1110.01 1201.06 1084.43 1208.63 1050.19C1215.74 1017.84 1219.93 993.115 1221.87 974.651C1224.26 951.585 1222.91 936.802 1219.03 928.201C1215.17 919.703 1204.53 908.5 1185.18 894.188C1146.49 865.668 1095.53 835.749 1051.78 815.883C1029.81 805.894 1014.88 802.134 1005.63 802.88C996.17 803.684 982.635 809.715 963.6 823.027C948.377 833.731 928.85 849.449 904.146 871.418C877.924 894.694 858.897 913.205 845.785 927.526C829.531 945.265 821.312 958.282 819.197 967.388C817.008 976.626 818.585 991.455 825.331 1013.53C830.747 1031.22 839.687 1054.62 853.027 1085.1C867.03 1117.16 878.72 1140.91 888.321 1157.93C900.221 1178.85 910.086 1190.66 918.141 1195.56Z" fill="#595451"/>
</svg>
