<svg width="1080" height="1198" viewBox="0 0 1080 1198" fill="none" xmlns="http://www.w3.org/2000/svg">
<path fill-rule="evenodd" clip-rule="evenodd" d="M2269.06 691.963C2289.56 716.397 2314.01 793.935 2342.56 941.223C2415.08 1316.75 2457.07 1799.59 2450.38 2182.03C2447.7 2332.03 2437.05 2412.69 2421.02 2440.13C2405.22 2467.28 2344.91 2512.21 2223.27 2580.93C2098.31 2651.57 1917.73 2738.25 1668.15 2843.81C1405.6 2954.88 1205.54 3029.52 1057.76 3074.66C913.646 3118.77 833.548 3133.58 802.648 3126.89C772.548 3120.38 711.271 3076.86 607.823 2982C501.349 2884.32 363.158 2739.42 186.442 2535.62C-1.0799 2319.28 -133.901 2152.08 -222.218 2026.09C-308.567 1902.76 -347.33 1831.52 -350.549 1800.48C-352.737 1769.33 -326.858 1692.43 -263.015 1556.01C-197.906 1416.71 -95.8868 1229.07 51.4489 983.732C190.459 752.279 301.576 585.823 389.557 471.241C475.026 360.044 527.935 306.515 556.423 294.969C585.772 282.942 667.229 283.741 816.673 302.358C970.191 321.334 1180.07 360.246 1457.78 424.283C1721.9 485.303 1914.6 539.406 2049.91 587.481C2181.69 634.1 2248.74 668.03 2269.06 691.963ZM-638.372 1822.25L-638.039 1825.47C-638.061 1826.51 -637.954 1827.54 -637.834 1828.7C-629.775 1907.68 -575.21 2025.84 -458.9 2192.02C-364.3 2327.12 -225.444 2502.29 -32.4619 2724.84C151.359 2936.89 297.543 3089.81 412.64 3195.32C556.247 3327.16 663.517 3392.34 741.837 3409.35C819.086 3426.07 948.085 3410.75 1141.79 3351.47C1298.79 3303.56 1508.51 3225.44 1780.79 3110.23C2038.23 3001.39 2228.82 2909.5 2365.34 2832.33C2535.69 2736.16 2630.85 2654.42 2670.99 2585.68C2710.67 2517.64 2735.85 2390.04 2739.38 2186.69C2746.44 1781.44 2703.28 1284.78 2626.35 886.801C2587.8 687.039 2540.98 565.731 2490.21 505.506C2438.72 444.703 2330.79 380.64 2146.56 315.372C1998.68 262.872 1795.08 205.342 1522.82 142.432C1234.57 75.9714 1014.62 35.3695 851.734 15.1519C650.592 -9.82315 520.881 -2.62395 447.809 27.2161C373.476 57.4473 279.192 140.133 160.339 294.762C65.3683 418.532 -52.3246 594.393 -196.765 835.002C-348.43 1087.56 -454.991 1284.14 -524.908 1433.56C-610.809 1617.19 -644.112 1743.03 -638.372 1822.25ZM1898.17 1021.41C1911.69 1037.46 1927.8 1088.65 1946.59 1185.78C1994.4 1433.41 2022.1 1752 2017.78 2004.24C2016.06 2103.11 2008.94 2156.32 1998.33 2174.48C1987.94 2192.35 1948.18 2221.99 1867.99 2267.28C1785.47 2313.99 1666.4 2371.12 1501.75 2440.66C1328.63 2513.94 1196.64 2563.17 1099.21 2592.93C1004.19 2622.05 951.303 2631.83 930.927 2627.44C911.079 2623.12 870.602 2594.37 802.4 2531.79C732.193 2467.46 641.036 2371.84 524.364 2237.33C400.73 2094.7 313.141 1984.52 254.914 1901.37C198.048 1820.03 172.336 1772.96 170.341 1752.47C168.862 1731.92 185.867 1681.2 227.974 1591.3C270.91 1499.35 338.15 1375.59 435.432 1213.83C527.153 1061.23 600.384 951.3 658.432 875.756C714.748 802.344 749.631 767.089 768.494 759.405C787.859 751.538 841.558 752.09 940.22 764.385C1041.37 776.812 1179.84 802.557 1362.97 844.762C1537.19 885.028 1664.32 920.8 1753.66 952.42C1840.45 983.262 1884.82 1005.61 1898.17 1021.41ZM-19.5484 1766.95L-19.3347 1769.01C-19.3967 1769.67 -19.3166 1770.44 -19.2498 1771.08C-13.9697 1823.26 22.0991 1901.16 98.6945 2010.79C161.182 2099.87 252.721 2215.5 380.043 2362.31C501.296 2502.07 597.82 2602.99 673.651 2672.6C768.334 2759.52 839.068 2802.57 890.744 2813.75C941.748 2824.74 1026.76 2814.62 1154.6 2775.59C1258.21 2743.88 1396.48 2692.44 1576.08 2616.4C1745.84 2544.64 1871.58 2484.08 1961.73 2433.07C2074.04 2369.74 2136.8 2315.84 2163.34 2270.38C2189.41 2225.49 2206.07 2141.35 2208.32 2007.27C2213.01 1739.88 2184.53 1412.39 2133.87 1149.83C2108.36 1018.11 2077.54 938.109 2044 898.361C2010.02 858.267 1938.86 816.041 1817.34 772.915C1719.75 738.375 1585.48 700.348 1405.94 658.941C1215.87 615.112 1070.77 588.232 963.279 574.9C830.595 558.451 745.022 563.157 696.809 582.868C647.837 602.788 585.667 657.407 507.317 759.403C444.562 841.034 367.011 957.008 271.626 1115.71C171.592 1282.32 101.306 1411.87 55.288 1510.51C-1.42096 1631.61 -23.4116 1714.62 -19.5484 1766.95ZM1645.35 1373.25C1634.07 1314.66 1624.36 1283.77 1616.19 1274.07C1608.05 1264.63 1581.38 1250.99 1528.94 1232.47C1475.14 1213.31 1398.31 1191.85 1293.19 1167.46C1182.61 1141.95 1099.11 1126.52 1038.04 1118.92C978.431 1111.56 945.982 1111.28 934.363 1116C922.989 1120.57 901.894 1141.89 867.946 1186.17C832.843 1231.86 788.679 1298.15 733.385 1390.21C674.645 1487.96 634.08 1562.6 608.188 1618.01C582.704 1672.34 572.468 1702.96 573.363 1715.37C574.517 1727.74 590.083 1756.08 624.475 1805.24C659.489 1855.38 712.346 1921.9 787.026 2008.03C857.409 2089.14 912.476 2146.83 954.781 2185.67C995.935 2223.46 1020.39 2240.85 1032.37 2243.38C1044.77 2246.13 1076.57 2240.23 1133.99 2222.69C1192.79 2204.61 1272.4 2175.01 1376.91 2130.71C1476.32 2088.64 1548.14 2054.24 1597.95 2026.16C1646.41 1998.74 1670.33 1980.77 1676.64 1970.09C1683.04 1959.01 1687.27 1926.93 1688.38 1867.32C1691.07 1714.97 1674.27 1522.84 1645.35 1373.25ZM458.777 1725.29V1725.29C458.737 1724.91 458.697 1724.52 458.772 1723.99C456.415 1692.47 469.712 1642.4 503.929 1569.32C531.739 1509.8 574.146 1431.58 634.551 1331.06C692.061 1235.26 738.827 1165.18 776.688 1115.95C823.949 1054.41 861.547 1021.48 891.154 1009.42C920.26 997.553 971.91 994.672 1051.97 1004.6C1116.85 1012.58 1204.35 1028.9 1319.05 1055.29C1427.5 1080.37 1508.51 1103.22 1567.44 1124.06C1640.71 1150.18 1683.72 1175.67 1704.19 1199.84C1724.38 1223.79 1743.06 1272.11 1758.47 1351.63C1789.08 1510.03 1806.19 1707.72 1803.39 1869.06C1802.03 1950.06 1791.93 2000.84 1776.25 2027.98C1760.21 2055.3 1722.31 2087.87 1654.54 2126.14C1600.18 2156.91 1524.29 2193.42 1421.76 2236.73C1313.37 2282.6 1229.89 2313.78 1167.42 2332.88C1090.31 2356.37 1038.86 2362.49 1008.23 2355.9C976.935 2349.12 934.278 2323.21 877.142 2270.67C831.385 2228.67 773.124 2167.79 699.919 2083.33C623.169 1994.81 567.761 1925.04 530.157 1871.27C483.848 1805.11 462.169 1758.01 458.911 1726.58L458.777 1725.29ZM1406.52 1461.94C1410.69 1466.97 1415.58 1482.74 1421.42 1512.73C1436.25 1589.18 1444.75 1687.51 1443.47 1765.5C1442.86 1796.03 1440.65 1812.41 1437.46 1818.08C1434.24 1823.49 1421.92 1832.71 1397.2 1846.73C1371.74 1861.08 1334.9 1878.71 1284.14 1900.24C1230.63 1922.85 1189.89 1938.01 1159.86 1947.24C1130.45 1956.15 1114.11 1959.27 1107.84 1957.84C1101.71 1956.52 1089.21 1947.67 1068.2 1928.36C1046.47 1908.48 1018.42 1878.97 982.338 1837.4C944.19 1793.44 917.095 1759.41 899.192 1733.66C881.614 1708.53 873.611 1694.13 873.072 1687.68C872.546 1681.35 877.824 1665.7 890.828 1637.92C904.036 1609.6 924.812 1571.38 954.912 1521.39C983.232 1474.32 1005.75 1440.34 1023.77 1416.99C1041.08 1394.37 1051.93 1383.48 1057.68 1381.19C1063.68 1378.74 1080.23 1378.85 1110.69 1382.59C1141.95 1386.51 1184.7 1394.45 1241.25 1407.46C1295.01 1419.86 1334.3 1430.89 1361.87 1440.66C1388.65 1450.25 1402.38 1457.16 1406.52 1461.94ZM814.431 1692.19L814.497 1692.84L814.564 1693.48C816.105 1709.6 827.197 1733.7 850.876 1767.44C870.138 1795 898.451 1830.74 937.777 1876C975.188 1919.13 1004.98 1950.28 1028.43 1971.8C1057.64 1998.59 1079.47 2011.95 1095.44 2015.37C1111.17 2018.82 1137.4 2015.71 1176.89 2003.54C1208.96 1993.84 1251.58 1977.96 1307.08 1954.5C1359.46 1932.27 1398.27 1913.54 1426.07 1897.9C1460.76 1878.29 1480.13 1861.69 1488.31 1847.7C1496.38 1833.84 1501.49 1807.79 1502.28 1766.44C1503.75 1683.87 1494.95 1582.71 1479.26 1501.66C1471.39 1460.94 1461.8 1436.29 1451.55 1424.07C1441.02 1411.62 1419.1 1398.66 1381.52 1385.24C1351.37 1374.56 1309.93 1362.85 1254.57 1350.1C1195.88 1336.52 1151.02 1328.28 1117.91 1324.17C1076.89 1319.05 1050.48 1320.48 1035.62 1326.58C1020.5 1332.7 1001.29 1349.67 977.08 1381.08C957.688 1406.27 933.799 1442.08 904.378 1491.09C873.394 1542.6 851.762 1582.6 837.466 1612.99C820 1650.47 813.276 1676.04 814.431 1692.19Z" fill="url(#paint0_linear_29_33543)"/>
<defs>
<linearGradient id="paint0_linear_29_33543" x1="559.5" y1="1058.5" x2="-943.121" y2="-151.85" gradientUnits="userSpaceOnUse">
<stop stop-color="#0ED7F6"/>
<stop offset="1" stop-color="#0FD8F6" stop-opacity="0"/>
</linearGradient>
</defs>
</svg>
