<svg width="16" height="12" viewBox="0 0 16 12"  xmlns="http://www.w3.org/2000/svg">
<path d="M2.86602 2.98216C3.87802 3.35537 5.63068 3.71334 7.99935 3.71334C10.368 3.71334 12.1207 3.35537 13.1327 2.98216C13.1327 2.84506 11.094 2.19005 7.99935 2.19005C4.90468 2.19005 2.86602 2.84506 2.86602 2.98216ZM9.46601 8.28324H6.53268C6.12935 8.28324 5.79935 8.62598 5.79935 9.04488V12.0001C2.82202 11.703 0.666016 10.8271 0.666016 9.80653V2.95169C0.666016 1.68736 3.95135 0.666748 7.99935 0.666748C12.0473 0.666748 15.3327 1.68736 15.3327 2.95169V9.80653C15.3327 10.8271 13.1767 11.6954 10.1993 11.9925V9.04488C10.1993 8.62598 9.86935 8.28324 9.46601 8.28324Z"/>
</svg>
