<svg width="75" height="37" viewBox="0 0 75 37" xmlns="http://www.w3.org/2000/svg">
<path d="M51.8606 7.24064C51.8606 15.911 51.8606 25.7537 51.8606 34.4241C51.8606 35.6509 52.2908 36.2859 53.7638 36.2859H74.5614L70.911 29.0152L59.1275 29.0133V0.00375747L31.7262 0C30.6873 0 30.0034 0.503501 30.0034 1.70213V20.0912L20.7751 1.70965C19.6328 -0.565499 18.4868 -0.561742 17.3388 1.72468L10.9399 14.4944H11.7985H19.0654L22.7064 21.7482H7.29701L0 36.2859H8.12929L11.7834 29.0058H18.7235H26.3493L30.0034 36.2859H37.2816V36.269V21.7482H48.1013L44.4584 14.4944H37.2722L37.2816 7.24064H51.8606Z" />
</svg>
