<svg width="24" height="24" viewBox="0 0 24 24"  xmlns="http://www.w3.org/2000/svg">
<path d="M16.6276 11.8613C16.1907 11.7994 15.8026 12.1482 15.4613 12.3675C14.7245 12.8382 14.0738 13.3838 13.4457 13.9988C13.0576 14.3794 12.5326 14.8857 12.3938 15.4332C12.3301 15.6863 12.4088 15.9769 12.4595 16.2244C12.5476 16.6557 12.6826 17.0757 12.8176 17.4938C12.9701 17.9637 13.1466 18.4256 13.3463 18.8775C13.4457 19.1044 13.5545 19.3294 13.6613 19.5544C13.7607 19.7644 13.8263 19.8882 14.0701 19.92C14.3438 19.9557 14.6176 19.9144 14.8895 19.9032C15.2907 19.8882 15.692 19.8488 16.0876 19.7813C16.6107 19.6932 17.1376 19.5975 17.6382 19.4194C18.1013 19.2525 18.632 18.9938 18.9001 18.5682C19.4757 17.6532 19.8245 16.6144 20.0157 15.555C20.072 15.2494 20.1263 14.9382 20.1245 14.625C20.1263 14.3494 20.1507 14.0663 19.952 13.8544C19.5957 13.4719 19.1738 13.155 18.737 12.8681C18.0901 12.4481 17.4132 11.9738 16.6276 11.8613ZM3.9057 7.44002C3.49883 7.65565 3.18008 8.1694 2.94195 8.54628C2.4657 9.29628 2.08133 10.1625 1.90133 11.0344C1.76445 11.7019 2.06258 12.3525 2.2857 12.9694C2.5032 13.5638 2.88195 14.0344 3.29633 14.5013C3.40133 14.6213 3.53445 14.7113 3.63945 14.8294C3.75945 14.9625 3.91133 15.0882 4.06883 15.1763C4.18133 15.24 4.28258 15.1538 4.39695 15.1275C4.69883 15.0544 4.92383 14.9007 5.19758 14.7563C5.4432 14.625 5.69633 14.5144 5.94383 14.3832C6.47445 14.0982 7.10633 13.8638 7.56945 13.4719C7.62945 13.4213 7.7082 13.3575 7.72508 13.2769C7.7682 13.0763 7.7082 12.8157 7.69883 12.6113C7.68758 12.3244 7.68383 12.0394 7.68195 11.7525C7.68008 11.1038 7.70445 10.455 7.70445 9.80627C7.71008 9.4444 7.75508 9.0844 7.7382 8.72252C7.7082 8.1844 7.12695 7.99315 6.69008 7.8844C6.07695 7.73252 5.46008 7.5244 4.83383 7.44753C4.57508 7.4194 4.14758 7.31252 3.9057 7.44002ZM19.8226 5.8219C19.8807 5.41502 19.6088 4.92565 19.412 4.5619C19.022 3.83627 18.4632 3.12377 17.7657 2.55752C17.2332 2.1244 16.4495 1.94815 15.7201 1.87502C14.4132 1.7419 13.4157 1.82252 13.1401 1.86565C12.8626 1.90877 12.602 1.99315 12.4538 2.1769C12.1613 2.53315 12.1107 3.04315 12.0488 3.4819C11.9588 4.10815 11.8801 4.75315 11.9626 5.38315C11.9757 5.49565 11.9926 5.64377 12.047 5.74315C12.1501 5.9269 12.3676 6.01877 12.5832 6.1144C13.7007 6.60752 15.8326 7.82815 16.1795 7.99315C16.697 8.24252 17.2482 7.91065 17.6307 7.64252C18.1613 7.2694 18.752 6.91878 19.2207 6.4969C19.4138 6.3244 19.787 6.0619 19.8226 5.8219ZM3.7707 19.77C3.8157 19.8394 3.85883 19.8919 3.9282 19.9444C4.03883 20.0288 4.14383 20.115 4.24883 20.2069C5.1657 21.0113 6.24008 21.6169 7.30508 22.1982C7.6257 22.3744 7.93133 22.5544 8.25758 22.7175C8.61008 22.8919 8.97383 23.01 9.35258 23.115C9.60945 23.1863 9.87008 23.2557 10.1363 23.2819C10.3838 23.3063 10.637 23.3644 10.8863 23.3682C11.0288 23.37 11.1601 23.3644 11.2988 23.3457C11.2313 23.2369 11.1713 23.0982 11.1132 22.9819C11.0213 22.8 10.9276 22.6163 10.8338 22.4363C10.7251 22.2282 10.6407 22.0107 10.5301 21.8044C10.4438 21.6469 10.3313 21.4838 10.1757 21.3919C9.96758 21.2682 9.76883 21.1463 9.54195 21.0544C8.7132 20.7169 7.9707 20.2407 7.20008 19.7944C6.81008 19.5675 6.42758 19.3257 6.06008 19.0613C5.8632 18.9207 5.67195 18.7744 5.46383 18.6488C5.4207 18.6207 5.37758 18.5869 5.32695 18.5794C5.28195 18.5719 5.21258 18.5738 5.16758 18.5794C5.12633 18.585 5.07758 18.5925 5.0382 18.6C4.7682 18.6563 4.4757 18.7275 4.19633 18.7894C3.93008 18.8494 3.63195 18.87 3.37695 18.9675C3.27758 19.005 3.28883 19.0613 3.3282 19.1475C3.3882 19.2825 3.47633 19.4063 3.5682 19.5188C3.63008 19.5994 3.70695 19.6744 3.7707 19.77Z"/>
<path d="M7.01449 9.06032C6.95099 9.06036 6.88878 9.04245 6.83504 9.00864C6.7813 8.97483 6.73821 8.92651 6.71076 8.86926C6.68331 8.81201 6.67262 8.74816 6.67991 8.68509C6.68721 8.62202 6.71219 8.56229 6.75199 8.51282C6.84386 8.40032 9.00761 5.74907 12.8776 5.14907C12.9212 5.14242 12.9657 5.14442 13.0085 5.15496C13.0513 5.16549 13.0916 5.18436 13.1271 5.21047C13.1626 5.23659 13.1927 5.26945 13.2155 5.30717C13.2383 5.34489 13.2535 5.38674 13.2601 5.43032C13.2668 5.4739 13.2648 5.51837 13.2542 5.56117C13.2437 5.60398 13.2248 5.6443 13.1987 5.67982C13.1726 5.71534 13.1397 5.74536 13.102 5.76818C13.0643 5.791 13.0224 5.80617 12.9789 5.81282C9.37699 6.37344 7.29574 8.91032 7.27511 8.93469C7.20761 9.01719 7.11199 9.06032 7.01449 9.06032ZM6.21574 20.8316C6.11824 20.8316 6.02074 20.7903 5.95511 20.7078C5.86324 20.5953 3.73136 17.9178 3.96199 14.0103C3.97324 13.8247 4.13074 13.6822 4.31636 13.6934C4.50199 13.7047 4.64261 13.8641 4.63136 14.0497C4.41761 17.7003 6.45574 20.2597 6.47636 20.2841C6.59449 20.4284 6.57011 20.6403 6.42761 20.7566C6.36574 20.8053 6.29074 20.8316 6.21574 20.8316ZM8.75074 22.1516C8.57824 22.1516 8.43199 22.0203 8.41699 21.8441C8.40199 21.6584 8.53886 21.4953 8.72449 21.4803C8.75636 21.4784 12.0226 21.1709 14.5014 18.4972C14.5624 18.4319 14.6467 18.3935 14.736 18.3903C14.8253 18.3872 14.9122 18.4195 14.9776 18.4803C15.1145 18.6059 15.122 18.8197 14.9945 18.9566C12.332 21.8253 8.92324 22.1384 8.78074 22.1516C8.76949 22.1497 8.76011 22.1516 8.75074 22.1516ZM4.08011 8.65719C3.92261 8.65719 3.78199 8.54657 3.75199 8.38532C3.73324 8.29157 3.30949 6.06969 4.22261 3.43719C4.28449 3.26094 4.47386 3.16719 4.65011 3.22907C4.82449 3.29094 4.91824 3.48032 4.85824 3.65657C4.00324 6.12032 4.40636 8.23344 4.41199 8.25594C4.44761 8.43782 4.32949 8.61594 4.14574 8.65157C4.12511 8.65532 4.10261 8.65719 4.08011 8.65719ZM13.8507 3.14282C13.7814 3.14282 13.7101 3.12032 13.652 3.07532C13.6351 3.06407 11.8857 1.79469 9.30386 1.51157C9.12011 1.49282 8.98511 1.32594 9.00574 1.14219C9.02449 0.956567 9.19136 0.825317 9.37511 0.844067C12.1464 1.14594 13.9726 2.47719 14.0495 2.53344C14.1976 2.64407 14.2295 2.85407 14.1189 3.00407C14.0551 3.09594 13.9539 3.14282 13.8507 3.14282ZM22.337 8.61219C22.2395 8.61219 22.142 8.56907 22.0745 8.48657C20.4357 6.45969 18.4295 5.68157 18.4107 5.67407C18.3273 5.64254 18.2598 5.57929 18.2229 5.49813C18.186 5.41697 18.1828 5.3245 18.2139 5.24094C18.2795 5.06657 18.4745 4.98032 18.647 5.04407C18.737 5.07782 20.8445 5.89532 22.5957 8.06282C22.7139 8.20719 22.6895 8.41907 22.5451 8.53532C22.4851 8.58782 22.4101 8.61219 22.337 8.61219ZM16.4026 13.1572C16.3895 13.1572 16.3726 13.1553 16.3595 13.1534C16.3157 13.1478 16.2735 13.1336 16.2353 13.1115C16.197 13.0895 16.1635 13.0602 16.1367 13.0251C16.1098 12.9901 16.0902 12.9501 16.0789 12.9074C16.0675 12.8648 16.0648 12.8203 16.0707 12.7766C16.5001 9.56282 16.0782 7.18907 16.0726 7.16469C16.0389 6.98282 16.1589 6.80657 16.3426 6.77469C16.5264 6.73907 16.7007 6.86282 16.7345 7.04469C16.7514 7.14594 17.1807 9.54782 16.7364 12.8666C16.7139 13.0353 16.5695 13.1572 16.4026 13.1572ZM13.4851 15.9022C13.4739 15.9022 13.4664 15.9022 13.4551 15.9003C9.27761 15.5309 6.52886 13.1741 6.41261 13.0747C6.34551 13.0161 6.30431 12.9333 6.29799 12.8445C6.29167 12.7556 6.32074 12.6678 6.37886 12.6003C6.50074 12.4597 6.71261 12.4447 6.85324 12.5666C6.88136 12.5891 9.56261 14.8822 13.5151 15.2309C13.6011 15.2391 13.6806 15.2799 13.7372 15.3451C13.7939 15.4102 13.8233 15.4946 13.8195 15.5808C13.8156 15.6671 13.7788 15.7485 13.7165 15.8083C13.6543 15.8682 13.5714 15.9018 13.4851 15.9022ZM1.48699 12.0491C1.20386 12.0491 0.894486 12.0134 0.605736 11.9028C0.522343 11.8713 0.454821 11.808 0.41793 11.7269C0.381039 11.6457 0.377778 11.5533 0.408861 11.4697C0.476361 11.2972 0.667611 11.2091 0.843861 11.2728C1.46261 11.5091 2.28949 11.2672 2.29886 11.2653C2.47511 11.2128 2.66261 11.3122 2.71511 11.4922C2.76949 11.6684 2.66824 11.8559 2.49199 11.9103C2.46386 11.9178 2.02136 12.0491 1.48699 12.0491ZM19.8132 14.9178C19.6857 14.9178 19.5657 14.8447 19.5095 14.7228C19.4307 14.5559 19.5057 14.3553 19.6726 14.2766C19.6914 14.2672 21.6451 13.3428 23.132 11.2128C23.237 11.0591 23.447 11.0216 23.5989 11.1284C23.7507 11.2353 23.7882 11.4434 23.6832 11.5953C22.0895 13.8809 20.042 14.8447 19.9557 14.8859C19.907 14.9066 19.8601 14.9178 19.8132 14.9178ZM19.8132 20.5934C19.7382 20.5934 19.6632 20.5691 19.5995 20.5203C18.8307 19.9147 18.0864 18.8141 18.0545 18.7691C17.9495 18.6116 17.9907 18.3978 18.1482 18.2909C18.3039 18.1859 18.5195 18.2272 18.6245 18.3866C18.632 18.3959 19.3407 19.4422 20.0251 19.9803C20.1732 20.0984 20.1995 20.3141 20.0832 20.4641C20.0139 20.5466 19.9145 20.5934 19.8132 20.5934Z"/>
<path d="M12.0002 23.9477C5.41149 23.9477 0.0527344 18.589 0.0527344 12.0002C0.0527344 5.41336 5.41149 0.0527344 12.0002 0.0527344C18.589 0.0527344 23.9477 5.41336 23.9477 11.9984C23.9477 18.589 18.5871 23.9477 12.0002 23.9477ZM12.0002 1.39711C6.15399 1.39711 1.39711 6.15399 1.39711 12.0002C1.39711 17.8465 6.15211 22.6034 11.9984 22.6034C17.8446 22.6034 22.6015 17.8465 22.6015 12.0002C22.6034 6.15399 17.8446 1.39711 12.0002 1.39711Z" />
</svg>
