<svg width="221" height="218" viewBox="0 0 221 218" fill="#0481FE" xmlns="http://www.w3.org/2000/svg">
<path clip-rule="evenodd" d="M42.7194 8.845C51.1889 2.87806 81.5897 -0.07625 111.058 0.00149514C140.429 0.0792403 170.403 3.18904 178.581 9.31147C186.817 15.4922 199.016
 43.5388 208.069 71.6436C217.082 99.6319 223.415 129.136 220.112 138.777C216.791
 148.495 194.354 168.456 170.791 185.579C147.228 202.702 121.334 217.863 111.077 217.999C100.821
 218.154 74.7519 203.033 50.9558 185.812C27.0819 168.514 4.21822 148.242 0.896468 138.446C-2.42528 128.747 3.90741 99.2626
 12.9208 71.2938C21.9731 43.2278 34.1722 15.2201 42.4669 9.01993L42.7194 8.845ZM176.18 12.5108C174.784 11.4672
 172.01 10.2805 167.7 9.15509C163.505 8.05982 158.257 7.12137 152.261 6.35766C140.28 4.83139 125.616 4.04004
  111.047 4.00148C96.4313 3.96292 81.6316 4.67736 69.4887 6.12824C63.4131 6.85418 58.0739 7.75622 53.788 8.81767C49.3871
   9.90759 46.5053 11.0707 45.0232 12.115L45.0102 12.1241L44.8106 12.2624C43.3653 13.3633 41.388 15.7306 39.0193
   19.5338C36.6853 23.2812 34.1773 28.0806 31.6086 33.6359C25.7989 46.2005 21.0137 59.2504 16.765 72.4171C12.5276 85.5489
    8.78935 98.9034 6.21269 112.468C5.08393 118.41 4.35336 123.696 4.09956 128.029C3.83857 132.484 4.11384 135.495
     4.68067 137.15L4.68462 137.162C5.26448 138.872 6.90648 141.503 9.82387 144.973C12.6644 148.351 16.4519 152.221
     20.9393 156.383C29.9072 164.701 41.4588 173.991 53.3008 182.572C65.1037 191.113 77.4274 199.102 88.0186
     204.915C93.3182 207.824 98.1177 210.151 102.159 211.732C106.315 213.356 109.264 214.026 111.017 213.999L111.024
     213.999C112.816 213.975 115.787 213.242 119.926 211.574C123.958 209.949 128.735 207.59 134.001 204.663C144.526
     198.813 156.752 190.837 168.44 182.343C180.127 173.85 191.495 164.681 200.318 156.472C204.732 152.365 208.457 148.547
     211.253 145.212C214.123 141.788 215.746 139.184 216.327 137.483L216.328 137.48C216.889 135.843 217.162 132.845 216.898
      128.392C216.642 124.065 215.909 118.78 214.779 112.838C212.521 100.961 208.732 86.7529 204.261 72.8699C199.771 58.9287
      194.514 45.0475 189.387 33.9314C186.821 28.3694 184.318 23.5649 181.991 19.8151C179.601 15.963 177.615 13.5878 176.18
       12.5108Z" />
</svg>
