<?xml version="1.0" encoding="UTF-8" standalone="no"?>
<svg
  xmlns="http://www.w3.org/2000/svg"
  version="1.1"
  id="svg890"
  width="887.46667"
  height="868.26666"
  viewBox="0 0 887.46667 868.26666">
  <path
    id="path928"
    d="M 430.87718,866.88988 C 371.91351,848.947 323.67636,807.33348 273.16008,773.43412 186.55976,708.27754 96.050932,646.36836 21.287827,567.30732 -15.872017,534.34498 6.56736,482.09471 13.774242,441.30131 46.36913,315.51043 83.287954,189.46159 141.41214,72.806844 157.32777,26.654778 204.29826,8.3889953 249.6351,8.3404981 387.47539,-3.443211 526.93185,-4.3828223 664.43756,11.897056 c 45.92696,-0.08948 72.96641,40.393621 88.77978,78.139249 54.87161,117.857365 92.33913,243.318225 123.00918,369.423865 10.53321,40.16714 18.73317,90.3396 -21.01662,118.03343 -82.88458,82.66218 -179.92439,149.47159 -274.19675,218.36581 -42.7936,26.71127 -83.23778,63.76046 -134.51063,71.97567 -5.22287,0.29542 -10.47192,-0.0719 -15.62534,-0.9452 z m 37.9448,-44.44714 C 574.42492,763.12022 668.869,686.08637 763.62133,611.14421 791.54917,583.72234 831.59737,561.52749 845.54845,523.65126 844.71197,459.09946 820.52112,397.57781 804.27141,335.73656 773.83893,241.95963 746.41148,144.97115 693.36474,60.996684 650.45469,36.551976 596.06941,45.810159 548.16468,40.577892 436.80469,40.6474 324.57376,34.787881 213.97663,50.331415 167.78355,68.939707 160.50771,130.08974 138.32648,169.97725 98.220745,275.73762 63.266393,384.01416 41.017063,495.00208 c -6.65902,26.67365 5.189717,51.43859 26.716392,67.6491 91.379125,83.97672 192.156395,157.40633 294.456125,227.44091 29.70486,15.98425 61.56901,48.43139 97.65927,36.74725 2.99105,-1.46553 5.98209,-2.93107 8.97313,-4.3966 z" />
</svg>
