<svg xmlns="http://www.w3.org/2000/svg" width="980" height="678">
    <path d="M229.86648813400708,3.608380271478928 H749.7712710467247 L972.942635796065,669.1133289483732 H9.180327891897567 L229.86648813400708,3.608380271478928 z" fill="#001134"/>
    <path fill-rule="evenodd" clip-rule="evenodd" d="M293.958 668.357C294.223 665.236 294.913 661.334 295.444 657.823L317.468 491.11H490H662.532L684.556 657.823C685.087 661.334 685.777 665.236 686.042 668.357C620.394 668.357 555.171 668.19 490 668.079C424.829 668.19 359.606 668.357 293.958 668.357ZM490 483.474C415.807 483.529 311.789 483.251 311.736 483.251L285.891 668.357H10.9325L41.8726 574.828C47.5512 558.887 53.7074 536.648 59.492 520.985C81.5694 453.932 103.647 386.879 125.671 319.77C128.537 310.741 131.668 302.101 134.587 292.96C135.914 288.724 151.941 241.57 152.153 239.061H360.561L359.977 249.93C359.977 321.777 425.148 365.977 490 367.204C554.852 365.977 620.023 321.777 620.023 249.93L619.439 239.061H827.847C828.059 241.57 844.086 288.724 845.413 292.96C848.332 302.101 851.463 310.741 854.329 319.77C876.353 386.879 898.431 453.932 920.508 520.985C926.293 536.648 932.449 558.887 938.127 574.828L969.068 668.357H694.109L668.264 483.251C668.211 483.251 564.193 483.529 490 483.474ZM490 360.794C470.152 360.571 456.884 358.676 437.938 350.705C397.87 333.761 365.709 295.468 365.709 248.704C365.709 244.802 366.293 243.297 366.293 239.061H490H613.707C613.707 243.297 614.291 244.802 614.291 248.704C614.291 295.468 582.13 333.761 542.062 350.705C523.116 358.676 509.848 360.571 490 360.794ZM490 234.212H366.876C370.91 215.874 371.44 211.527 381.524 194.192C402.115 158.798 446.907 136.559 486.285 136.559C487.506 136.559 488.779 136.559 490 136.614C491.221 136.559 492.494 136.559 493.715 136.559C533.093 136.559 577.885 158.798 598.476 194.192C608.56 211.527 609.09 215.874 613.124 234.212H490ZM490 132.378C470.788 132.601 456.831 134.385 438.84 141.631C395.322 159.188 371.547 187.336 361.145 234.212H153.851L163.404 205.674C166.588 195.585 169.879 186.612 173.063 176.579C189.621 124.241 208.726 70.2302 225.284 18.0035L230.22 3.28856H378.923L369.636 67.8334C369.371 69.9515 368.893 70.8433 370.857 70.8433H490H609.143C611.107 70.8433 610.629 69.9515 610.364 67.8334L601.077 3.28856H749.78L754.716 18.0035C771.274 70.2302 790.379 124.241 806.937 176.579C810.121 186.612 813.412 195.585 816.596 205.674L826.149 234.212H618.855C608.453 187.336 584.678 159.188 541.16 141.631C523.169 134.385 509.212 132.601 490 132.378ZM490 66.6072H374.89C374.89 64.2662 375.421 61.5908 375.792 59.1383L381.046 19.3969C381.736 14.269 382.957 8.47221 382.957 3.28856H490H597.043C597.043 8.47221 598.264 14.269 598.954 19.3969L604.208 59.1383C604.579 61.5908 605.11 64.2662 605.11 66.6072H490ZM490 0C402.274 0.167215 314.496 0.278691 226.77 0.278691L223.268 10.4788C213.662 41.1348 201.243 74.3548 191.425 105.457L180.758 137.116C179.591 140.572 178.635 144.195 177.255 147.818C174.549 155.008 172.798 162.143 170.144 169.277L127.369 296.249C123.389 307.954 117.02 328.8 113.306 338.721C106.619 356.446 98.9234 383.702 92.1304 402.096C89.4769 409.342 87.4602 416.643 85.072 423.666C56.6262 508.389 28.3397 593.166 0 678H490H980C951.66 593.166 923.374 508.389 894.928 423.666C892.54 416.643 890.523 409.342 887.87 402.096C881.077 383.702 873.381 356.446 866.694 338.721C862.98 328.8 856.611 307.954 852.631 296.249L809.856 169.277C807.202 162.143 805.451 155.008 802.745 147.818C801.365 144.195 800.409 140.572 799.242 137.116L788.575 105.457C778.757 74.3548 766.338 41.1348 756.732 10.4788L753.23 0.278691C665.504 0.278691 577.726 0.167215 490 0Z" fill="#0481FE"/>
</svg>
