<svg width="48" height="36" viewBox="0 0 48 36" xmlns="http://www.w3.org/2000/svg">
<path d="M44.736 7.104C41.344 7.104 38.88 7.776 37.344 9.12C35.808 10.464 34.784 12.16 34.272 14.208C35.488 13.696 36.832 13.44 38.304 13.44C41.504 13.44 43.744 14.336 45.024 16.128C46.368 17.92 47.04 20.064 47.04 22.56V26.592C47.04 27.872 46.88 29.056 46.56 30.144C46.24 31.232 45.696 32.192 44.928 33.024C44.16 33.856 43.104 34.528 41.76 35.04C40.48 35.488 38.848 35.712 36.864 35.712H36.096C34.112 35.712 32.448 35.488 31.104 35.04C29.824 34.528 28.8 33.888 28.032 33.12C27.264 32.288 26.72 31.328 26.4 30.24C26.08 29.088 25.92 27.872 25.92 26.592V22.56C25.92 19.616 26.112 16.8 26.496 14.112C26.88 11.36 27.712 8.96 28.992 6.912C30.272 4.8 32.16 3.136 34.656 1.92C37.152 0.639999 40.512 0 44.736 0V7.104ZM18.816 7.104C15.424 7.104 12.96 7.776 11.424 9.12C9.888 10.464 8.864 12.16 8.352 14.208C9.568 13.696 10.912 13.44 12.384 13.44C15.584 13.44 17.824 14.336 19.104 16.128C20.448 17.92 21.12 20.064 21.12 22.56V26.592C21.12 27.872 20.96 29.056 20.64 30.144C20.32 31.232 19.776 32.192 19.008 33.024C18.24 33.856 17.184 34.528 15.84 35.04C14.56 35.488 12.928 35.712 10.944 35.712H10.176C8.192 35.712 6.528 35.488 5.184 35.04C3.904 34.528 2.88 33.888 2.112 33.12C1.344 32.288 0.8 31.328 0.48 30.24C0.16 29.088 0 27.872 0 26.592V22.56C0 19.616 0.192 16.8 0.576 14.112C0.96 11.36 1.792 8.96 3.072 6.912C4.352 4.8 6.24 3.136 8.736 1.92C11.232 0.639999 14.592 0 18.816 0V7.104Z" />
</svg>
