<svg width="22" height="24" viewBox="0 0 22 24" xmlns="http://www.w3.org/2000/svg">
<path fill-rule="evenodd" clip-rule="evenodd" d="M7.80097 0.8C7.80097 0.587827 7.88526 0.384344 8.03529 0.234315C8.18532 0.0842855 8.3888 0 8.60097 0L13.401 0C13.6131 0 13.8166 0.0842855 13.9667 0.234315C14.1167 0.384344 14.201 0.587827 14.201 0.8C14.201 1.01217 14.1167 1.21566 13.9667 1.36569C13.8166 1.51571 13.6131 1.6 13.401 1.6H11.801V3.392C13.508 3.52273 15.1545 4.08184 16.5882 5.0176C16.62 4.97324 16.6553 4.93151 16.6938 4.8928L18.2938 3.2928C18.3866 3.19993 18.4969 3.12626 18.6182 3.076C18.7396 3.02574 18.8696 2.99987 19.001 2.99987C19.1323 2.99987 19.2624 3.02574 19.3837 3.076C19.505 3.12626 19.6153 3.19993 19.7082 3.2928C19.801 3.38567 19.8747 3.49592 19.925 3.61727C19.9752 3.73861 20.0011 3.86866 20.0011 4C20.0011 4.13134 19.9752 4.26139 19.925 4.38273C19.8747 4.50408 19.801 4.61433 19.7082 4.7072L18.1482 6.2672C19.8239 7.90096 20.8894 10.0594 21.1673 12.3832C21.4452 14.707 20.9188 17.0558 19.6756 19.0387C18.4324 21.0215 16.5475 22.5187 14.3348 23.2809C12.122 24.0431 9.71494 24.0244 7.51435 23.2278C5.31375 22.4312 3.45242 20.9048 2.24028 18.9028C1.02813 16.9009 0.538331 14.5441 0.852422 12.2249C1.16651 9.90574 2.26554 7.76414 3.96652 6.1567C5.66749 4.54925 7.86776 3.57297 10.201 3.3904V1.6H8.60097C8.3888 1.6 8.18532 1.51571 8.03529 1.36569C7.88526 1.21566 7.80097 1.01217 7.80097 0.8ZM2.36097 13.6C2.36097 11.3085 3.27125 9.11091 4.89157 7.4906C6.51188 5.87028 8.7095 4.96 11.001 4.96C13.2924 4.96 15.4901 5.87028 17.1104 7.4906C18.7307 9.11091 19.641 11.3085 19.641 13.6C19.641 15.8915 18.7307 18.0891 17.1104 19.7094C15.4901 21.3297 13.2924 22.24 11.001 22.24C8.7095 22.24 6.51188 21.3297 4.89157 19.7094C3.27125 18.0891 2.36097 15.8915 2.36097 13.6ZM11.001 13.6V6.56C9.84317 6.55986 8.70321 6.84527 7.68207 7.39095C6.66094 7.93664 5.79014 8.72575 5.14684 9.68837C4.50353 10.651 4.10757 11.7574 3.99404 12.9096C3.8805 14.0619 4.0529 15.2243 4.49595 16.294C4.939 17.3636 5.63903 18.3075 6.53402 19.042C7.42902 19.7765 8.49135 20.2789 9.62691 20.5048C10.7625 20.7306 11.9362 20.6729 13.0441 20.3367C14.152 20.0006 15.16 19.3964 15.9786 18.5776L11.001 13.6Z" />
</svg>
