<svg width="892" height="541" viewBox="0 0 892 541" fill="#323232" xmlns="http://www.w3.org/2000/svg">
<path fill-rule="evenodd" clip-rule="evenodd" d="M1326.98 309.436C1154.97 155.593 971.329 16.8492 907.28 11.1655C842.019 5.35592 634.278 103.72 435.703 218.696C237.135 333.608 48.2965 464.676 20.8476 524.21C-6.09295 582.572 22.6622 810.861 70.3641 1036.67C118.404 1264.19 185.534 1488.48 234.101 1533.41C281.314 1577.11 507.289 1620.29 736.825 1644.71C967.891 1669.28 1201.78 1674.75 1259.71 1642.55C1316.4 1608.6 1428.31 1402.91 1522.19 1190.19C1615.33 979.005 1690.5 761.506 1676.12 698.854C1661.35 634.421 1500.36 464.451 1326.98 309.436ZM908.251 0.568257C974.653 6.56071 1160.62 146.449 1334.05 301.535C1508.73 457.715 1671.24 629.841 1686.49 696.514C1701.33 761.471 1625.76 981.57 1531.86 1194.48C1437.3 1408.81 1323.76 1616.52 1265.14 1651.68L1265.01 1651.73C1205.34 1685.11 968.648 1679.99 735.669 1655.22C504.284 1630.62 275.831 1586.47 226.908 1541.24C176.695 1494.78 108.458 1268.12 60.0163 1038.88C11.9259 811.229 -16.7424 580.241 11.1949 519.727C39.6274 458.169 230.265 325.29 430.405 209.51C630.489 93.6594 840.752 -5.40925 908.251 0.568257ZM896.751 118.149C951.345 123.044 1111.45 244.458 1262.18 379.27C1414.09 515.106 1555.04 663.339 1567.63 718.394C1579.87 771.866 1513.89 961.641 1432.3 1146.64C1350.04 1333.05 1252.61 1512.92 1204.09 1541.97C1154.21 1569.34 950.188 1564.2 747.998 1542.69C546.956 1521.3 349.501 1483.98 309.229 1446.67C267.718 1408.27 209.385 1212.22 167.317 1012.84C125.53 815.098 100.02 615.759 123.043 565.948C146.498 515.087 311.616 400.826 485.63 300.184C659.587 199.473 840.94 113.191 896.751 118.149ZM1279.83 359.449C1125.69 221.575 959.575 97.1532 899.11 91.7126C837.681 86.2365 650.218 174.268 472.355 277.216C294.498 380.101 124.727 498.842 98.9305 554.873C73.4951 609.912 98.6353 815.914 141.419 1018.34C184.453 1222.07 245.595 1423.95 291.226 1466.13C335.788 1507.43 539.44 1547.13 745.073 1569C952.172 1591.02 1163.06 1595.2 1217.31 1564.87L1217.65 1564.71C1270.98 1532.74 1372.48 1347.81 1456.51 1157.34C1540.03 968.093 1607.01 771.72 1593.44 712.503C1579.56 651.9 1435.04 498.27 1279.83 359.449ZM1194.39 447.504C1066.72 333.324 931.489 230.476 886.027 226.4C839.474 222.276 686.23 295.428 538.814 380.722C391.398 466.016 251.651 562.482 232.107 604.856C212.91 646.364 234.729 814.836 270.048 982.39C305.745 1151.27 354.842 1317.1 389.47 1349.18C423.049 1380.19 589.999 1411.51 760.317 1429.64C931.463 1447.86 1103.9 1452.43 1145.64 1429.69C1186.11 1405.47 1268.29 1253.28 1337.99 1095.28C1407.11 938.631 1463.14 778.242 1452.93 733.745C1442.43 687.8 1323.06 562.624 1194.39 447.504ZM888.864 194.73C941.353 199.406 1083.75 305.834 1215.54 423.729C1348.22 542.424 1471.89 674.103 1483.9 726.649C1495.7 778.014 1438.46 946.333 1367.08 1108.16C1295.19 1271.02 1208.19 1429.29 1161.94 1456.97L1161.53 1457.19C1114.46 1483.49 933.854 1480.08 756.842 1461.25C580.977 1442.53 406.594 1408.32 367.905 1372.53C328.389 1336.01 275.836 1163.12 239.018 988.9C202.463 815.868 181.089 639.386 203.136 591.536C225.574 543.018 370.839 441.196 522.858 353.158C674.933 265.19 835.61 189.973 888.864 194.73ZM871.733 370.887C904.424 373.83 1007.8 453.263 1106.51 541.558C1206.12 630.589 1298.19 726.378 1305.83 759.587C1313.14 791.603 1269.58 914.426 1216.14 1035.58C1162.2 1157.84 1099.57 1275.01 1070.3 1292.53C1039.29 1308.77 907.475 1304.62 775.527 1290.6C643.835 1276.6 515.635 1253.17 491.462 1230.88C466.363 1207.58 429.208 1080.05 401.594 949.39C374.243 819.913 356.976 690.775 370.777 660.887C384.926 630.133 492.579 556.628 606.607 490.617C720.636 424.606 838.079 367.908 871.733 370.887ZM1141.82 501.916C1036.2 407.491 920.949 322.055 876.443 318.079C831.548 314.126 701.762 374.247 580.056 444.682C458.216 515.166 341.434 597.776 322.558 638.673C303.863 679.073 320.518 821.553 349.868 960.324C379.336 1099.82 422.239 1239.03 455.519 1269.81C488.208 1300.08 628.866 1328.28 769.733 1343.29C911.493 1358.4 1057.12 1360.5 1096.8 1338.33L1097.41 1338.01C1136.38 1314.66 1207.08 1187.38 1264.63 1056.98C1321.79 927.323 1367.43 791.311 1357.45 747.805C1347.29 703.506 1248.02 596.917 1141.82 501.916ZM853.652 553.712C870.829 555.238 934.583 605.359 997.089 661.28C1060.37 717.86 1118.41 776.991 1122.49 794.815C1126.35 811.649 1098.41 887.759 1064.53 964.477C1030.31 1042.06 992.068 1115.56 976.265 1125C958.316 1133.38 876.96 1129.9 794.094 1121.1C710.653 1112.24 630.682 1098.53 617.982 1086.77C604.399 1074.21 582.072 994.424 564.507 911.591C547.239 829.627 535.591 749.406 542.91 733.539C550.486 717.054 618.07 671.935 690.407 630.08C762.75 588.162 835.582 552.094 853.652 553.712ZM1046.6 605.842C974.366 541.241 893.952 482.753 860.234 479.767C826.523 476.718 736.369 517.625 653.197 565.766C570.025 613.907 489.585 671.741 475.372 702.488C461.249 732.987 471.985 831.931 492.036 926.816C512.174 1022.1 542.662 1118.26 567.59 1141.34C592.347 1164.21 689.668 1184.63 786.045 1194.89C882.74 1205.19 983.529 1205.86 1013.36 1189.17L1014.25 1188.68C1043.59 1171.17 1093.17 1083.45 1132.44 994.471C1171.55 905.794 1202.38 811.23 1194.78 778.282C1187.21 745.016 1119.07 670.723 1046.6 605.842Z"/>
</svg>
