<svg width="975" height="674" viewBox="0 0 975 674" fill="#001134" xmlns="http://www.w3.org/2000/svg">
<path fill-rule="evenodd" clip-rule="evenodd" d="M-653.608 674.052C-693.461 901.36 -714.356 1130.57 -685.371 1187.97C-655.854 1246.46 -462.647 1370.97 -260.17 1478.92C-57.7499 1586.91 153.254 1678.1 218.307 1669.98C282.096 1662.05 460.805 1517.12 627.405 1357.4C795.28 1196.49 950.328 1021.08 962.853 956.11C975.044 892.943 892.428 678.224 791.991 470.389C690.881 261.171 572.056 59.6424 514.126 27.4415C455.371 -2.79022 221.6 10.7533 -8.62425 43.3145C-237.155 75.6936 -461.562 126.667 -507.184 171.95C-554.11 218.508 -613.477 444.971 -653.608 674.052ZM-694.884 1192.73C-724.848 1133.18 -704.212 901.385 -664.052 672.217C-623.616 441.419 -563.219 212.531 -514.641 164.385C-467.309 117.487 -240.483 65.4796 -10.0859 32.8343C221.862 0.00530958 458.21 -13.2232 519.017 18.0059L519.131 18.0931C578.972 51.1464 699.58 254.873 801.531 465.821C902.781 675.327 985.883 892.661 973.296 958.088C960.345 1025.26 803.868 1202.86 634.747 1365.02C466.784 1526.04 285.739 1672.33 219.596 1680.55C152.304 1688.9 -61.1878 1597.13 -265.175 1488.27C-469.191 1379.5 -664.329 1253.22 -694.884 1192.73ZM-588.952 1140.43C-613.614 1091.48 -595.017 891.404 -560.089 692.224C-524.914 491.498 -473.429 293.532 -433.315 253.779C-394.359 215.16 -198.353 171.014 1.83786 142.652C203.579 114.107 407.778 101.901 458.065 127.769C507.642 155.692 610.981 331.679 699.448 514.755C787.411 696.794 859.948 884.196 849.523 938.094C838.821 993.622 703.113 1146.66 555.984 1287.64C410.099 1427.52 254.266 1554.41 199.807 1561.15C144.228 1568.08 -39.9798 1488.17 -217.317 1393.5C-394.684 1298.92 -563.699 1190.45 -588.952 1140.43ZM-586.243 687.693C-621.966 891.394 -639.948 1098.16 -612.649 1152.38C-584.872 1207.45 -411.145 1320.19 -229.816 1416.9C-48.545 1513.64 141.924 1595.15 203.13 1587.48C263.302 1580.03 424.99 1449.93 574.323 1306.73C724.64 1162.63 863.82 1004.13 875.556 943.11C887.106 883.462 813.321 689.538 723.34 503.349C632.714 315.834 524.933 134.524 470.534 104.454L470.221 104.25C414.916 75.8339 204.275 87.252 -1.85906 116.437C-206.672 145.407 -408.814 192.181 -451.943 234.969C-496.087 278.748 -550.275 482.59 -586.243 687.693ZM-466.349 713.781C-495.926 882.487 -511.889 1051.63 -491.351 1092.39C-470.279 1134.11 -327.253 1225.64 -176.992 1305.82C-26.7303 1385.99 128.971 1453.76 175.277 1447.99C220.664 1442.38 352.231 1334.91 475.891 1216.46C600.479 1096.99 715.399 967.754 724.366 921.409C732.972 876.523 671.44 718.197 596.932 563.971C522.061 408.996 434.909 260.136 393.568 236.69C351.633 215.1 178.988 225.645 7.99932 249.855C-161.525 273.852 -327.323 310.934 -359.728 343.089C-393.205 376.263 -436.5 543.73 -466.349 713.781ZM-519.747 1106.7C-543.484 1059.65 -528.265 882.533 -497.711 708.362C-466.943 533.017 -420.388 358.477 -382.1 320.538C-344.709 283.393 -171.537 243.152 3.58637 218.357C179.858 193.431 360.205 183.773 408.127 208.439L408.525 208.672C455.714 234.763 548.158 389.96 625.609 550.238C702.555 709.479 765.55 875.648 755.578 927.4C745.422 980.24 626.329 1116.14 497.8 1239.38C370.141 1361.77 231.536 1473.09 179.259 1479.62C126.207 1486.18 -36.9568 1416.56 -191.979 1333.92C-346.971 1251.2 -495.674 1154.44 -519.747 1106.7ZM-361.092 1028.26C-375.85 998.94 -362.957 869.212 -340.08 738.762C-317.046 607.167 -284.296 478.403 -260.123 454.386C-236.79 431.277 -109.482 403.434 21.6244 384.863C153.936 366.134 286.51 357.471 316.842 373.084C347.007 390.846 413.068 504.986 470.813 624.453C528.446 743.689 576.224 864.938 570.049 897.238C563.516 930.852 474.817 1029.73 378.421 1122.16C282.893 1213.74 182.33 1296.58 149.661 1300.63C116.072 1304.85 -3.18559 1252.22 -119.445 1190.23C-235.704 1128.23 -345.856 1058.41 -361.092 1028.26ZM-392.387 729.702C-416.826 869.251 -428.546 1012.24 -408.429 1052.14C-388.086 1092.35 -268.51 1170.84 -144.442 1237.03C-20.26 1303.3 111.551 1358.87 156.249 1353.31C200.43 1347.86 312.647 1258.5 415.013 1160.32C517.929 1061.65 613.514 951.727 622.088 907.213C630.539 863.471 580.239 729.121 518.626 601.556C456.621 473.184 381.532 348.394 341.752 326.398L341.154 326.048C300.759 305.278 155.329 312.424 14.2025 332.375C-126.092 352.278 -265.7 385.319 -297.38 416.764C-329.64 448.777 -367.766 589.352 -392.387 729.702ZM-196.272 947.102C-204.044 931.707 -195.131 851.103 -180.635 768.495C-165.984 684.886 -146.407 604.369 -133.422 591.496C-121.161 579.332 -41.7687 562.888 41.2704 551.158C125.229 539.265 207.836 532.948 224.199 541.385C240.794 552.203 280.782 623.139 317.055 698.163C353.58 773.705 384.147 848.866 380.864 865.86C377.368 884.026 321.394 945.106 260.316 1003.75C199.819 1061.69 137.836 1113.93 120.497 1116.09C102.496 1118.36 28.4985 1084.77 -45.2356 1045.43C-119.027 1006.12 -188.107 963.304 -196.272 947.102ZM-253.858 755.707C-270.588 851.162 -277.813 950.334 -262.549 980.547C-247.343 1010.79 -165.008 1065.76 -80.215 1110.99C4.57784 1156.21 96.161 1194 129.778 1189.84C163.136 1185.73 241.503 1124.38 311.504 1057.26C381.795 989.863 447.372 913.206 453.816 879.849C460.171 846.749 426.136 753.316 383.977 666.043C341.678 578.483 289.04 492.529 259.119 476.002L258.236 475.505C227.876 459.833 127.202 464.031 30.8972 477.651C-65.0634 491.247 -161.652 514.984 -185.623 538.831C-209.882 562.819 -237.009 659.909 -253.858 755.707Z" />
</svg>
