<svg fill="#0481FE" width="1080" height="1280" viewBox="0 0 1080 1280" xmlns="http://www.w3.org/2000/svg">
<path d="M1228.68 602C1128.26 556.422 1071.39 538.069 1048.02 539.955C1025.03 541.945 976.161 567.688 892.138 626.815C805.737 687.443 691.297 779.897 542.317 912.204C385.743 1051.37 273.097 1160.58 196.386 1244.51C121.623 1326.14 86.4753 1374.61 81.1908 1397.32C75.9855 1419.31 85.5447 1473.8 115.805 1572.34C147.024 1673.83 199.483 1811.27 279.02 1993.08C363.334 2185.8 432.364 2326.8 488.126 2425.1C542.709 2521.43 577.776 2569.66 597.375 2581.61C617.349 2592.89 676.536 2599.98 787.194 2600.73C900.284 2601.42 1057.02 2592.99 1266.48 2572.7C1463.82 2553.54 1609.47 2532.4 1713.32 2510.16C1814.2 2488.54 1866.36 2470.34 1883.07 2455.08C1900.23 2439.41 1925.45 2385.1 1960.35 2279.97C1996.2 2172.19 2036.62 2020.54 2081.8 1815.93C2124.77 1621.43 2149.68 1476.32 2160.53 1371.38C2171.12 1269.23 2169.87 1213.97 2160.32 1192.94C2150.7 1171.65 2106.9 1130.94 2018.14 1065.49C1791.81 898.71 1484.59 718.366 1228.68 602ZM489.991 2764.53C489.328 2764.16 488.582 2763.73 487.919 2763.36C438.004 2733.08 376.767 2659.57 303.283 2529.93C243.495 2424.44 171.044 2276.91 84.2473 2078.53C1.53423 1889.56 -53.7619 1744.18 -87.5121 1634.59C-129.591 1497.56 -139.014 1405.86 -125.493 1348.45C-112.274 1291.96 -61.3814 1211.16 39.1943 1101.26C120.639 1012.24 238.583 897.718 401.094 753.266C554.671 616.887 675.804 519.359 770.206 453.084C887.729 370.462 972.059 333.045 1030.41 328.072C1088.11 323.279 1180.73 346.852 1316.85 408.773C1588.09 532.053 1904.09 717.573 2143.94 894.292C2264.3 982.95 2330.05 1052.35 2353.94 1105.09C2378.05 1158.4 2386.53 1250.21 2371.65 1393.23C2359.8 1507.89 2333.75 1661.21 2289.4 1861.82C2242.55 2074.02 2200.11 2232.95 2162 2347.42C2115.08 2488.73 2069.36 2572.56 2026.46 2611.74C1982.93 2651.43 1898.22 2687.98 1758.09 2717.92C1645.87 2741.99 1492.01 2764.51 1286.7 2784.41C1071.2 2805.34 907.124 2814 785.898 2813.19C636.807 2812.16 542.773 2794.57 492.016 2765.78C491.27 2765.36 490.607 2764.99 489.991 2764.53Z" />
<path d="M1206.7 943.375C1140.5 913.297 1102.96 901.166 1087.6 902.434C1072.44 903.713 1040.16 920.79 984.742 959.671C927.77 999.751 852.221 1060.71 753.943 1147.98C650.705 1239.76 576.343 1311.78 525.845 1367.11C476.485 1421 453.299 1452.95 449.771 1467.9C446.348 1482.48 452.628 1518.39 472.652 1583.38C493.218 1650.32 527.926 1740.99 580.334 1860.9C635.872 1988.05 681.418 2081.02 718.243 2145.88C754.2 2209.38 777.355 2241.16 790.299 2249.02C803.43 2256.55 842.58 2261.17 915.526 2261.71C990.137 2262.21 1093.44 2256.61 1231.54 2243.23C1361.81 2230.56 1457.9 2216.63 1526.34 2201.94C1592.87 2187.7 1627.32 2175.68 1638.36 2165.63C1649.67 2155.29 1666.32 2119.43 1689.31 2050.09C1712.94 1979.04 1739.62 1878.99 1769.38 1744.05C1797.78 1615.79 1814.22 1520.12 1821.36 1450.79C1828.35 1383.45 1827.51 1347.01 1821.22 1333.18C1814.85 1319.09 1786 1292.18 1727.48 1249.07C1578.15 1139.12 1375.45 1020.12 1206.7 943.375ZM719.482 2369.73C718.985 2369.45 718.571 2369.21 718.156 2368.98C685.153 2349.02 644.771 2300.51 596.333 2214.99C556.805 2145.42 509.089 2048.17 451.821 1917.31C397.311 1792.6 360.818 1696.77 338.609 1624.42C310.833 1534.05 304.562 1473.55 313.468 1435.72C322.176 1398.44 355.777 1345.16 422.107 1272.64C475.847 1213.9 553.71 1138.39 660.874 1043.14C762.103 953.171 842.039 888.891 904.271 845.113C981.836 790.645 1037.43 765.968 1075.92 762.674C1114.01 759.488 1175.07 775.069 1264.86 815.847C1443.77 897.24 1652.15 1019.55 1810.39 1136.17C1889.78 1194.58 1933.12 1240.38 1948.92 1275.11C1964.87 1310.36 1970.45 1370.91 1960.61 1465.17C1952.81 1540.9 1935.58 1642.03 1906.34 1774.3C1875.46 1914.3 1847.44 2019.06 1822.34 2094.64C1791.32 2187.86 1761.2 2243.11 1732.91 2269C1704.22 2295.21 1648.31 2319.28 1555.92 2339.02C1481.94 2354.84 1380.38 2369.73 1245.01 2382.91C1102.84 2396.73 994.59 2402.37 914.608 2401.9C816.311 2401.14 754.28 2389.6 720.762 2370.56C720.347 2370.32 719.85 2370.04 719.482 2369.73Z" />
<path d="M1190.84 1203.69C1150.92 1185.51 1128.28 1178.19 1118.99 1178.95C1109.87 1179.81 1090.34 1189.99 1056.92 1213.53C1022.54 1237.62 976.982 1274.53 917.627 1327.15C855.275 1382.56 810.492 1426.02 779.945 1459.39C750.163 1491.98 736.184 1511.3 734.067 1520.28C731.961 1529.04 735.763 1550.75 747.845 1589.94C760.287 1630.42 781.217 1685.11 812.849 1757.42C846.426 1834.23 873.892 1890.3 896.08 1929.41C917.793 1967.8 931.783 1986.97 939.599 1991.71C947.509 1996.29 971.112 1999.02 1015.21 1999.33C1060.16 1999.69 1122.52 1996.33 1205.92 1988.23C1284.48 1980.57 1342.5 1972.13 1383.78 1963.31C1423.94 1954.73 1444.77 1947.47 1451.38 1941.37C1458.31 1935.12 1468.31 1913.54 1482.24 1871.67C1496.43 1828.74 1512.57 1768.43 1530.51 1686.95C1547.6 1609.47 1557.55 1551.79 1561.93 1509.98C1566.12 1469.28 1565.53 1447.29 1561.82 1438.97C1557.9 1430.41 1540.48 1414.23 1505.23 1388.19C1415.07 1321.73 1292.79 1250.03 1190.84 1203.69ZM896.779 2064.6C896.53 2064.46 896.281 2064.32 895.997 2064.05C876.102 2052.05 851.755 2022.77 822.527 1971.16C798.696 1929.16 769.871 1870.46 735.338 1791.48C702.405 1716.24 680.314 1658.39 666.924 1614.74C650.162 1560.23 646.429 1523.68 651.807 1500.81C657.081 1478.31 677.337 1446.14 717.361 1402.38C749.762 1366.9 796.779 1321.41 861.411 1263.9C922.6 1209.59 970.771 1170.76 1008.34 1144.32C1055.18 1111.53 1088.76 1096.61 1111.96 1094.63C1134.91 1092.72 1171.81 1102.09 1226.02 1126.7C1333.98 1175.77 1459.73 1249.66 1555.22 1320.01C1603.18 1355.3 1629.32 1382.96 1638.91 1403.91C1648.45 1425.15 1651.84 1461.72 1645.93 1518.63C1641.23 1564.3 1630.81 1625.32 1613.13 1705.2C1594.48 1789.67 1577.64 1852.97 1562.5 1898.53C1543.76 1954.74 1525.52 1988.18 1508.54 2003.73C1491.15 2019.6 1457.47 2034.13 1401.67 2046.01C1357.03 2055.56 1295.75 2064.56 1213.97 2072.48C1128.26 2080.8 1062.87 2084.31 1014.64 2083.96C955.28 2083.55 917.83 2076.5 897.608 2065.07C897.359 2064.93 897.11 2064.79 896.779 2064.6Z" />
<path d="M1179.12 1397.25C1158.66 1387.99 1147.13 1384.21 1142.33 1384.56C1137.71 1385.01 1127.72 1390.3 1110.58 1402.26C1092.99 1414.63 1069.66 1433.48 1039.35 1460.42C1007.48 1488.77 984.529 1511.01 968.875 1528.07C953.666 1544.74 946.56 1554.61 945.473 1559.24C944.396 1563.66 946.304 1574.8 952.495 1594.81C958.819 1615.54 969.594 1643.5 985.75 1680.5C1002.9 1719.82 1016.96 1748.53 1028.31 1768.5C1039.42 1788.12 1046.55 1797.94 1050.57 1800.32C1054.66 1802.74 1066.7 1804.08 1089.24 1804.24C1112.29 1804.47 1144.22 1802.72 1186.8 1798.57C1227.06 1794.64 1256.69 1790.38 1277.85 1785.83C1298.36 1781.45 1308.99 1777.73 1312.39 1774.62C1315.92 1771.47 1321 1760.35 1328.18 1738.93C1335.43 1717.01 1343.68 1686.14 1352.91 1644.45C1361.61 1604.87 1366.73 1575.29 1368.96 1553.92C1371.08 1533.14 1370.8 1521.83 1368.92 1517.6C1366.88 1513.28 1358.01 1504.99 1339.98 1491.63C1293.79 1457.66 1231.24 1420.9 1179.12 1397.25ZM1028.73 1837.62C1028.56 1837.53 1028.48 1837.48 1028.32 1837.38C1018.14 1831.2 1005.68 1816.29 990.655 1789.87C978.53 1768.37 963.766 1738.38 946.081 1697.89C929.233 1659.4 917.942 1629.84 911.103 1607.5C902.583 1579.62 900.591 1560.89 903.355 1549.22C906.026 1537.72 916.407 1521.28 936.935 1498.88C953.494 1480.79 977.525 1457.42 1010.64 1428.02C1041.84 1400.27 1066.5 1380.42 1085.73 1366.9C1109.77 1350.09 1126.86 1342.47 1138.81 1341.46C1150.49 1340.52 1169.35 1345.27 1197.09 1357.88C1252.34 1382.97 1316.71 1420.76 1365.57 1456.78C1390.01 1474.85 1403.45 1489 1408.32 1499.73C1413.23 1510.59 1414.92 1529.26 1411.91 1558.4C1409.45 1581.71 1404.16 1612.95 1395.19 1653.79C1385.63 1697.04 1377 1729.34 1369.17 1752.69C1359.65 1781.53 1350.35 1798.58 1341.59 1806.53C1332.74 1814.65 1315.44 1822.04 1286.96 1828.15C1264.08 1833.04 1232.73 1837.63 1190.97 1841.7C1147.1 1846 1113.64 1847.76 1088.92 1847.57C1058.63 1847.4 1039.46 1843.79 1029.14 1837.85C1028.98 1837.76 1028.9 1837.71 1028.73 1837.62Z" />
</svg>
